SplineFontDB: 3.2
FontName: MiscFixedNeue-Medium
FullName: Misc Fixed Neue Medium
FamilyName: Misc Fixed Neue
Weight: Medium
Copyright: Modern work is Copyright (C) 2024 Anders Piniesjo.\n\nThis font is based on work Copyright (C) 2000 Ulf Jordan, relased under GNU Lesser General Public License 2.1.\n\nThis font is free software; you can redistribute it and/or modify it under the terms of the GNU Lesser General Public License as published by the Free Software Foundation; either version 2.1 of the License, or (at your option) any later version.
Version: 02.01
ItalicAngle: 0
UnderlinePosition: -99
UnderlineWidth: 49
Ascent: 750
Descent: 250
InvalidEm: 0
sfntRevision: 0x000000c5
LayerCount: 2
Layer: 0 1 "Back" 1
Layer: 1 1 "Fore" 0
XUID: [1021 326 -82470499 1095209]
StyleMap: 0x0040
FSType: 4
OS2Version: 3
OS2_WeightWidthSlopeOnly: 0
OS2_UseTypoMetrics: 0
CreationTime: 1165656016
ModificationTime: 1731350714
PfmFamily: 17
TTFWeight: 500
TTFWidth: 5
LineGap: 75
VLineGap: 0
Panose: 2 0 6 9 0 0 0 2 0 4
OS2TypoAscent: 750
OS2TypoAOffset: 0
OS2TypoDescent: -250
OS2TypoDOffset: 0
OS2TypoLinegap: 75
OS2WinAscent: 776
OS2WinAOffset: 0
OS2WinDescent: 154
OS2WinDOffset: 0
HheadAscent: 750
HheadAOffset: 0
HheadDescent: -250
HheadDOffset: 0
OS2SubXSize: 700
OS2SubYSize: 650
OS2SubXOff: 0
OS2SubYOff: 140
OS2SupXSize: 700
OS2SupYSize: 650
OS2SupXOff: 0
OS2SupYOff: 477
OS2StrikeYSize: 50
OS2StrikeYPos: 250
OS2CapHeight: 700
OS2XHeight: 500
OS2Vendor: 'pyrs'
OS2CodePages: 00000001.00000000
OS2UnicodeRanges: 00000001.00000000.00000000.00000000
MarkAttachClasses: 1
DEI: 91125
ShortTable: maxp 16
  1
  0
  357
  94
  5
  0
  0
  1
  0
  0
  0
  0
  0
  0
  0
  0
EndShort
LangName: 1033 "" "" "" "" "" "Version 000.003" "" "" "C) Ulf Jordan. This library is free software; you can redistribute it and/or modify it under the terms of the GNU Lesser General Public License as published by the Free Software Foundation; either version . of the License, or (at your option) any later version"

StartChar: exclam
Encoding: 33 33 4
Width: 461
GlyphClass: 1
Flags: W
LayerCount: 2
Fore
SplineSet
197 -3 m 1,0,1
 173 -3 173 -3 153.5 16.5 c 128,-1,2
 134 36 134 36 134 59 c 256,3,4
 134 81 134 81 153.5 101 c 128,-1,5
 173 121 173 121 195 121 c 256,6,7
 217 121 217 121 237.5 100.5 c 128,-1,8
 258 80 258 80 258 58 c 0,9,10
 258 34 258 34 237.5 13.5 c 128,-1,11
 217 -7 217 -7 194 -7 c 1,12,-1
 197 -3 l 1,0,1
157 697 m 1,13,-1
 234 697 l 1,14,-1
 234 190 l 1,15,-1
 157 190 l 1,16,-1
 157 697 l 1,13,-1
EndSplineSet
Validated: 1
EndChar

StartChar: quotedbl
Encoding: 34 34 5
Width: 461
GlyphClass: 1
Flags: W
LayerCount: 2
Fore
SplineSet
77 693 m 1,0,-1
 154 693 l 1,1,-1
 154 462 l 1,2,-1
 77 462 l 1,3,-1
 77 693 l 1,0,-1
231 693 m 1,4,-1
 308 693 l 1,5,-1
 308 462 l 1,6,-1
 231 462 l 1,7,-1
 231 693 l 1,4,-1
EndSplineSet
Validated: 1
EndChar

StartChar: numbersign
Encoding: 35 35 6
Width: 461
GlyphClass: 1
Flags: W
LayerCount: 2
Fore
SplineSet
77 231 m 1,0,-1
 0 231 l 1,1,-1
 0 308 l 1,2,-1
 77 308 l 1,3,-1
 77 385 l 1,4,-1
 0 385 l 1,5,-1
 0 462 l 1,6,-1
 77 462 l 1,7,-1
 77 616 l 1,8,-1
 154 616 l 1,9,-1
 154 462 l 1,10,-1
 231 462 l 1,11,-1
 231 616 l 1,12,-1
 308 616 l 1,13,-1
 308 462 l 1,14,-1
 385 462 l 1,15,-1
 385 385 l 1,16,-1
 308 385 l 1,17,-1
 308 308 l 1,18,-1
 385 308 l 1,19,-1
 385 231 l 1,20,-1
 308 231 l 1,21,-1
 308 77 l 1,22,-1
 231 77 l 1,23,-1
 231 231 l 1,24,-1
 154 231 l 1,25,-1
 154 77 l 1,26,-1
 77 77 l 1,27,-1
 77 231 l 1,0,-1
231 308 m 1,28,-1
 231 385 l 1,29,-1
 154 385 l 1,30,-1
 154 308 l 1,31,-1
 231 308 l 1,28,-1
EndSplineSet
Validated: 1
EndChar

StartChar: dollar
Encoding: 36 36 7
Width: 461
GlyphClass: 1
Flags: W
LayerCount: 2
Fore
SplineSet
0 154 m 1,0,-1
 154 154 l 1,1,-1
 154 308 l 1,2,3
 125 308 125 308 97.5 321 c 128,-1,4
 70 334 70 334 48 356 c 128,-1,5
 26 378 26 378 13 405.5 c 128,-1,6
 0 433 0 433 0 462 c 256,7,8
 0 491 0 491 13 518.5 c 128,-1,9
 26 546 26 546 48 568 c 128,-1,10
 70 590 70 590 97.5 603 c 128,-1,11
 125 616 125 616 154 616 c 1,12,-1
 154 693 l 1,13,-1
 231 693 l 1,14,-1
 231 616 l 1,15,-1
 385 616 l 1,16,-1
 385 539 l 1,17,-1
 231 539 l 1,18,-1
 231 385 l 1,19,20
 260 385 260 385 287.5 372 c 128,-1,21
 315 359 315 359 337 337 c 128,-1,22
 359 315 359 315 372 287.5 c 128,-1,23
 385 260 385 260 385 231 c 256,24,25
 385 202 385 202 372 174.5 c 128,-1,26
 359 147 359 147 337 125 c 128,-1,27
 315 103 315 103 287.5 90 c 128,-1,28
 260 77 260 77 231 77 c 1,29,-1
 231 0 l 1,30,-1
 154 0 l 1,31,-1
 154 77 l 1,32,-1
 0 77 l 1,33,-1
 0 154 l 1,0,-1
231 154 m 1,34,35
 246 154 246 154 259.5 160.5 c 128,-1,36
 273 167 273 167 284 178 c 128,-1,37
 295 189 295 189 301.5 203 c 128,-1,38
 308 217 308 217 308 231 c 0,39,40
 308 246 308 246 301.5 259.5 c 128,-1,41
 295 273 295 273 284 284 c 128,-1,42
 273 295 273 295 259.5 301.5 c 128,-1,43
 246 308 246 308 231 308 c 1,44,-1
 231 154 l 1,34,35
154 539 m 1,45,46
 140 539 140 539 126 532.5 c 128,-1,47
 112 526 112 526 101 515 c 128,-1,48
 90 504 90 504 83.5 490.5 c 128,-1,49
 77 477 77 477 77 462 c 0,50,51
 77 448 77 448 83.5 434 c 128,-1,52
 90 420 90 420 101 409 c 128,-1,53
 112 398 112 398 126 391.5 c 128,-1,54
 140 385 140 385 154 385 c 1,55,-1
 154 539 l 1,45,46
EndSplineSet
Validated: 1
EndChar

StartChar: percent
Encoding: 37 37 8
Width: 461
GlyphClass: 1
Flags: W
LayerCount: 2
Fore
SplineSet
272 3 m 1,0,1
 250 3 250 3 229.5 13 c 128,-1,2
 209 23 209 23 192.5 39 c 128,-1,3
 176 55 176 55 166 75.5 c 128,-1,4
 156 96 156 96 156 118 c 0,5,6
 156 139 156 139 166 160 c 128,-1,7
 176 181 176 181 192 197 c 128,-1,8
 208 213 208 213 228.5 223 c 128,-1,9
 249 233 249 233 271 233 c 0,10,11
 292 233 292 233 313 223 c 128,-1,12
 334 213 334 213 350 196.5 c 128,-1,13
 366 180 366 180 376 159.5 c 128,-1,14
 386 139 386 139 386 117 c 256,15,16
 386 95 386 95 376 74.5 c 128,-1,17
 366 54 366 54 349.5 37.5 c 128,-1,18
 333 21 333 21 312.5 11 c 128,-1,19
 292 1 292 1 270 1 c 1,20,-1
 272 3 l 1,0,1
274 82 m 1,21,22
 288 82 288 82 300 94 c 128,-1,23
 312 106 312 106 312 120 c 256,24,25
 312 134 312 134 299.5 146 c 128,-1,26
 287 158 287 158 273 158 c 0,27,28
 258 158 258 158 246 145.5 c 128,-1,29
 234 133 234 133 234 119 c 0,30,31
 234 104 234 104 246 92 c 128,-1,32
 258 80 258 80 272 80 c 1,33,-1
 274 82 l 1,21,22
122 470 m 1,34,35
 100 470 100 470 79.5 480 c 128,-1,36
 59 490 59 490 42.5 506 c 128,-1,37
 26 522 26 522 16 542.5 c 128,-1,38
 6 563 6 563 6 585 c 0,39,40
 6 606 6 606 16 627 c 128,-1,41
 26 648 26 648 42 664 c 128,-1,42
 58 680 58 680 78.5 690 c 128,-1,43
 99 700 99 700 121 700 c 0,44,45
 142 700 142 700 163 690 c 128,-1,46
 184 680 184 680 200 663.5 c 128,-1,47
 216 647 216 647 226 626.5 c 128,-1,48
 236 606 236 606 236 584 c 256,49,50
 236 562 236 562 226 541.5 c 128,-1,51
 216 521 216 521 199.5 504.5 c 128,-1,52
 183 488 183 488 162.5 478 c 128,-1,53
 142 468 142 468 120 468 c 1,54,-1
 122 470 l 1,34,35
124 549 m 1,55,56
 138 549 138 549 150 561 c 128,-1,57
 162 573 162 573 162 587 c 256,58,59
 162 601 162 601 149.5 613 c 128,-1,60
 137 625 137 625 123 625 c 0,61,62
 108 625 108 625 96 612.5 c 128,-1,63
 84 600 84 600 84 586 c 0,64,65
 84 571 84 571 96 559 c 128,-1,66
 108 547 108 547 122 547 c 1,67,-1
 124 549 l 1,55,56
9 11 m 1,68,-1
 317 704 l 1,69,-1
 394 704 l 1,70,-1
 86 11 l 1,71,-1
 9 11 l 1,68,-1
EndSplineSet
Validated: 1
EndChar

StartChar: ampersand
Encoding: 38 38 9
Width: 461
GlyphClass: 1
Flags: W
LayerCount: 2
Fore
SplineSet
303 0 m 1,0,-1
 277 55 l 1,1,-1
 259 39 l 2,2,3
 238 20 238 20 211 10 c 128,-1,4
 184 0 184 0 156 0 c 0,5,6
 127 0 127 0 99.5 13 c 128,-1,7
 72 26 72 26 50 48 c 128,-1,8
 28 70 28 70 15 97.5 c 128,-1,9
 2 125 2 125 2 154 c 0,10,11
 2 181 2 181 11.5 207 c 128,-1,12
 21 233 21 233 38 253 c 2,13,-1
 131 365 l 1,14,-1
 90 452 l 2,15,16
 79 476 79 476 79 501 c 0,17,18
 79 522 79 522 89 543 c 128,-1,19
 99 564 99 564 115 580 c 128,-1,20
 131 596 131 596 151.5 606 c 128,-1,21
 172 616 172 616 194 616 c 0,22,23
 215 616 215 616 236 606 c 128,-1,24
 257 596 257 596 273 579.5 c 128,-1,25
 289 563 289 563 299 542.5 c 128,-1,26
 309 522 309 522 309 500 c 0,27,28
 309 459 309 459 282 426 c 2,29,-1
 220 352 l 1,30,-1
 300 181 l 1,31,-1
 385 257 l 1,32,-1
 385 154 l 1,33,-1
 334 108 l 1,34,-1
 385 0 l 1,35,-1
 303 0 l 1,0,-1
168 287 m 1,36,-1
 98 203 l 2,37,38
 80 183 80 183 80 154 c 0,39,40
 80 140 80 140 86.5 126 c 128,-1,41
 93 112 93 112 104 101 c 128,-1,42
 115 90 115 90 129 83.5 c 128,-1,43
 143 77 143 77 157 77 c 256,44,45
 171 77 171 77 184 82.5 c 128,-1,46
 197 88 197 88 208 97 c 2,47,-1
 243 128 l 1,48,-1
 168 287 l 1,36,-1
225 476 m 2,49,50
 234 486 234 486 234 501 c 0,51,52
 234 515 234 515 221.5 527 c 128,-1,53
 209 539 209 539 195 539 c 0,54,55
 180 539 180 539 168 526.5 c 128,-1,56
 156 514 156 514 156 500 c 0,57,58
 156 494 156 494 160 484 c 2,59,-1
 186 429 l 1,60,-1
 225 476 l 2,49,50
EndSplineSet
Validated: 1
EndChar

StartChar: quotesingle
Encoding: 39 39 10
Width: 461
GlyphClass: 1
Flags: W
LayerCount: 2
Fore
SplineSet
154 693 m 1,0,-1
 231 693 l 1,1,-1
 231 462 l 1,2,-1
 154 462 l 1,3,-1
 154 693 l 1,0,-1
EndSplineSet
Validated: 1
EndChar

StartChar: parenleft
Encoding: 40 40 11
Width: 461
GlyphClass: 1
Flags: W
LayerCount: 2
Fore
SplineSet
211 -77 m 1,0,1
 146 15 146 15 113.5 124.5 c 128,-1,2
 81 234 81 234 81 346.5 c 128,-1,3
 81 459 81 459 113.5 568.5 c 128,-1,4
 146 678 146 678 211 770 c 1,5,-1
 308 770 l 1,6,7
 234 682 234 682 197 571.5 c 128,-1,8
 160 461 160 461 160 346.5 c 128,-1,9
 160 232 160 232 197 121.5 c 128,-1,10
 234 11 234 11 308 -77 c 1,11,-1
 211 -77 l 1,0,1
EndSplineSet
Validated: 1
EndChar

StartChar: parenright
Encoding: 41 41 12
Width: 461
GlyphClass: 1
Flags: W
LayerCount: 2
Fore
SplineSet
77 -77 m 1,0,1
 151 11 151 11 188 121.5 c 128,-1,2
 225 232 225 232 225 346.5 c 128,-1,3
 225 461 225 461 188 571.5 c 128,-1,4
 151 682 151 682 77 770 c 1,5,-1
 174 770 l 1,6,7
 239 678 239 678 271.5 568.5 c 128,-1,8
 304 459 304 459 304 346.5 c 128,-1,9
 304 234 304 234 271.5 124.5 c 128,-1,10
 239 15 239 15 174 -77 c 1,11,-1
 77 -77 l 1,0,1
EndSplineSet
Validated: 1
EndChar

StartChar: asterisk
Encoding: 42 42 13
Width: 461
GlyphClass: 1
Flags: W
LayerCount: 2
Fore
SplineSet
154 254 m 1,0,-1
 54 154 l 1,1,-1
 0 154 l 1,2,-1
 0 208 l 1,3,-1
 138 346 l 1,4,-1
 0 484 l 1,5,-1
 0 538 l 1,6,-1
 54 538 l 1,7,-1
 154 438 l 1,8,-1
 154 615 l 1,9,-1
 231 615 l 1,10,-1
 231 438 l 1,11,-1
 331 538 l 1,12,-1
 385 538 l 1,13,-1
 385 484 l 1,14,-1
 247 346 l 1,15,-1
 385 208 l 1,16,-1
 385 154 l 1,17,-1
 331 154 l 1,18,-1
 231 254 l 1,19,-1
 231 77 l 1,20,-1
 154 77 l 1,21,-1
 154 254 l 1,0,-1
EndSplineSet
Validated: 1
EndChar

StartChar: plus
Encoding: 43 43 14
Width: 461
GlyphClass: 1
Flags: W
LayerCount: 2
Fore
SplineSet
154 308 m 1,0,-1
 0 308 l 1,1,-1
 0 385 l 1,2,-1
 154 385 l 1,3,-1
 154 539 l 1,4,-1
 231 539 l 1,5,-1
 231 385 l 1,6,-1
 385 385 l 1,7,-1
 385 308 l 1,8,-1
 231 308 l 1,9,-1
 231 154 l 1,10,-1
 154 154 l 1,11,-1
 154 308 l 1,0,-1
EndSplineSet
Validated: 1
EndChar

StartChar: comma
Encoding: 44 44 15
Width: 461
GlyphClass: 1
Flags: W
LayerCount: 2
Fore
SplineSet
77 0 m 1,0,-1
 154 77 l 1,1,-1
 154 154 l 1,2,-1
 308 154 l 1,3,-1
 308 77 l 1,4,-1
 154 -77 l 1,5,-1
 77 -77 l 1,6,-1
 77 0 l 1,0,-1
EndSplineSet
Validated: 1
EndChar

StartChar: hyphen
Encoding: 45 45 16
Width: 461
GlyphClass: 1
Flags: W
LayerCount: 2
Fore
SplineSet
0 385 m 1,0,-1
 385 385 l 1,1,-1
 385 308 l 1,2,-1
 0 308 l 1,3,-1
 0 385 l 1,0,-1
EndSplineSet
Validated: 1
EndChar

StartChar: period
Encoding: 46 46 17
Width: 461
GlyphClass: 1
Flags: W
LayerCount: 2
Fore
SplineSet
193 -38 m 0,0,1
 179 -38 179 -38 165 -31.5 c 128,-1,2
 151 -25 151 -25 140 -14 c 128,-1,3
 129 -3 129 -3 122.5 11 c 128,-1,4
 116 25 116 25 116 39 c 0,5,6
 116 54 116 54 122.5 67.5 c 128,-1,7
 129 81 129 81 140 92 c 128,-1,8
 151 103 151 103 165 109.5 c 128,-1,9
 179 116 179 116 193 116 c 0,10,11
 208 116 208 116 221.5 109.5 c 128,-1,12
 235 103 235 103 246 92 c 128,-1,13
 257 81 257 81 263.5 67.5 c 128,-1,14
 270 54 270 54 270 39 c 0,15,16
 270 25 270 25 263.5 11 c 128,-1,17
 257 -3 257 -3 246 -14 c 128,-1,18
 235 -25 235 -25 221.5 -31.5 c 128,-1,19
 208 -38 208 -38 193 -38 c 0,0,1
EndSplineSet
Validated: 1
EndChar

StartChar: slash
Encoding: 47 47 18
Width: 461
GlyphClass: 1
Flags: W
LayerCount: 2
Fore
SplineSet
308 693 m 1,0,-1
 385 693 l 1,1,-1
 77 0 l 1,2,-1
 0 0 l 1,3,-1
 308 693 l 1,0,-1
EndSplineSet
Validated: 1
EndChar

StartChar: zero
Encoding: 48 48 19
Width: 461
GlyphClass: 1
Flags: WO
HStem: 1 80<134.093 258.214> 619 76<133.116 257.256>
VStem: 0 81<134.423 567.866> 311 75<133.962 565.75>
LayerCount: 2
Fore
SplineSet
2 503 m 2,0,1
 2 539 2 539 18.5 573.5 c 128,-1,2
 35 608 35 608 62 635 c 128,-1,3
 89 662 89 662 123.5 678.5 c 128,-1,4
 158 695 158 695 194 695 c 256,5,6
 230 695 230 695 264.5 678.5 c 128,-1,7
 299 662 299 662 326 634.5 c 128,-1,8
 353 607 353 607 369.5 572.5 c 128,-1,9
 386 538 386 538 386 502 c 2,10,-1
 386 194 l 2,11,12
 386 158 386 158 369.5 123 c 128,-1,13
 353 88 353 88 325.5 61 c 128,-1,14
 298 34 298 34 263.5 17.5 c 128,-1,15
 229 1 229 1 193 1 c 256,16,17
 157 1 157 1 122 17.5 c 128,-1,18
 87 34 87 34 60 61 c 128,-1,19
 33 88 33 88 16.5 122.5 c 128,-1,20
 0 157 0 157 0 193 c 2,21,-1
 2 503 l 2,0,1
81 197 m 2,22,23
 81 175 81 175 91 154.5 c 128,-1,24
 101 134 101 134 117 117.5 c 128,-1,25
 133 101 133 101 153.5 91 c 128,-1,26
 174 81 174 81 196 81 c 0,27,28
 217 81 217 81 238 91 c 128,-1,29
 259 101 259 101 275 117 c 128,-1,30
 291 133 291 133 301 153.5 c 128,-1,31
 311 174 311 174 311 196 c 2,32,-1
 311 504 l 2,33,34
 311 525 311 525 301 546 c 128,-1,35
 291 567 291 567 274.5 583 c 128,-1,36
 258 599 258 599 237.5 609 c 128,-1,37
 217 619 217 619 195 619 c 256,38,39
 173 619 173 619 152.5 609 c 128,-1,40
 132 599 132 599 115.5 582.5 c 128,-1,41
 99 566 99 566 89 545.5 c 128,-1,42
 79 525 79 525 79 503 c 2,43,-1
 81 197 l 2,22,23
EndSplineSet
Validated: 1
EndChar

StartChar: one
Encoding: 49 49 20
Width: 461
GlyphClass: 1
Flags: W
LayerCount: 2
Fore
SplineSet
-2 440 m 17,0,-1
 0 539 l 1,1,-1
 154 693 l 1,2,-1
 231 693 l 1,3,-1
 231 77 l 1,4,-1
 385 77 l 1,5,-1
 385 0 l 1,6,-1
 0 0 l 1,7,-1
 0 77 l 1,8,-1
 154 77 l 1,9,-1
 154 589 l 5,10,-1
 -2 440 l 17,0,-1
EndSplineSet
Validated: 1
EndChar

StartChar: two
Encoding: 50 50 21
Width: 461
GlyphClass: 1
Flags: W
LayerCount: 2
Fore
SplineSet
1 78 m 1,0,-1
 309 424 l 1,1,-1
 309 539 l 2,2,3
 309 554 309 554 302.5 567.5 c 128,-1,4
 296 581 296 581 285 592 c 128,-1,5
 274 603 274 603 260.5 609.5 c 128,-1,6
 247 616 247 616 232 616 c 2,7,-1
 155 616 l 2,8,9
 141 616 141 616 127 609.5 c 128,-1,10
 113 603 113 603 102 592 c 128,-1,11
 91 581 91 581 84.5 567.5 c 128,-1,12
 78 554 78 554 78 539 c 2,13,-1
 78 462 l 1,14,-1
 1 462 l 1,15,-1
 1 539 l 2,16,17
 1 568 1 568 14 595.5 c 128,-1,18
 27 623 27 623 49 645 c 128,-1,19
 71 667 71 667 98.5 680 c 128,-1,20
 126 693 126 693 155 693 c 2,21,-1
 232 693 l 2,22,23
 261 693 261 693 288.5 680 c 128,-1,24
 316 667 316 667 338 645 c 128,-1,25
 360 623 360 623 373 595.5 c 128,-1,26
 386 568 386 568 386 539 c 2,27,-1
 386 385 l 1,28,-1
 116 77 l 1,29,-1
 385 77 l 1,30,-1
 385 0 l 1,31,-1
 0 0 l 1,32,-1
 1 78 l 1,0,-1
EndSplineSet
Validated: 1
EndChar

StartChar: three
Encoding: 51 51 22
Width: 461
GlyphClass: 1
Flags: W
LayerCount: 2
Fore
SplineSet
77 154 m 1,0,1
 77 140 77 140 83.5 126 c 128,-1,2
 90 112 90 112 101 101 c 128,-1,3
 112 90 112 90 126 83.5 c 128,-1,4
 140 77 140 77 154 77 c 2,5,-1
 231 77 l 2,6,7
 246 77 246 77 259.5 83.5 c 128,-1,8
 273 90 273 90 284 101 c 128,-1,9
 295 112 295 112 301.5 126 c 128,-1,10
 308 140 308 140 308 154 c 2,11,-1
 308 231 l 2,12,13
 308 246 308 246 301.5 259.5 c 128,-1,14
 295 273 295 273 284 284 c 128,-1,15
 273 295 273 295 259.5 301.5 c 128,-1,16
 246 308 246 308 231 308 c 2,17,-1
 77 308 l 1,18,-1
 77 385 l 1,19,-1
 308 616 l 1,20,-1
 0 616 l 1,21,-1
 0 693 l 1,22,-1
 385 693 l 1,23,-1
 385 584 l 1,24,-1
 186 385 l 1,25,-1
 231 385 l 2,26,27
 260 385 260 385 287.5 372 c 128,-1,28
 315 359 315 359 337 337 c 128,-1,29
 359 315 359 315 372 287.5 c 128,-1,30
 385 260 385 260 385 231 c 2,31,-1
 385 154 l 2,32,33
 385 125 385 125 372 97.5 c 128,-1,34
 359 70 359 70 337 48 c 128,-1,35
 315 26 315 26 287.5 13 c 128,-1,36
 260 0 260 0 231 0 c 2,37,-1
 154 0 l 2,38,39
 125 0 125 0 97.5 13 c 128,-1,40
 70 26 70 26 48 48 c 128,-1,41
 26 70 26 70 13 97.5 c 128,-1,42
 0 125 0 125 0 154 c 1,43,-1
 77 154 l 1,0,1
EndSplineSet
Validated: 1
EndChar

StartChar: four
Encoding: 52 52 23
Width: 461
GlyphClass: 1
Flags: W
LayerCount: 2
Fore
SplineSet
231 154 m 1,0,-1
 0 154 l 1,1,-1
 0 231 l 1,2,-1
 231 693 l 1,3,-1
 308 693 l 1,4,-1
 308 231 l 1,5,-1
 385 231 l 1,6,-1
 385 154 l 1,7,-1
 308 154 l 1,8,-1
 308 0 l 1,9,-1
 231 0 l 1,10,-1
 231 154 l 1,0,-1
89 231 m 5,11,-1
 231 231 l 1,12,-1
 231 509 l 1,13,-1
 89 231 l 5,11,-1
EndSplineSet
Validated: 1
EndChar

StartChar: five
Encoding: 53 53 24
Width: 461
GlyphClass: 1
Flags: W
LayerCount: 2
Fore
SplineSet
77 616 m 9,0,-1
 77 412 l 1,1,2
 99 450 99 450 146 457 c 0,3,4
 179 462 179 462 207 462 c 0,5,6
 264 462 264 462 299 443 c 0,7,8
 319 432 319 432 337 414 c 0,9,10
 359 392 359 392 372 364.5 c 128,-1,11
 385 337 385 337 385 308 c 2,12,13
 385 154 385 154 385 154 c 2,14,15
 385 125 385 125 372 97.5 c 128,-1,16
 359 70 359 70 337 48 c 128,-1,17
 315 26 315 26 287.5 13 c 128,-1,18
 260 0 260 0 231 0 c 2,19,20
 154 0 154 0 154 0 c 2,21,22
 125 0 125 0 97.5 13 c 128,-1,23
 70 26 70 26 48 48 c 128,-1,24
 26 70 26 70 13 97.5 c 128,-1,25
 0 125 0 125 0 154 c 1,26,27
 77 154 77 154 77 154 c 1,28,29
 77 140 77 140 83.5 126 c 128,-1,30
 90 112 90 112 101 101 c 128,-1,31
 112 90 112 90 126 83.5 c 128,-1,32
 140 77 140 77 154 77 c 2,33,34
 231 77 231 77 231 77 c 2,35,36
 246 77 246 77 259.5 83.5 c 128,-1,37
 273 90 273 90 284 101 c 128,-1,38
 295 112 295 112 301.5 126 c 128,-1,39
 308 140 308 140 308 154 c 2,40,41
 308 308 308 308 308 308 c 2,42,43
 308 323 308 323 301.5 336.5 c 128,-1,44
 295 350 295 350 284 361 c 128,-1,45
 273 372 273 372 259.5 378.5 c 128,-1,46
 246 385 246 385 204 385 c 128,-1,47
 162 385 162 385 148 378.5 c 128,-1,48
 134 372 134 372 123 361 c 128,-1,49
 112 350 112 350 105.5 336.5 c 128,-1,50
 99 323 99 323 99 308 c 1,51,52
 99 308 99 308 0 308 c 1,53,-1
 0 693 l 1,54,-1
 385 693 l 1,55,-1
 385 616 l 1,56,-1
 77 616 l 9,0,-1
EndSplineSet
Validated: 1
EndChar

StartChar: six
Encoding: 54 54 25
Width: 461
GlyphClass: 1
Flags: W
LayerCount: 2
Fore
SplineSet
0 539 m 2,0,1
 0 568 0 568 13 595.5 c 128,-1,2
 26 623 26 623 48 645 c 128,-1,3
 70 667 70 667 97.5 680 c 128,-1,4
 125 693 125 693 154 693 c 2,5,-1
 231 693 l 2,6,7
 260 693 260 693 287.5 680 c 128,-1,8
 315 667 315 667 337 645 c 128,-1,9
 359 623 359 623 372 595.5 c 128,-1,10
 385 568 385 568 385 539 c 1,11,-1
 308 539 l 1,12,13
 308 554 308 554 301.5 567.5 c 128,-1,14
 295 581 295 581 284 592 c 128,-1,15
 273 603 273 603 259.5 609.5 c 128,-1,16
 246 616 246 616 231 616 c 2,17,-1
 154 616 l 2,18,19
 140 616 140 616 126 609.5 c 128,-1,20
 112 603 112 603 101 592 c 128,-1,21
 90 581 90 581 83.5 567.5 c 128,-1,22
 77 554 77 554 77 539 c 2,23,-1
 77 385 l 1,24,-1
 231 385 l 2,25,26
 260 385 260 385 287.5 372 c 128,-1,27
 315 359 315 359 337 337 c 128,-1,28
 359 315 359 315 372 287.5 c 128,-1,29
 385 260 385 260 385 231 c 2,30,-1
 385 154 l 2,31,32
 385 125 385 125 372 97.5 c 128,-1,33
 359 70 359 70 337 48 c 128,-1,34
 315 26 315 26 287.5 13 c 128,-1,35
 260 0 260 0 231 0 c 2,36,-1
 154 0 l 2,37,38
 125 0 125 0 97.5 13 c 128,-1,39
 70 26 70 26 48 48 c 128,-1,40
 26 70 26 70 13 97.5 c 128,-1,41
 0 125 0 125 0 154 c 2,42,-1
 0 539 l 2,0,1
77 154 m 2,43,44
 77 140 77 140 83.5 126 c 128,-1,45
 90 112 90 112 101 101 c 128,-1,46
 112 90 112 90 126 83.5 c 128,-1,47
 140 77 140 77 154 77 c 2,48,-1
 231 77 l 2,49,50
 246 77 246 77 259.5 83.5 c 128,-1,51
 273 90 273 90 284 101 c 128,-1,52
 295 112 295 112 301.5 126 c 128,-1,53
 308 140 308 140 308 154 c 2,54,-1
 308 231 l 2,55,56
 308 246 308 246 301.5 259.5 c 128,-1,57
 295 273 295 273 284 284 c 128,-1,58
 273 295 273 295 259.5 301.5 c 128,-1,59
 246 308 246 308 231 308 c 2,60,-1
 77 308 l 1,61,-1
 77 154 l 2,43,44
EndSplineSet
Validated: 1
EndChar

StartChar: seven
Encoding: 55 55 26
Width: 461
GlyphClass: 1
Flags: W
LayerCount: 2
Fore
SplineSet
77 172 m 1,0,-1
 299 616 l 1,1,-1
 0 616 l 1,2,-1
 0 693 l 1,3,-1
 385 693 l 1,4,-1
 385 616 l 1,5,-1
 154 154 l 1,6,-1
 154 0 l 1,7,-1
 77 0 l 1,8,-1
 77 172 l 1,0,-1
EndSplineSet
Validated: 1
EndChar

StartChar: eight
Encoding: 56 56 27
Width: 461
GlyphClass: 1
Flags: W
LayerCount: 2
Fore
SplineSet
154 2 m 2,0,1
 125 2 125 2 97.5 15 c 128,-1,2
 70 28 70 28 48 50 c 128,-1,3
 26 72 26 72 13 99.5 c 128,-1,4
 0 127 0 127 0 156 c 2,5,-1
 0 233 l 2,6,7
 0 265 0 265 13.5 295.5 c 128,-1,8
 27 326 27 326 52 348 c 1,9,10
 27 369 27 369 13.5 399.5 c 128,-1,11
 0 430 0 430 0 463 c 2,12,-1
 0 540 l 2,13,14
 0 569 0 569 13 596.5 c 128,-1,15
 26 624 26 624 48 646 c 128,-1,16
 70 668 70 668 97.5 681 c 128,-1,17
 125 694 125 694 154 694 c 2,18,-1
 231 694 l 2,19,20
 260 694 260 694 287.5 681 c 128,-1,21
 315 668 315 668 337 646 c 128,-1,22
 359 624 359 624 372 596.5 c 128,-1,23
 385 569 385 569 385 540 c 2,24,-1
 385 463 l 2,25,26
 385 430 385 430 371.5 399.5 c 128,-1,27
 358 369 358 369 333 347 c 1,28,29
 358 325 358 325 371.5 294.5 c 128,-1,30
 385 264 385 264 385 231 c 2,31,-1
 385 154 l 2,32,33
 385 125 385 125 372 97.5 c 128,-1,34
 359 70 359 70 337 48 c 128,-1,35
 315 26 315 26 287.5 13 c 128,-1,36
 260 0 260 0 231 0 c 2,37,-1
 154 2 l 2,0,1
231 79 m 2,38,39
 246 79 246 79 259.5 85.5 c 128,-1,40
 273 92 273 92 284 103 c 128,-1,41
 295 114 295 114 301.5 128 c 128,-1,42
 308 142 308 142 308 156 c 2,43,-1
 308 233 l 2,44,45
 308 248 308 248 301.5 261.5 c 128,-1,46
 295 275 295 275 284 286 c 128,-1,47
 273 297 273 297 259.5 303.5 c 128,-1,48
 246 310 246 310 231 310 c 2,49,-1
 154 310 l 2,50,51
 140 310 140 310 126 303.5 c 128,-1,52
 112 297 112 297 101 286 c 128,-1,53
 90 275 90 275 83.5 261.5 c 128,-1,54
 77 248 77 248 77 233 c 2,55,-1
 77 156 l 2,56,57
 77 142 77 142 83.5 128 c 128,-1,58
 90 114 90 114 101 103 c 128,-1,59
 112 92 112 92 126 85.5 c 128,-1,60
 140 79 140 79 154 79 c 2,61,-1
 231 79 l 2,38,39
231 387 m 2,62,63
 246 387 246 387 259.5 393.5 c 128,-1,64
 273 400 273 400 284 411 c 128,-1,65
 295 422 295 422 301.5 436 c 128,-1,66
 308 450 308 450 308 464 c 2,67,-1
 308 541 l 2,68,69
 308 556 308 556 301.5 569.5 c 128,-1,70
 295 583 295 583 284 594 c 128,-1,71
 273 605 273 605 259.5 611.5 c 128,-1,72
 246 618 246 618 231 618 c 2,73,-1
 154 618 l 2,74,75
 140 618 140 618 126 611.5 c 128,-1,76
 112 605 112 605 101 594 c 128,-1,77
 90 583 90 583 83.5 569.5 c 128,-1,78
 77 556 77 556 77 541 c 2,79,-1
 77 464 l 2,80,81
 77 450 77 450 83.5 436 c 128,-1,82
 90 422 90 422 101 411 c 128,-1,83
 112 400 112 400 126 393.5 c 128,-1,84
 140 387 140 387 154 387 c 2,85,-1
 231 387 l 2,62,63
EndSplineSet
Validated: 1
EndChar

StartChar: nine
Encoding: 57 57 28
Width: 461
GlyphClass: 1
Flags: W
LayerCount: 2
Fore
SplineSet
77 154 m 1,0,1
 77 140 77 140 83.5 126 c 128,-1,2
 90 112 90 112 101 101 c 128,-1,3
 112 90 112 90 126 83.5 c 128,-1,4
 140 77 140 77 154 77 c 2,5,-1
 231 77 l 2,6,7
 246 77 246 77 259.5 83.5 c 128,-1,8
 273 90 273 90 284 101 c 128,-1,9
 295 112 295 112 301.5 126 c 128,-1,10
 308 140 308 140 308 154 c 2,11,-1
 308 308 l 1,12,-1
 154 308 l 2,13,14
 125 308 125 308 97.5 321 c 128,-1,15
 70 334 70 334 48 356 c 128,-1,16
 26 378 26 378 13 405.5 c 128,-1,17
 0 433 0 433 0 462 c 2,18,-1
 0 539 l 2,19,20
 0 568 0 568 13 595.5 c 128,-1,21
 26 623 26 623 48 645 c 128,-1,22
 70 667 70 667 97.5 680 c 128,-1,23
 125 693 125 693 154 693 c 2,24,-1
 231 693 l 2,25,26
 260 693 260 693 287.5 680 c 128,-1,27
 315 667 315 667 337 645 c 128,-1,28
 359 623 359 623 372 595.5 c 128,-1,29
 385 568 385 568 385 539 c 2,30,-1
 385 154 l 2,31,32
 385 125 385 125 372 97.5 c 128,-1,33
 359 70 359 70 337 48 c 128,-1,34
 315 26 315 26 287.5 13 c 128,-1,35
 260 0 260 0 231 0 c 2,36,-1
 154 0 l 2,37,38
 125 0 125 0 97.5 13 c 128,-1,39
 70 26 70 26 48 48 c 128,-1,40
 26 70 26 70 13 97.5 c 128,-1,41
 0 125 0 125 0 154 c 1,42,-1
 77 154 l 1,0,1
308 539 m 2,43,44
 308 554 308 554 301.5 567.5 c 128,-1,45
 295 581 295 581 284 592 c 128,-1,46
 273 603 273 603 259.5 609.5 c 128,-1,47
 246 616 246 616 231 616 c 2,48,-1
 154 616 l 2,49,50
 140 616 140 616 126 609.5 c 128,-1,51
 112 603 112 603 101 592 c 128,-1,52
 90 581 90 581 83.5 567.5 c 128,-1,53
 77 554 77 554 77 539 c 2,54,-1
 77 462 l 2,55,56
 77 448 77 448 83.5 434 c 128,-1,57
 90 420 90 420 101 409 c 128,-1,58
 112 398 112 398 126 391.5 c 128,-1,59
 140 385 140 385 154 385 c 2,60,-1
 308 385 l 5,61,-1
 308 539 l 2,43,44
EndSplineSet
Validated: 1
EndChar

StartChar: colon
Encoding: 58 58 29
Width: 461
GlyphClass: 1
Flags: W
LayerCount: 2
Fore
SplineSet
193 -38 m 0,0,1
 179 -38 179 -38 165 -31.5 c 128,-1,2
 151 -25 151 -25 140 -14 c 128,-1,3
 129 -3 129 -3 122.5 11 c 128,-1,4
 116 25 116 25 116 39 c 0,5,6
 116 54 116 54 122.5 67.5 c 128,-1,7
 129 81 129 81 140 92 c 128,-1,8
 151 103 151 103 165 109.5 c 128,-1,9
 179 116 179 116 193 116 c 0,10,11
 208 116 208 116 221.5 109.5 c 128,-1,12
 235 103 235 103 246 92 c 128,-1,13
 257 81 257 81 263.5 67.5 c 128,-1,14
 270 54 270 54 270 39 c 0,15,16
 270 25 270 25 263.5 11 c 128,-1,17
 257 -3 257 -3 246 -14 c 128,-1,18
 235 -25 235 -25 221.5 -31.5 c 128,-1,19
 208 -38 208 -38 193 -38 c 0,0,1
193 347 m 0,20,21
 179 347 179 347 165 353.5 c 128,-1,22
 151 360 151 360 140 371 c 128,-1,23
 129 382 129 382 122.5 396 c 128,-1,24
 116 410 116 410 116 424 c 0,25,26
 116 439 116 439 122.5 452.5 c 128,-1,27
 129 466 129 466 140 477 c 128,-1,28
 151 488 151 488 165 494.5 c 128,-1,29
 179 501 179 501 193 501 c 0,30,31
 208 501 208 501 221.5 494.5 c 128,-1,32
 235 488 235 488 246 477 c 128,-1,33
 257 466 257 466 263.5 452.5 c 128,-1,34
 270 439 270 439 270 424 c 0,35,36
 270 410 270 410 263.5 396 c 128,-1,37
 257 382 257 382 246 371 c 128,-1,38
 235 360 235 360 221.5 353.5 c 128,-1,39
 208 347 208 347 193 347 c 0,20,21
EndSplineSet
Validated: 1
EndChar

StartChar: semicolon
Encoding: 59 59 30
Width: 461
GlyphClass: 1
Flags: W
LayerCount: 2
Fore
SplineSet
77 0 m 1,0,-1
 154 77 l 1,1,-1
 154 154 l 1,2,-1
 267 154 l 5,3,-1
 267 77 l 5,4,-1
 154 -77 l 1,5,-1
 77 -77 l 1,6,-1
 77 0 l 1,0,-1
193 347 m 0,7,8
 179 347 179 347 165 353.5 c 128,-1,9
 151 360 151 360 140 371 c 128,-1,10
 129 382 129 382 122.5 396 c 128,-1,11
 116 410 116 410 116 424 c 0,12,13
 116 439 116 439 122.5 452.5 c 128,-1,14
 129 466 129 466 140 477 c 128,-1,15
 151 488 151 488 165 494.5 c 128,-1,16
 179 501 179 501 193 501 c 0,17,18
 208 501 208 501 221.5 494.5 c 128,-1,19
 235 488 235 488 246 477 c 128,-1,20
 257 466 257 466 263.5 452.5 c 128,-1,21
 270 439 270 439 270 424 c 0,22,23
 270 410 270 410 263.5 396 c 128,-1,24
 257 382 257 382 246 371 c 128,-1,25
 235 360 235 360 221.5 353.5 c 128,-1,26
 208 347 208 347 193 347 c 0,7,8
EndSplineSet
Validated: 1
EndChar

StartChar: less
Encoding: 60 60 31
Width: 461
GlyphClass: 1
Flags: W
LayerCount: 2
Fore
SplineSet
3 348 m 1,0,-1
 349 694 l 1,1,-1
 387 694 l 1,2,-1
 387 617 l 1,3,-1
 117 347 l 1,4,-1
 386 77 l 1,5,-1
 386 0 l 1,6,-1
 347 0 l 1,7,-1
 3 348 l 1,0,-1
EndSplineSet
Validated: 1
EndChar

StartChar: equal
Encoding: 61 61 32
Width: 461
GlyphClass: 1
Flags: W
LayerCount: 2
Fore
SplineSet
0 231 m 1,0,-1
 385 231 l 1,1,-1
 385 154 l 1,2,-1
 0 154 l 1,3,-1
 0 231 l 1,0,-1
0 462 m 1,4,-1
 385 462 l 1,5,-1
 385 385 l 1,6,-1
 0 385 l 1,7,-1
 0 462 l 1,4,-1
EndSplineSet
Validated: 1
EndChar

StartChar: greater
Encoding: 62 62 33
Width: 461
GlyphClass: 1
Flags: W
HStem: 0 21G<0 59> 674 20G<2 59.9424>
LayerCount: 2
Fore
SplineSet
272 348 m 1,0,-1
 2 617 l 1,1,-1
 2 694 l 1,2,-1
 40 694 l 1,3,-1
 386 347 l 1,4,-1
 39 0 l 1,5,-1
 0 0 l 1,6,-1
 0 77 l 1,7,-1
 272 348 l 1,0,-1
EndSplineSet
Validated: 1
EndChar

StartChar: question
Encoding: 63 63 34
Width: 461
GlyphClass: 1
Flags: W
HStem: 620 77<106.534 284.466>
VStem: 3 77<466 593.466> 139 119<16.1472 101.74> 157 77<193 293> 311 77<452 593.466>
LayerCount: 2
Fore
SplineSet
199 0 m 5,0,1
 176 0 176 0 157.5 19 c 132,-1,2
 139 38 139 38 139 60 c 260,3,4
 139 81 139 81 157.5 100 c 132,-1,5
 176 119 176 119 198 119 c 260,6,7
 219 119 219 119 238.5 99.5 c 132,-1,8
 258 80 258 80 258 59 c 4,9,10
 258 36 258 36 238 16.5 c 132,-1,11
 218 -3 218 -3 196 -3 c 5,12,-1
 199 0 l 5,0,1
157 331 m 1,13,-1
 311 452 l 1,14,-1
 311 543 l 2,15,16
 311 558 311 558 304.5 571.5 c 128,-1,17
 298 585 298 585 287 596 c 128,-1,18
 276 607 276 607 262.5 613.5 c 128,-1,19
 249 620 249 620 234 620 c 2,20,-1
 157 620 l 2,21,22
 143 620 143 620 129 613.5 c 128,-1,23
 115 607 115 607 104 596 c 128,-1,24
 93 585 93 585 86.5 571.5 c 128,-1,25
 80 558 80 558 80 543 c 2,26,-1
 80 466 l 1,27,-1
 3 466 l 1,28,-1
 3 543 l 2,29,30
 3 572 3 572 16 599.5 c 128,-1,31
 29 627 29 627 51 649 c 128,-1,32
 73 671 73 671 100.5 684 c 128,-1,33
 128 697 128 697 157 697 c 2,34,-1
 234 697 l 2,35,36
 263 697 263 697 290.5 684 c 128,-1,37
 318 671 318 671 340 649 c 128,-1,38
 362 627 362 627 375 599.5 c 128,-1,39
 388 572 388 572 388 543 c 2,40,-1
 388 420 l 1,41,-1
 234 293 l 1,42,-1
 234 193 l 1,43,-1
 157 193 l 1,44,-1
 157 331 l 1,13,-1
EndSplineSet
Validated: 1
EndChar

StartChar: at
Encoding: 64 64 35
Width: 461
GlyphClass: 1
Flags: W
HStem: 0 77<103.534 385> 154 77<257.534 308> 385 77<257.534 308> 616 77<103.534 281.466>
VStem: 0 77<103.534 589.466> 154 77<257.311 358.691> 308 77<231 385 462 589.466>
CounterMasks: 1 0e
LayerCount: 2
Fore
SplineSet
154 0 m 2,0,1
 125 0 125 0 97.5 13 c 128,-1,2
 70 26 70 26 48 48 c 128,-1,3
 26 70 26 70 13 97.5 c 128,-1,4
 0 125 0 125 0 154 c 2,5,-1
 0 539 l 2,6,7
 0 568 0 568 13 595.5 c 128,-1,8
 26 623 26 623 48 645 c 128,-1,9
 70 667 70 667 97.5 680 c 128,-1,10
 125 693 125 693 154 693 c 2,11,-1
 231 693 l 2,12,13
 260 693 260 693 287.5 680 c 128,-1,14
 315 667 315 667 337 645 c 128,-1,15
 359 623 359 623 372 595.5 c 128,-1,16
 385 568 385 568 385 539 c 2,17,-1
 385 154 l 1,18,-1
 308 154 l 2,19,20
 279 154 279 154 251.5 167 c 128,-1,21
 224 180 224 180 202 202 c 128,-1,22
 180 224 180 224 167 251.5 c 128,-1,23
 154 279 154 279 154 308 c 256,24,25
 154 337 154 337 167 364.5 c 128,-1,26
 180 392 180 392 202 414 c 128,-1,27
 224 436 224 436 251.5 449 c 128,-1,28
 279 462 279 462 308 462 c 1,29,-1
 308 539 l 2,30,31
 308 554 308 554 301.5 567.5 c 128,-1,32
 295 581 295 581 284 592 c 128,-1,33
 273 603 273 603 259.5 609.5 c 128,-1,34
 246 616 246 616 231 616 c 2,35,-1
 154 616 l 2,36,37
 140 616 140 616 126 609.5 c 128,-1,38
 112 603 112 603 101 592 c 128,-1,39
 90 581 90 581 83.5 567.5 c 128,-1,40
 77 554 77 554 77 539 c 2,41,-1
 77 154 l 2,42,43
 77 140 77 140 83.5 126 c 128,-1,44
 90 112 90 112 101 101 c 128,-1,45
 112 90 112 90 126 83.5 c 128,-1,46
 140 77 140 77 154 77 c 2,47,-1
 385 77 l 1,48,-1
 385 0 l 1,49,-1
 154 0 l 2,0,1
308 385 m 1,50,51
 294 385 294 385 280 378.5 c 128,-1,52
 266 372 266 372 255 361 c 128,-1,53
 244 350 244 350 237.5 336.5 c 128,-1,54
 231 323 231 323 231 308 c 0,55,56
 231 294 231 294 237.5 280 c 128,-1,57
 244 266 244 266 255 255 c 128,-1,58
 266 244 266 244 280 237.5 c 128,-1,59
 294 231 294 231 308 231 c 1,60,-1
 308 385 l 1,50,51
EndSplineSet
Validated: 1
EndChar

StartChar: A
Encoding: 65 65 36
Width: 461
GlyphClass: 1
Flags: W
HStem: 0 21G<0 77 308 385> 231 78<78 308>
VStem: 0 77<0 231 309 463> 308 77<0 231 310 464>
LayerCount: 2
Fore
SplineSet
1 495 m 1,0,-1
 193 687 l 1,1,-1
 385 494 l 1,2,-1
 385 0 l 1,3,-1
 308 0 l 1,4,-1
 308 231 l 1,5,-1
 77 231 l 1,6,-1
 77 0 l 1,7,-1
 0 0 l 1,8,-1
 1 495 l 1,0,-1
310 310 m 1,9,-1
 310 464 l 1,10,-1
 194 579 l 1,11,-1
 78 463 l 1,12,-1
 78 309 l 1,13,-1
 310 310 l 1,9,-1
EndSplineSet
Validated: 1
EndChar

StartChar: B
Encoding: 66 66 37
Width: 461
GlyphClass: 1
Flags: W
HStem: 0 78<77 281.466> 309 77<77 281.916> 617 77<77 281.466>
VStem: 0 77<78 309 386 617> 308 77<104.398 282.793 412.092 590.466>
LayerCount: 2
Fore
SplineSet
0 694 m 1,0,-1
 231 694 l 2,1,2
 260 694 260 694 287.5 681 c 128,-1,3
 315 668 315 668 337 646 c 128,-1,4
 359 624 359 624 372 596.5 c 128,-1,5
 385 569 385 569 385 540 c 2,6,-1
 385 463 l 2,7,8
 385 434 385 434 384 418 c 0,9,10
 382 398 382 398 378 392 c 0,11,12
 372 380 372 380 357 372 c 0,13,14
 344 365 344 365 322 347 c 1,15,16
 351 325 351 325 355 321 c 0,17,18
 370 306 370 306 376 296 c 0,19,20
 383 284 383 284 384 274 c 0,21,22
 385 259 385 259 385 231 c 2,23,-1
 385 154 l 2,24,25
 385 125 385 125 372 97.5 c 128,-1,26
 359 70 359 70 337 48 c 128,-1,27
 315 26 315 26 287.5 13 c 128,-1,28
 260 0 260 0 231 0 c 2,29,-1
 0 0 l 1,30,-1
 0 694 l 1,0,-1
231 78 m 2,31,32
 246 78 246 78 259.5 84.5 c 128,-1,33
 273 91 273 91 284 102 c 128,-1,34
 295 113 295 113 301.5 127 c 128,-1,35
 308 141 308 141 308 155 c 2,36,-1
 308 232 l 2,37,38
 308 247 308 247 301.5 260.5 c 128,-1,39
 295 274 295 274 284 285 c 128,-1,40
 273 296 273 296 259.5 302.5 c 128,-1,41
 246 309 246 309 231 309 c 2,42,-1
 77 309 l 1,43,-1
 77 78 l 1,44,-1
 231 78 l 2,31,32
231 386 m 2,45,46
 246 386 246 386 259.5 392.5 c 128,-1,47
 273 399 273 399 284 410 c 128,-1,48
 295 421 295 421 301.5 435 c 128,-1,49
 308 449 308 449 308 463 c 2,50,-1
 308 540 l 2,51,52
 308 555 308 555 301.5 568.5 c 128,-1,53
 295 582 295 582 284 593 c 128,-1,54
 273 604 273 604 259.5 610.5 c 128,-1,55
 246 617 246 617 231 617 c 2,56,-1
 77 617 l 1,57,-1
 77 386 l 1,58,-1
 231 386 l 2,45,46
EndSplineSet
Validated: 1
EndChar

StartChar: C
Encoding: 67 67 38
Width: 461
GlyphClass: 1
Flags: W
HStem: 0 77<103.534 281.466> 616 77<103.534 281.466>
VStem: 0 77<103.534 589.466> 308 77<103.746 159 534 589.254>
LayerCount: 2
Fore
SplineSet
0 539 m 2,0,1
 0 568 0 568 13 595.5 c 128,-1,2
 26 623 26 623 48 645 c 128,-1,3
 70 667 70 667 97.5 680 c 128,-1,4
 125 693 125 693 154 693 c 2,5,-1
 231 693 l 2,6,7
 260 693 260 693 287.5 680 c 128,-1,8
 315 667 315 667 337 645 c 128,-1,9
 359 623 359 623 372 593 c 128,-1,10
 385 563 385 563 385 534 c 1,11,-1
 308 534 l 1,12,13
 308 549 308 549 301.5 565 c 128,-1,14
 295 581 295 581 284 592 c 128,-1,15
 273 603 273 603 259.5 609.5 c 128,-1,16
 246 616 246 616 231 616 c 2,17,-1
 154 616 l 2,18,19
 140 616 140 616 126 609.5 c 128,-1,20
 112 603 112 603 101 592 c 128,-1,21
 90 581 90 581 83.5 567.5 c 128,-1,22
 77 554 77 554 77 539 c 2,23,-1
 77 154 l 2,24,25
 77 140 77 140 83.5 126 c 128,-1,26
 90 112 90 112 101 101 c 128,-1,27
 112 90 112 90 126 83.5 c 128,-1,28
 140 77 140 77 154 77 c 2,29,-1
 231 77 l 2,30,31
 246 77 246 77 259.5 83.5 c 128,-1,32
 273 90 273 90 284 101 c 128,-1,33
 295 112 295 112 301.5 128.5 c 128,-1,34
 308 145 308 145 308 159 c 5,35,-1
 385 159 l 5,36,37
 385 130 385 130 372 100 c 128,-1,38
 359 70 359 70 337 48 c 128,-1,39
 315 26 315 26 287.5 13 c 128,-1,40
 260 0 260 0 231 0 c 2,41,-1
 154 0 l 2,42,43
 125 0 125 0 97.5 13 c 128,-1,44
 70 26 70 26 48 48 c 128,-1,45
 26 70 26 70 13 97.5 c 128,-1,46
 0 125 0 125 0 154 c 2,47,-1
 0 539 l 2,0,1
EndSplineSet
Validated: 1
EndChar

StartChar: D
Encoding: 68 68 39
Width: 461
GlyphClass: 1
Flags: W
HStem: 0 77<77 281.466> 616 77<77 281.466>
VStem: 0 77<77 616> 308 77<103.534 589.466>
LayerCount: 2
Fore
SplineSet
0 693 m 1,0,-1
 231 693 l 2,1,2
 260 693 260 693 287.5 680 c 128,-1,3
 315 667 315 667 337 645 c 128,-1,4
 359 623 359 623 372 595.5 c 128,-1,5
 385 568 385 568 385 539 c 2,6,-1
 385 154 l 2,7,8
 385 125 385 125 372 97.5 c 128,-1,9
 359 70 359 70 337 48 c 128,-1,10
 315 26 315 26 287.5 13 c 128,-1,11
 260 0 260 0 231 0 c 2,12,-1
 0 0 l 1,13,-1
 0 693 l 1,0,-1
231 77 m 2,14,15
 246 77 246 77 259.5 83.5 c 128,-1,16
 273 90 273 90 284 101 c 128,-1,17
 295 112 295 112 301.5 126 c 128,-1,18
 308 140 308 140 308 154 c 2,19,-1
 308 539 l 2,20,21
 308 554 308 554 301.5 567.5 c 128,-1,22
 295 581 295 581 284 592 c 128,-1,23
 273 603 273 603 259.5 609.5 c 128,-1,24
 246 616 246 616 231 616 c 2,25,-1
 77 616 l 1,26,-1
 77 77 l 1,27,-1
 231 77 l 2,14,15
EndSplineSet
Validated: 1
EndChar

StartChar: E
Encoding: 69 69 40
Width: 461
GlyphClass: 1
Flags: W
HStem: 0 77<77 385> 308 77<77 308> 616 77<77 385>
VStem: 0 77<77 308 385 616>
CounterMasks: 1 e0
LayerCount: 2
Fore
SplineSet
0 693 m 1,0,-1
 385 693 l 1,1,-1
 385 616 l 1,2,-1
 77 616 l 1,3,-1
 77 385 l 1,4,-1
 308 385 l 1,5,-1
 308 308 l 1,6,-1
 77 308 l 1,7,-1
 77 77 l 1,8,-1
 385 77 l 1,9,-1
 385 0 l 1,10,-1
 0 0 l 1,11,-1
 0 693 l 1,0,-1
EndSplineSet
Validated: 1
EndChar

StartChar: F
Encoding: 70 70 41
Width: 461
GlyphClass: 1
Flags: W
HStem: 0 21G<0 77> 308 77<77 308> 616 77<77 385>
VStem: 0 77<0 308 385 616>
LayerCount: 2
Fore
SplineSet
0 693 m 1,0,-1
 385 693 l 1,1,-1
 385 616 l 1,2,-1
 77 616 l 1,3,-1
 77 385 l 1,4,-1
 308 385 l 1,5,-1
 308 308 l 1,6,-1
 77 308 l 1,7,-1
 77 0 l 1,8,-1
 0 0 l 1,9,-1
 0 693 l 1,0,-1
EndSplineSet
Validated: 1
EndChar

StartChar: G
Encoding: 71 71 42
Width: 461
GlyphClass: 1
Flags: W
HStem: 0 77<103.534 281.466> 231 77<182 308> 616 77<103.534 281.466>
VStem: 0 77<103.534 589.466> 308 77<103.534 231 539 589.466>
LayerCount: 2
Fore
SplineSet
0 539 m 2,0,1
 0 568 0 568 13 595.5 c 128,-1,2
 26 623 26 623 48 645 c 128,-1,3
 70 667 70 667 97.5 680 c 128,-1,4
 125 693 125 693 154 693 c 2,5,-1
 231 693 l 2,6,7
 260 693 260 693 287.5 680 c 128,-1,8
 315 667 315 667 337 645 c 128,-1,9
 359 623 359 623 372 595.5 c 128,-1,10
 385 568 385 568 385 539 c 1,11,-1
 308 539 l 1,12,13
 308 554 308 554 301.5 567.5 c 128,-1,14
 295 581 295 581 284 592 c 128,-1,15
 273 603 273 603 259.5 609.5 c 128,-1,16
 246 616 246 616 231 616 c 2,17,-1
 154 616 l 2,18,19
 140 616 140 616 126 609.5 c 128,-1,20
 112 603 112 603 101 592 c 128,-1,21
 90 581 90 581 83.5 567.5 c 128,-1,22
 77 554 77 554 77 539 c 2,23,-1
 77 154 l 2,24,25
 77 140 77 140 83.5 126 c 128,-1,26
 90 112 90 112 101 101 c 128,-1,27
 112 90 112 90 126 83.5 c 128,-1,28
 140 77 140 77 154 77 c 2,29,-1
 231 77 l 2,30,31
 246 77 246 77 259.5 83.5 c 128,-1,32
 273 90 273 90 284 101 c 128,-1,33
 295 112 295 112 301.5 126 c 128,-1,34
 308 140 308 140 308 154 c 2,35,-1
 308 231 l 1,36,-1
 182 231 l 5,37,-1
 182 308 l 5,38,-1
 385 308 l 1,39,-1
 385 154 l 2,40,41
 385 125 385 125 372 97.5 c 128,-1,42
 359 70 359 70 337 48 c 128,-1,43
 315 26 315 26 287.5 13 c 128,-1,44
 260 0 260 0 231 0 c 2,45,-1
 154 0 l 2,46,47
 125 0 125 0 97.5 13 c 128,-1,48
 70 26 70 26 48 48 c 128,-1,49
 26 70 26 70 13 97.5 c 128,-1,50
 0 125 0 125 0 154 c 2,51,-1
 0 539 l 2,0,1
EndSplineSet
Validated: 1
EndChar

StartChar: H
Encoding: 72 72 43
Width: 461
GlyphClass: 1
Flags: W
HStem: 0 21G<0 77 308 385> 308 77<77 308> 673 20G<0 77 308 385>
VStem: 0 77<0 308 385 693> 308 77<0 308 385 693>
LayerCount: 2
Fore
SplineSet
0 693 m 1,0,-1
 77 693 l 1,1,-1
 77 385 l 1,2,-1
 308 385 l 1,3,-1
 308 693 l 1,4,-1
 385 693 l 1,5,-1
 385 0 l 1,6,-1
 308 0 l 1,7,-1
 308 308 l 1,8,-1
 77 308 l 1,9,-1
 77 0 l 1,10,-1
 0 0 l 1,11,-1
 0 693 l 1,0,-1
EndSplineSet
Validated: 1
EndChar

StartChar: I
Encoding: 73 73 44
Width: 461
GlyphClass: 1
Flags: W
HStem: 0 77<72 154 231 313> 616 77<72 154 231 313>
VStem: 72 241<0 77 616 693> 154 77<77 616>
LayerCount: 2
Fore
SplineSet
72 77 m 1,0,-1
 154 77 l 1,1,-1
 154 616 l 1,2,-1
 72 616 l 1,3,-1
 72 693 l 1,4,-1
 313 693 l 1,5,-1
 313 616 l 1,6,-1
 231 616 l 1,7,-1
 231 77 l 1,8,-1
 313 77 l 1,9,-1
 313 0 l 1,10,-1
 72 0 l 1,11,-1
 72 77 l 1,0,-1
EndSplineSet
Validated: 1
EndChar

StartChar: J
Encoding: 74 74 45
Width: 461
GlyphClass: 1
Flags: W
HStem: 0 77<103.311 204.691> 616 77<154 231 308 385>
VStem: 0 77<103.534 154> 231 77<103.534 616>
LayerCount: 2
Fore
SplineSet
77 154 m 1,0,1
 77 140 77 140 83.5 126 c 128,-1,2
 90 112 90 112 101 101 c 128,-1,3
 112 90 112 90 126 83.5 c 128,-1,4
 140 77 140 77 154 77 c 0,5,6
 169 77 169 77 182.5 83.5 c 128,-1,7
 196 90 196 90 207 101 c 128,-1,8
 218 112 218 112 224.5 126 c 128,-1,9
 231 140 231 140 231 154 c 2,10,-1
 231 616 l 1,11,-1
 154 616 l 1,12,-1
 154 693 l 1,13,-1
 385 693 l 1,14,-1
 385 616 l 1,15,-1
 308 616 l 1,16,-1
 308 154 l 2,17,18
 308 125 308 125 295 97.5 c 128,-1,19
 282 70 282 70 260 48 c 128,-1,20
 238 26 238 26 210.5 13 c 128,-1,21
 183 0 183 0 154 0 c 256,22,23
 125 0 125 0 97.5 13 c 128,-1,24
 70 26 70 26 48 48 c 128,-1,25
 26 70 26 70 13 97.5 c 128,-1,26
 0 125 0 125 0 154 c 1,27,-1
 77 154 l 1,0,1
EndSplineSet
Validated: 1
EndChar

StartChar: K
Encoding: 75 75 46
Width: 461
GlyphClass: 1
Flags: W
HStem: 0 21G<0 77 308 385> 674 20G<0 77 308 385>
VStem: 0 77<0 308 386 694> 308 77<0 77 617 694>
LayerCount: 2
Fore
SplineSet
0 694 m 1,0,-1
 77 694 l 1,1,-1
 77 386 l 1,2,-1
 308 617 l 1,3,-1
 308 694 l 1,4,-1
 385 694 l 1,5,-1
 385 578 l 1,6,-1
 154 347 l 1,7,-1
 385 116 l 1,8,-1
 385 0 l 1,9,-1
 308 0 l 1,10,-1
 308 77 l 1,11,-1
 77 308 l 1,12,-1
 77 0 l 1,13,-1
 0 0 l 1,14,-1
 0 694 l 1,0,-1
EndSplineSet
Validated: 1
EndChar

StartChar: L
Encoding: 76 76 47
Width: 461
GlyphClass: 1
Flags: W
HStem: 0 77<77 385> 673 20G<0 77>
VStem: 0 77<77 693>
LayerCount: 2
Fore
SplineSet
0 693 m 1,0,-1
 77 693 l 1,1,-1
 77 77 l 1,2,-1
 385 77 l 1,3,-1
 385 0 l 1,4,-1
 0 0 l 1,5,-1
 0 693 l 1,0,-1
EndSplineSet
Validated: 1
EndChar

StartChar: M
Encoding: 77 77 48
Width: 461
GlyphClass: 1
Flags: W
HStem: 0 21G<0 77 309 386> 674 20G<1.94236 107.948 280 386>
VStem: 0 77<0 554> 309 77<0 554>
LayerCount: 2
Fore
SplineSet
2 694 m 1,0,-1
 98 694 l 1,1,-1
 194 501 l 1,2,-1
 290 693 l 1,3,-1
 386 693 l 1,4,-1
 386 0 l 1,5,-1
 309 0 l 1,6,-1
 309 554 l 5,7,-1
 193 323 l 5,8,-1
 77 554 l 5,9,-1
 77 0 l 1,10,-1
 0 0 l 1,11,-1
 2 694 l 1,0,-1
EndSplineSet
Validated: 1
EndChar

StartChar: N
Encoding: 78 78 49
Width: 461
GlyphClass: 1
Flags: W
HStem: 0 22G<0 77 298.76 385> 674 20G<308 385>
VStem: 0 77<0 501> 308 77<194 694>
LayerCount: 2
Fore
SplineSet
0 695 m 1,0,-1
 77 695 l 1,1,-1
 308 194 l 1,2,-1
 308 694 l 1,3,-1
 385 694 l 1,4,-1
 385 1 l 1,5,-1
 308 1 l 1,6,-1
 77 501 l 1,7,-1
 77 0 l 1,8,-1
 0 0 l 1,9,-1
 0 695 l 1,0,-1
EndSplineSet
Validated: 1
EndChar

StartChar: O
Encoding: 79 79 50
Width: 461
GlyphClass: 1
Flags: W
HStem: 0 77<103.534 281.466> 616 77<103.534 281.466>
VStem: 0 77<103.534 589.466> 308 77<103.534 589.466>
LayerCount: 2
Fore
SplineSet
0 539 m 2,0,1
 0 568 0 568 13 595.5 c 128,-1,2
 26 623 26 623 48 645 c 128,-1,3
 70 667 70 667 97.5 680 c 128,-1,4
 125 693 125 693 154 693 c 2,5,-1
 231 693 l 2,6,7
 260 693 260 693 287.5 680 c 128,-1,8
 315 667 315 667 337 645 c 128,-1,9
 359 623 359 623 372 595.5 c 128,-1,10
 385 568 385 568 385 539 c 2,11,-1
 385 154 l 2,12,13
 385 125 385 125 372 97.5 c 128,-1,14
 359 70 359 70 337 48 c 128,-1,15
 315 26 315 26 287.5 13 c 128,-1,16
 260 0 260 0 231 0 c 2,17,-1
 154 0 l 2,18,19
 125 0 125 0 97.5 13 c 128,-1,20
 70 26 70 26 48 48 c 128,-1,21
 26 70 26 70 13 97.5 c 128,-1,22
 0 125 0 125 0 154 c 2,23,-1
 0 539 l 2,0,1
231 77 m 2,24,25
 246 77 246 77 259.5 83.5 c 128,-1,26
 273 90 273 90 284 101 c 128,-1,27
 295 112 295 112 301.5 126 c 128,-1,28
 308 140 308 140 308 154 c 2,29,-1
 308 539 l 2,30,31
 308 554 308 554 301.5 567.5 c 128,-1,32
 295 581 295 581 284 592 c 128,-1,33
 273 603 273 603 259.5 609.5 c 128,-1,34
 246 616 246 616 231 616 c 2,35,-1
 154 616 l 2,36,37
 140 616 140 616 126 609.5 c 128,-1,38
 112 603 112 603 101 592 c 128,-1,39
 90 581 90 581 83.5 567.5 c 128,-1,40
 77 554 77 554 77 539 c 2,41,-1
 77 154 l 2,42,43
 77 140 77 140 83.5 126 c 128,-1,44
 90 112 90 112 101 101 c 128,-1,45
 112 90 112 90 126 83.5 c 128,-1,46
 140 77 140 77 154 77 c 2,47,-1
 231 77 l 2,24,25
EndSplineSet
Validated: 1
EndChar

StartChar: P
Encoding: 80 80 51
Width: 461
GlyphClass: 1
Flags: W
HStem: 0 21G<0 77> 308 77<77 281.466> 616 77<77 281.466>
VStem: 0 77<0 308 385 616> 308 77<411.534 589.466>
LayerCount: 2
Fore
SplineSet
0 693 m 1,0,-1
 231 693 l 2,1,2
 260 693 260 693 287.5 680 c 128,-1,3
 315 667 315 667 337 645 c 128,-1,4
 359 623 359 623 372 595.5 c 128,-1,5
 385 568 385 568 385 539 c 2,6,-1
 385 462 l 2,7,8
 385 433 385 433 372 405.5 c 128,-1,9
 359 378 359 378 337 356 c 128,-1,10
 315 334 315 334 287.5 321 c 128,-1,11
 260 308 260 308 231 308 c 2,12,-1
 77 308 l 1,13,-1
 77 0 l 1,14,-1
 0 0 l 1,15,-1
 0 693 l 1,0,-1
231 385 m 2,16,17
 246 385 246 385 259.5 391.5 c 128,-1,18
 273 398 273 398 284 409 c 128,-1,19
 295 420 295 420 301.5 434 c 128,-1,20
 308 448 308 448 308 462 c 2,21,-1
 308 539 l 2,22,23
 308 554 308 554 301.5 567.5 c 128,-1,24
 295 581 295 581 284 592 c 128,-1,25
 273 603 273 603 259.5 609.5 c 128,-1,26
 246 616 246 616 231 616 c 2,27,-1
 77 616 l 1,28,-1
 77 385 l 1,29,-1
 231 385 l 2,16,17
EndSplineSet
Validated: 1
EndChar

StartChar: Q
Encoding: 81 81 52
Width: 461
GlyphClass: 1
Flags: W
HStem: -77 77<331.938 385> 0 77<103.534 231> 154 77<154 204.422> 616 77<103.534 281.466>
VStem: 0 77<103.534 589.466> 308 77<122.692 589.466>
LayerCount: 2
Fore
SplineSet
0 539 m 2,0,1
 0 568 0 568 13 595.5 c 128,-1,2
 26 623 26 623 48 645 c 128,-1,3
 70 667 70 667 97.5 680 c 128,-1,4
 125 693 125 693 154 693 c 2,5,-1
 231 693 l 2,6,7
 260 693 260 693 287.5 680 c 128,-1,8
 315 667 315 667 337 645 c 128,-1,9
 359 623 359 623 372 595.5 c 128,-1,10
 385 568 385 568 385 539 c 2,11,-1
 385 154 l 2,12,13
 385 119 385 119 368.5 86 c 128,-1,14
 352 53 352 53 323 31 c 1,15,16
 334 17 334 17 350.5 8.5 c 128,-1,17
 367 0 367 0 385 0 c 1,18,-1
 385 -77 l 1,19,20
 344 -77 344 -77 307.5 -55.5 c 128,-1,21
 271 -34 271 -34 251 1 c 1,22,23
 246 0 246 0 241 0 c 128,-1,24
 236 0 236 0 231 0 c 2,25,-1
 154 0 l 2,26,27
 125 0 125 0 97.5 13 c 128,-1,28
 70 26 70 26 48 48 c 128,-1,29
 26 70 26 70 13 97.5 c 128,-1,30
 0 125 0 125 0 154 c 2,31,-1
 0 539 l 2,0,1
231 77 m 1,32,33
 231 92 231 92 224.5 105.5 c 128,-1,34
 218 119 218 119 207 130 c 128,-1,35
 196 141 196 141 182.5 147.5 c 128,-1,36
 169 154 169 154 154 154 c 1,37,-1
 154 231 l 1,38,39
 178 231 178 231 201.5 222.5 c 128,-1,40
 225 214 225 214 244.5 199.5 c 128,-1,41
 264 185 264 185 279 165 c 128,-1,42
 294 145 294 145 301 122 c 1,43,44
 308 136 308 136 308 154 c 2,45,-1
 308 539 l 2,46,47
 308 554 308 554 301.5 567.5 c 128,-1,48
 295 581 295 581 284 592 c 128,-1,49
 273 603 273 603 259.5 609.5 c 128,-1,50
 246 616 246 616 231 616 c 2,51,-1
 154 616 l 2,52,53
 140 616 140 616 126 609.5 c 128,-1,54
 112 603 112 603 101 592 c 128,-1,55
 90 581 90 581 83.5 567.5 c 128,-1,56
 77 554 77 554 77 539 c 2,57,-1
 77 154 l 2,58,59
 77 140 77 140 83.5 126 c 128,-1,60
 90 112 90 112 101 101 c 128,-1,61
 112 90 112 90 126 83.5 c 128,-1,62
 140 77 140 77 154 77 c 2,63,-1
 231 77 l 1,32,33
EndSplineSet
Validated: 1
EndChar

StartChar: R
Encoding: 82 82 53
Width: 461
GlyphClass: 1
Flags: W
HStem: 0 21G<0 77 308 385> 309 77<193 282.466> 617 77<78 282.466>
VStem: 0 77<0 308 386 617> 308 77<0 77 411.669 591.331>
LayerCount: 2
Fore
SplineSet
1 694 m 1,0,-1
 232 694 l 2,1,2
 261 694 261 694 288.5 681 c 128,-1,3
 316 668 316 668 338 646 c 128,-1,4
 360 624 360 624 373 596.5 c 128,-1,5
 386 569 386 569 386 540 c 2,6,-1
 386 463 l 2,7,8
 386 434 386 434 373 406.5 c 128,-1,9
 360 379 360 379 338 357 c 128,-1,10
 316 335 316 335 288.5 322 c 128,-1,11
 261 309 261 309 232 309 c 2,12,-1
 193 309 l 1,13,-1
 385 116 l 1,14,-1
 385 0 l 1,15,-1
 308 0 l 1,16,-1
 308 77 l 1,17,-1
 77 308 l 1,18,-1
 77 0 l 1,19,-1
 0 0 l 1,20,-1
 1 694 l 1,0,-1
232 386 m 2,21,22
 247 386 247 386 260.5 392.5 c 128,-1,23
 274 399 274 399 285 410 c 128,-1,24
 296 421 296 421 302.5 435 c 128,-1,25
 309 449 309 449 309 463 c 2,26,-1
 309 540 l 2,27,28
 309 555 309 555 302.5 568.5 c 128,-1,29
 296 582 296 582 285 593 c 128,-1,30
 274 604 274 604 260.5 610.5 c 128,-1,31
 247 617 247 617 232 617 c 2,32,-1
 78 617 l 1,33,-1
 78 386 l 1,34,-1
 232 386 l 2,21,22
EndSplineSet
Validated: 1
EndChar

StartChar: S
Encoding: 83 83 54
Width: 461
GlyphClass: 1
Flags: W
HStem: 0 77<103.534 281.466> 308 77<103.534 281.466> 616 77<103.534 281.466>
VStem: 0 77<103.534 154 411.534 589.466> 308 77<103.534 281.466 539 589.466>
CounterMasks: 1 e0
LayerCount: 2
Fore
SplineSet
77 154 m 1,0,1
 77 140 77 140 83.5 126 c 128,-1,2
 90 112 90 112 101 101 c 128,-1,3
 112 90 112 90 126 83.5 c 128,-1,4
 140 77 140 77 154 77 c 2,5,-1
 231 77 l 2,6,7
 246 77 246 77 259.5 83.5 c 128,-1,8
 273 90 273 90 284 101 c 128,-1,9
 295 112 295 112 301.5 126 c 128,-1,10
 308 140 308 140 308 154 c 2,11,-1
 308 231 l 2,12,13
 308 246 308 246 301.5 259.5 c 128,-1,14
 295 273 295 273 284 284 c 128,-1,15
 273 295 273 295 259.5 301.5 c 128,-1,16
 246 308 246 308 231 308 c 2,17,-1
 154 308 l 2,18,19
 125 308 125 308 97.5 321 c 128,-1,20
 70 334 70 334 48 356 c 128,-1,21
 26 378 26 378 13 405.5 c 128,-1,22
 0 433 0 433 0 462 c 2,23,-1
 0 539 l 2,24,25
 0 568 0 568 13 595.5 c 128,-1,26
 26 623 26 623 48 645 c 128,-1,27
 70 667 70 667 97.5 680 c 128,-1,28
 125 693 125 693 154 693 c 2,29,-1
 231 693 l 2,30,31
 260 693 260 693 287.5 680 c 128,-1,32
 315 667 315 667 337 645 c 128,-1,33
 359 623 359 623 372 595.5 c 128,-1,34
 385 568 385 568 385 539 c 1,35,-1
 308 539 l 1,36,37
 308 554 308 554 301.5 567.5 c 128,-1,38
 295 581 295 581 284 592 c 128,-1,39
 273 603 273 603 259.5 609.5 c 128,-1,40
 246 616 246 616 231 616 c 2,41,-1
 154 616 l 2,42,43
 140 616 140 616 126 609.5 c 128,-1,44
 112 603 112 603 101 592 c 128,-1,45
 90 581 90 581 83.5 567.5 c 128,-1,46
 77 554 77 554 77 539 c 2,47,-1
 77 462 l 2,48,49
 77 448 77 448 83.5 434 c 128,-1,50
 90 420 90 420 101 409 c 128,-1,51
 112 398 112 398 126 391.5 c 128,-1,52
 140 385 140 385 154 385 c 2,53,-1
 231 385 l 2,54,55
 260 385 260 385 287.5 372 c 128,-1,56
 315 359 315 359 337 337 c 128,-1,57
 359 315 359 315 372 287.5 c 128,-1,58
 385 260 385 260 385 231 c 2,59,-1
 385 154 l 2,60,61
 385 125 385 125 372 97.5 c 128,-1,62
 359 70 359 70 337 48 c 128,-1,63
 315 26 315 26 287.5 13 c 128,-1,64
 260 0 260 0 231 0 c 2,65,-1
 154 0 l 2,66,67
 125 0 125 0 97.5 13 c 128,-1,68
 70 26 70 26 48 48 c 128,-1,69
 26 70 26 70 13 97.5 c 128,-1,70
 0 125 0 125 0 154 c 1,71,-1
 77 154 l 1,0,1
EndSplineSet
Validated: 1
EndChar

StartChar: T
Encoding: 84 84 55
Width: 461
GlyphClass: 1
Flags: W
HStem: 0 21G<154 231> 616 77<0 154 231 385>
VStem: 154 77<0 616>
LayerCount: 2
Fore
SplineSet
154 616 m 1,0,-1
 0 616 l 1,1,-1
 0 693 l 1,2,-1
 385 693 l 1,3,-1
 385 616 l 1,4,-1
 231 616 l 1,5,-1
 231 0 l 1,6,-1
 154 0 l 1,7,-1
 154 616 l 1,0,-1
EndSplineSet
Validated: 1
EndChar

StartChar: U
Encoding: 85 85 56
Width: 461
GlyphClass: 1
Flags: W
HStem: 0 77<103.534 281.466> 673 20G<0 77 308 385>
VStem: 0 77<103.534 693> 308 77<103.534 693>
LayerCount: 2
Fore
SplineSet
0 693 m 1,0,-1
 77 693 l 1,1,-1
 77 154 l 2,2,3
 77 140 77 140 83.5 126 c 128,-1,4
 90 112 90 112 101 101 c 128,-1,5
 112 90 112 90 126 83.5 c 128,-1,6
 140 77 140 77 154 77 c 2,7,-1
 231 77 l 2,8,9
 246 77 246 77 259.5 83.5 c 128,-1,10
 273 90 273 90 284 101 c 128,-1,11
 295 112 295 112 301.5 126 c 128,-1,12
 308 140 308 140 308 154 c 2,13,-1
 308 693 l 1,14,-1
 385 693 l 1,15,-1
 385 154 l 2,16,17
 385 125 385 125 372 97.5 c 128,-1,18
 359 70 359 70 337 48 c 128,-1,19
 315 26 315 26 287.5 13 c 128,-1,20
 260 0 260 0 231 0 c 2,21,-1
 154 0 l 2,22,23
 125 0 125 0 97.5 13 c 128,-1,24
 70 26 70 26 48 48 c 128,-1,25
 26 70 26 70 13 97.5 c 128,-1,26
 0 125 0 125 0 154 c 2,27,-1
 0 693 l 1,0,-1
EndSplineSet
Validated: 1
EndChar

StartChar: V
Encoding: 86 86 57
Width: 461
GlyphClass: 1
Flags: W
HStem: 0 21G<146.052 239> 673 20G<1 78 308 385>
VStem: 1 77<385 693> 308 77<385 693>
LayerCount: 2
Fore
SplineSet
1 385 m 1,0,-1
 1 693 l 1,1,-1
 78 693 l 1,2,-1
 78 385 l 1,3,-1
 193 96 l 1,4,-1
 308 385 l 1,5,-1
 308 693 l 1,6,-1
 385 693 l 1,7,-1
 385 385 l 1,8,-1
 231 0 l 1,9,-1
 154 0 l 1,10,-1
 1 385 l 1,0,-1
EndSplineSet
Validated: 1
EndChar

StartChar: W
Encoding: 87 87 58
Width: 461
GlyphClass: 1
Flags: W
HStem: 0 22G<0 105.948 278 384> 674 20G<0 77 307 384>
VStem: 0 77<130 694> 307 77<130 694>
LayerCount: 2
Fore
SplineSet
0 694 m 1,0,-1
 77 694 l 1,1,-1
 77 130 l 5,2,-1
 192 361 l 5,3,-1
 307 130 l 5,4,-1
 307 694 l 1,5,-1
 384 694 l 1,6,-1
 384 1 l 1,7,-1
 288 1 l 1,8,-1
 192 193 l 1,9,-1
 96 0 l 1,10,-1
 0 0 l 1,11,-1
 0 694 l 1,0,-1
EndSplineSet
Validated: 1
EndChar

StartChar: X
Encoding: 88 88 59
Width: 461
GlyphClass: 1
Flags: W
HStem: 0 21G<0 85.9231 300.077 386> 674 20G<2 87.8462 300.154 386>
LayerCount: 2
Fore
SplineSet
2 2 m 1,0,-1
 156 348 l 1,1,-1
 2 694 l 1,2,-1
 79 694 l 1,3,-1
 194 434 l 1,4,-1
 309 694 l 1,5,-1
 386 694 l 1,6,-1
 232 347 l 1,7,-1
 386 0 l 1,8,-1
 309 0 l 1,9,-1
 193 260 l 1,10,-1
 77 0 l 1,11,-1
 0 0 l 1,12,-1
 2 2 l 1,0,-1
EndSplineSet
Validated: 1
EndChar

StartChar: Y
Encoding: 89 89 60
Width: 461
GlyphClass: 1
Flags: W
HStem: 0 21G<154 231> 674 20G<1 86.8462 299.154 385>
VStem: 154 77<0 347>
LayerCount: 2
Fore
SplineSet
155 348 m 1,0,-1
 1 694 l 1,1,-1
 78 694 l 1,2,-1
 193 434 l 1,3,-1
 308 694 l 1,4,-1
 385 694 l 1,5,-1
 231 347 l 1,6,-1
 231 0 l 1,7,-1
 154 0 l 1,8,-1
 155 348 l 1,0,-1
EndSplineSet
Validated: 1
EndChar

StartChar: Z
Encoding: 90 90 61
Width: 461
GlyphClass: 1
Flags: W
HStem: 0 77<77 385> 616 77<0 308>
LayerCount: 2
Fore
SplineSet
0 77 m 1,0,-1
 308 616 l 1,1,-1
 0 616 l 1,2,-1
 0 693 l 1,3,-1
 385 693 l 1,4,-1
 385 616 l 1,5,-1
 77 77 l 1,6,-1
 385 77 l 1,7,-1
 385 0 l 1,8,-1
 0 0 l 1,9,-1
 0 77 l 1,0,-1
EndSplineSet
Validated: 1
EndChar

StartChar: bracketleft
Encoding: 91 91 62
Width: 461
GlyphClass: 1
Flags: W
HStem: -77 77<154 308> 693 77<154 308>
VStem: 77 231<-77 0 693 770> 77 77<0 693>
LayerCount: 2
Fore
SplineSet
77 770 m 1,0,-1
 308 770 l 1,1,-1
 308 693 l 1,2,-1
 154 693 l 1,3,-1
 154 0 l 1,4,-1
 308 0 l 1,5,-1
 308 -77 l 1,6,-1
 77 -77 l 1,7,-1
 77 770 l 1,0,-1
EndSplineSet
Validated: 1
EndChar

StartChar: backslash
Encoding: 92 92 63
Width: 461
GlyphClass: 1
Flags: W
HStem: 0 21G<299.111 385> 673 20G<0 85.8889>
LayerCount: 2
Fore
SplineSet
0 693 m 1,0,-1
 77 693 l 1,1,-1
 385 0 l 1,2,-1
 308 0 l 1,3,-1
 0 693 l 1,0,-1
EndSplineSet
Validated: 1
EndChar

StartChar: bracketright
Encoding: 93 93 64
Width: 461
GlyphClass: 1
Flags: W
HStem: -77 77<77 231> 693 77<77 231>
VStem: 77 231<-77 0 693 770> 231 77<0 693>
LayerCount: 2
Fore
SplineSet
77 0 m 1,0,-1
 231 0 l 1,1,-1
 231 693 l 1,2,-1
 77 693 l 1,3,-1
 77 770 l 1,4,-1
 308 770 l 1,5,-1
 308 -77 l 1,6,-1
 77 -77 l 1,7,-1
 77 0 l 1,0,-1
EndSplineSet
Validated: 1
EndChar

StartChar: asciicircum
Encoding: 94 94 65
Width: 461
GlyphClass: 1
Flags: W
HStem: 462 232
LayerCount: 2
Fore
SplineSet
0 502 m 1,0,-1
 192 694 l 1,1,-1
 384 501 l 1,2,-1
 384 462 l 1,3,-1
 314 462 l 1,4,-1
 192 584 l 1,5,-1
 70 462 l 1,6,-1
 0 462 l 1,7,-1
 0 502 l 1,0,-1
EndSplineSet
Validated: 1
EndChar

StartChar: underscore
Encoding: 95 95 66
Width: 461
GlyphClass: 1
Flags: W
HStem: -77 77<0 385>
LayerCount: 2
Fore
SplineSet
385 0 m 1,0,-1
 385 -77 l 1,1,-1
 0 -77 l 1,2,-1
 0 0 l 1,3,-1
 385 0 l 1,0,-1
EndSplineSet
Validated: 1
EndChar

StartChar: grave
Encoding: 96 96 67
Width: 461
GlyphClass: 1
Flags: W
HStem: 539 231
VStem: 77 231
LayerCount: 2
Fore
SplineSet
131 770 m 1,0,-1
 308 593 l 1,1,-1
 308 539 l 1,2,-1
 254 539 l 1,3,-1
 77 716 l 1,4,-1
 77 770 l 1,5,-1
 131 770 l 1,0,-1
EndSplineSet
Validated: 1
EndChar

StartChar: a
Encoding: 97 97 68
Width: 461
GlyphClass: 1
Flags: W
HStem: 0 77<99.625 308> 231 77<103.534 308> 385 77<77 281.466>
VStem: 0 77<99.373 204.691> 308 77<77 231 308 358.466>
LayerCount: 2
Fore
SplineSet
154 0 m 6,0,1
 125 0 125 0 96 10.5 c 132,-1,2
 67 21 67 21 45 43 c 132,-1,3
 23 65 23 65 11.5 95 c 132,-1,4
 0 125 0 125 0 154 c 260,5,6
 0 183 0 183 13 210.5 c 132,-1,7
 26 238 26 238 48 260 c 132,-1,8
 70 282 70 282 97.5 295 c 132,-1,9
 125 308 125 308 154 308 c 6,10,-1
 308 308 l 5,11,12
 308 323 308 323 301.5 336.5 c 132,-1,13
 295 350 295 350 284 361 c 132,-1,14
 273 372 273 372 259.5 378.5 c 132,-1,15
 246 385 246 385 231 385 c 6,16,-1
 77 385 l 5,17,-1
 77 462 l 5,18,-1
 231 462 l 6,19,20
 260 462 260 462 287.5 449 c 132,-1,21
 315 436 315 436 337 414 c 132,-1,22
 359 392 359 392 372 364.5 c 132,-1,23
 385 337 385 337 385 308 c 6,24,-1
 385 0 l 5,25,-1
 154 0 l 6,0,1
308 231 m 5,26,-1
 154 231 l 6,27,28
 140 231 140 231 126 224.5 c 132,-1,29
 112 218 112 218 101 207 c 132,-1,30
 90 196 90 196 83.5 182.5 c 132,-1,31
 77 169 77 169 77 153.5 c 132,-1,32
 77 138 77 138 82 125 c 4,33,34
 87 113 87 113 98 100 c 4,35,36
 106 90 106 90 124 81 c 4,37,38
 134 76 134 76 154 77 c 6,39,-1
 308 77 l 5,40,-1
 308 231 l 5,26,-1
EndSplineSet
Validated: 1
EndChar

StartChar: b
Encoding: 98 98 69
Width: 461
GlyphClass: 1
Flags: W
HStem: 0 77<77 281.466> 385 77<77 281.466> 673 20G<0 77>
VStem: 0 77<77 385 462 693> 308 77<103.534 358.466>
LayerCount: 2
Fore
SplineSet
0 693 m 1,0,-1
 77 693 l 1,1,-1
 77 462 l 1,2,-1
 231 462 l 2,3,4
 260 462 260 462 287.5 449 c 128,-1,5
 315 436 315 436 337 414 c 128,-1,6
 359 392 359 392 372 364.5 c 128,-1,7
 385 337 385 337 385 308 c 2,8,-1
 385 154 l 2,9,10
 385 125 385 125 372 97.5 c 128,-1,11
 359 70 359 70 337 48 c 128,-1,12
 315 26 315 26 287.5 13 c 128,-1,13
 260 0 260 0 231 0 c 2,14,-1
 0 0 l 1,15,-1
 0 693 l 1,0,-1
231 77 m 2,16,17
 246 77 246 77 259.5 83.5 c 128,-1,18
 273 90 273 90 284 101 c 128,-1,19
 295 112 295 112 301.5 126 c 128,-1,20
 308 140 308 140 308 154 c 2,21,-1
 308 308 l 2,22,23
 308 323 308 323 301.5 336.5 c 128,-1,24
 295 350 295 350 284 361 c 128,-1,25
 273 372 273 372 259.5 378.5 c 128,-1,26
 246 385 246 385 231 385 c 2,27,-1
 77 385 l 1,28,-1
 77 77 l 1,29,-1
 231 77 l 2,16,17
EndSplineSet
Validated: 1
EndChar

StartChar: c
Encoding: 99 99 70
Width: 461
GlyphClass: 1
Flags: W
HStem: 0 77<103.534 281.466> 385 77<103.534 281.466>
VStem: 0 77<103.534 358.466> 308 77<103.534 154 308 358.466>
LayerCount: 2
Fore
SplineSet
0 308 m 2,0,1
 0 337 0 337 13 364.5 c 128,-1,2
 26 392 26 392 48 414 c 128,-1,3
 70 436 70 436 97.5 449 c 128,-1,4
 125 462 125 462 154 462 c 2,5,-1
 231 462 l 2,6,7
 260 462 260 462 287.5 449 c 128,-1,8
 315 436 315 436 337 414 c 128,-1,9
 359 392 359 392 372 364.5 c 128,-1,10
 385 337 385 337 385 308 c 1,11,-1
 308 308 l 1,12,13
 308 323 308 323 301.5 336.5 c 128,-1,14
 295 350 295 350 284 361 c 128,-1,15
 273 372 273 372 259.5 378.5 c 128,-1,16
 246 385 246 385 231 385 c 2,17,-1
 154 385 l 2,18,19
 140 385 140 385 126 378.5 c 128,-1,20
 112 372 112 372 101 361 c 128,-1,21
 90 350 90 350 83.5 336.5 c 128,-1,22
 77 323 77 323 77 308 c 2,23,-1
 77 154 l 2,24,25
 77 140 77 140 83.5 126 c 128,-1,26
 90 112 90 112 101 101 c 128,-1,27
 112 90 112 90 126 83.5 c 128,-1,28
 140 77 140 77 154 77 c 2,29,-1
 231 77 l 2,30,31
 246 77 246 77 259.5 83.5 c 128,-1,32
 273 90 273 90 284 101 c 128,-1,33
 295 112 295 112 301.5 126 c 128,-1,34
 308 140 308 140 308 154 c 1,35,-1
 385 154 l 1,36,37
 385 125 385 125 372 97.5 c 128,-1,38
 359 70 359 70 337 48 c 128,-1,39
 315 26 315 26 287.5 13 c 128,-1,40
 260 0 260 0 231 0 c 2,41,-1
 154 0 l 2,42,43
 125 0 125 0 97.5 13 c 128,-1,44
 70 26 70 26 48 48 c 128,-1,45
 26 70 26 70 13 97.5 c 128,-1,46
 0 125 0 125 0 154 c 2,47,-1
 0 308 l 2,0,1
EndSplineSet
Validated: 1
EndChar

StartChar: d
Encoding: 100 100 71
Width: 461
GlyphClass: 1
Flags: W
HStem: 0 77<103.534 308> 385 77<103.534 308> 673 20G<308 385>
VStem: 0 77<103.534 358.466> 308 77<77 385 462 693>
LayerCount: 2
Fore
SplineSet
0 308 m 2,0,1
 0 337 0 337 13 364.5 c 128,-1,2
 26 392 26 392 48 414 c 128,-1,3
 70 436 70 436 97.5 449 c 128,-1,4
 125 462 125 462 154 462 c 2,5,-1
 308 462 l 1,6,-1
 308 693 l 1,7,-1
 385 693 l 1,8,-1
 385 0 l 1,9,-1
 154 0 l 2,10,11
 125 0 125 0 97.5 13 c 128,-1,12
 70 26 70 26 48 48 c 128,-1,13
 26 70 26 70 13 97.5 c 128,-1,14
 0 125 0 125 0 154 c 2,15,-1
 0 308 l 2,0,1
308 77 m 1,16,-1
 308 385 l 1,17,-1
 154 385 l 2,18,19
 140 385 140 385 126 378.5 c 128,-1,20
 112 372 112 372 101 361 c 128,-1,21
 90 350 90 350 83.5 336.5 c 128,-1,22
 77 323 77 323 77 308 c 2,23,-1
 77 154 l 2,24,25
 77 140 77 140 83.5 126 c 128,-1,26
 90 112 90 112 101 101 c 128,-1,27
 112 90 112 90 126 83.5 c 128,-1,28
 140 77 140 77 154 77 c 2,29,-1
 308 77 l 1,16,-1
EndSplineSet
Validated: 1
EndChar

StartChar: e
Encoding: 101 101 72
Width: 461
GlyphClass: 1
Flags: W
HStem: 0 77<103.534 281.466> 231 77<77 308> 385 77<103.534 281.466>
VStem: 0 77<103.534 231 308 358.466> 308 77<103.534 154 308 358.466>
LayerCount: 2
Fore
SplineSet
154 0 m 2,0,1
 125 0 125 0 97.5 13 c 128,-1,2
 70 26 70 26 48 48 c 128,-1,3
 26 70 26 70 13 97.5 c 128,-1,4
 0 125 0 125 0 154 c 2,5,-1
 0 308 l 2,6,7
 0 337 0 337 13 364.5 c 128,-1,8
 26 392 26 392 48 414 c 128,-1,9
 70 436 70 436 97.5 449 c 128,-1,10
 125 462 125 462 154 462 c 2,11,-1
 231 462 l 2,12,13
 260 462 260 462 287.5 449 c 128,-1,14
 315 436 315 436 337 414 c 128,-1,15
 359 392 359 392 372 364.5 c 128,-1,16
 385 337 385 337 385 308 c 2,17,-1
 385 231 l 1,18,-1
 77 231 l 1,19,-1
 77 154 l 2,20,21
 77 140 77 140 83.5 126 c 128,-1,22
 90 112 90 112 101 101 c 128,-1,23
 112 90 112 90 126 83.5 c 128,-1,24
 140 77 140 77 154 77 c 2,25,-1
 231 77 l 2,26,27
 246 77 246 77 259.5 83.5 c 128,-1,28
 273 90 273 90 284 101 c 128,-1,29
 295 112 295 112 301.5 126 c 128,-1,30
 308 140 308 140 308 154 c 1,31,-1
 385 154 l 1,32,33
 385 125 385 125 372 97.5 c 128,-1,34
 359 70 359 70 337 48 c 128,-1,35
 315 26 315 26 287.5 13 c 128,-1,36
 260 0 260 0 231 0 c 2,37,-1
 154 0 l 2,0,1
308 308 m 1,38,39
 308 323 308 323 301.5 336.5 c 128,-1,40
 295 350 295 350 284 361 c 128,-1,41
 273 372 273 372 259.5 378.5 c 128,-1,42
 246 385 246 385 231 385 c 2,43,-1
 154 385 l 2,44,45
 140 385 140 385 126 378.5 c 128,-1,46
 112 372 112 372 101 361 c 128,-1,47
 90 350 90 350 83.5 336.5 c 128,-1,48
 77 323 77 323 77 308 c 1,49,-1
 308 308 l 1,38,39
EndSplineSet
Validated: 1
EndChar

StartChar: f
Encoding: 102 102 73
Width: 461
GlyphClass: 1
Flags: W
HStem: 0 21G<77 154> 308 77<0 77 154 308> 616 77<180.311 281.691>
VStem: 77 77<0 308 385 589.466> 308 77<539 589.466>
LayerCount: 2
Fore
SplineSet
77 308 m 1,0,-1
 0 308 l 1,1,-1
 0 385 l 1,2,-1
 77 385 l 1,3,-1
 77 539 l 2,4,5
 77 568 77 568 90 595.5 c 128,-1,6
 103 623 103 623 125 645 c 128,-1,7
 147 667 147 667 174.5 680 c 128,-1,8
 202 693 202 693 231 693 c 256,9,10
 260 693 260 693 287.5 680 c 128,-1,11
 315 667 315 667 337 645 c 128,-1,12
 359 623 359 623 372 595.5 c 128,-1,13
 385 568 385 568 385 539 c 1,14,-1
 308 539 l 1,15,16
 308 554 308 554 301.5 567.5 c 128,-1,17
 295 581 295 581 284 592 c 128,-1,18
 273 603 273 603 259.5 609.5 c 128,-1,19
 246 616 246 616 231 616 c 0,20,21
 217 616 217 616 203 609.5 c 128,-1,22
 189 603 189 603 178 592 c 128,-1,23
 167 581 167 581 160.5 567.5 c 128,-1,24
 154 554 154 554 154 539 c 2,25,-1
 154 385 l 1,26,-1
 308 385 l 1,27,-1
 308 308 l 1,28,-1
 154 308 l 1,29,-1
 154 0 l 1,30,-1
 77 0 l 1,31,-1
 77 308 l 1,0,-1
EndSplineSet
Validated: 1
EndChar

StartChar: g
Encoding: 103 103 74
Width: 461
GlyphClass: 1
Flags: W
HStem: -154 77<103.534 281.466> -20 20G<0 77> 77 77<103.534 308> 385 77<103.534 281.466>
VStem: 0 77<-50.4664 0 180.534 358.466> 308 77<-50.4664 77 154 358.466>
LayerCount: 2
Fore
SplineSet
77 0 m 1,0,1
 77 -14 77 -14 83.5 -28 c 128,-1,2
 90 -42 90 -42 101 -53 c 128,-1,3
 112 -64 112 -64 126 -70.5 c 128,-1,4
 140 -77 140 -77 154 -77 c 2,5,-1
 231 -77 l 2,6,7
 246 -77 246 -77 259.5 -70.5 c 128,-1,8
 273 -64 273 -64 284 -53 c 128,-1,9
 295 -42 295 -42 301.5 -28 c 128,-1,10
 308 -14 308 -14 308 0 c 2,11,-1
 308 77 l 1,12,-1
 154 77 l 2,13,14
 125 77 125 77 97.5 90 c 128,-1,15
 70 103 70 103 48 125 c 128,-1,16
 26 147 26 147 13 174.5 c 128,-1,17
 0 202 0 202 0 231 c 2,18,-1
 0 308 l 2,19,20
 0 337 0 337 13 364.5 c 128,-1,21
 26 392 26 392 48 414 c 128,-1,22
 70 436 70 436 97.5 449 c 128,-1,23
 125 462 125 462 154 462 c 2,24,-1
 231 462 l 2,25,26
 260 462 260 462 287.5 449 c 128,-1,27
 315 436 315 436 337 414 c 128,-1,28
 359 392 359 392 372 364.5 c 128,-1,29
 385 337 385 337 385 308 c 2,30,-1
 385 0 l 2,31,32
 385 -29 385 -29 372 -56.5 c 128,-1,33
 359 -84 359 -84 337 -106 c 128,-1,34
 315 -128 315 -128 287.5 -141 c 128,-1,35
 260 -154 260 -154 231 -154 c 2,36,-1
 154 -154 l 2,37,38
 125 -154 125 -154 97.5 -141 c 128,-1,39
 70 -128 70 -128 48 -106 c 128,-1,40
 26 -84 26 -84 13 -56.5 c 128,-1,41
 0 -29 0 -29 0 0 c 1,42,-1
 77 0 l 1,0,1
308 154 m 1,43,-1
 308 308 l 2,44,45
 308 323 308 323 301.5 336.5 c 128,-1,46
 295 350 295 350 284 361 c 128,-1,47
 273 372 273 372 259.5 378.5 c 128,-1,48
 246 385 246 385 231 385 c 2,49,-1
 154 385 l 2,50,51
 140 385 140 385 126 378.5 c 128,-1,52
 112 372 112 372 101 361 c 128,-1,53
 90 350 90 350 83.5 336.5 c 128,-1,54
 77 323 77 323 77 308 c 2,55,-1
 77 231 l 2,56,57
 77 217 77 217 83.5 203 c 128,-1,58
 90 189 90 189 101 178 c 128,-1,59
 112 167 112 167 126 160.5 c 128,-1,60
 140 154 140 154 154 154 c 2,61,-1
 308 154 l 1,43,-1
EndSplineSet
Validated: 1
EndChar

StartChar: h
Encoding: 104 104 75
Width: 461
GlyphClass: 1
Flags: W
HStem: 0 21G<0 77 308 385> 385 77<103.766 281.466> 673 20G<0 77>
VStem: 0 77<0 358.916 441 693> 308 77<0 358.466>
LayerCount: 2
Fore
SplineSet
0 693 m 1,0,-1
 77 693 l 1,1,-1
 77 441 l 1,2,3
 111 462 111 462 154 462 c 2,4,-1
 231 462 l 2,5,6
 260 462 260 462 287.5 449 c 128,-1,7
 315 436 315 436 337 414 c 128,-1,8
 359 392 359 392 372 364.5 c 128,-1,9
 385 337 385 337 385 308 c 2,10,-1
 385 0 l 1,11,-1
 308 0 l 1,12,-1
 308 308 l 2,13,14
 308 323 308 323 301.5 336.5 c 128,-1,15
 295 350 295 350 284 361 c 128,-1,16
 273 372 273 372 259.5 378.5 c 128,-1,17
 246 385 246 385 231 385 c 2,18,-1
 154 385 l 2,19,20
 140 385 140 385 126 378.5 c 128,-1,21
 112 372 112 372 101 361 c 128,-1,22
 90 350 90 350 83.5 336.5 c 128,-1,23
 77 323 77 323 77 308 c 2,24,-1
 77 0 l 1,25,-1
 0 0 l 1,26,-1
 0 693 l 1,0,-1
EndSplineSet
Validated: 1
EndChar

StartChar: i
Encoding: 105 105 76
Width: 461
GlyphClass: 1
Flags: W
HStem: 0 77<77 154 231 308> 385 77<77 154> 526 120<128.564 215.436>
VStem: 77 154<385 462> 110 124<544.564 627.436> 154 77<77 385>
LayerCount: 2
Fore
SplineSet
110 586 m 128,-1,1
 110 610 110 610 128 628 c 128,-1,2
 146 646 146 646 172 646 c 128,-1,3
 198 646 198 646 216 628 c 128,-1,4
 234 610 234 610 234 586 c 128,-1,5
 234 562 234 562 216 544 c 128,-1,6
 198 526 198 526 172 526 c 128,-1,7
 146 526 146 526 128 544 c 128,-1,0
 110 562 110 562 110 586 c 128,-1,1
77 77 m 1,8,-1
 154 77 l 1,9,-1
 154 385 l 1,10,-1
 77 385 l 1,11,-1
 77 462 l 1,12,-1
 231 462 l 1,13,-1
 231 77 l 1,14,-1
 308 77 l 1,15,-1
 308 0 l 1,16,-1
 77 0 l 1,17,-1
 77 77 l 1,8,-1
EndSplineSet
Validated: 1
EndChar

StartChar: j
Encoding: 106 106 77
Width: 461
GlyphClass: 1
Flags: W
HStem: -154.067 77.0667<103.125 205.426> 385 77<149 231> 526 120<202.564 289.436>
VStem: 0 77<-50.0854 77> 184 124<544.564 627.436> 231 77<-51.6562 385>
LayerCount: 2
Fore
SplineSet
184 586 m 128,-1,1
 184 610 184 610 202 628 c 128,-1,2
 220 646 220 646 246 646 c 128,-1,3
 272 646 272 646 290 628 c 128,-1,4
 308 610 308 610 308 586 c 128,-1,5
 308 562 308 562 290 544 c 128,-1,6
 272 526 272 526 246 526 c 128,-1,7
 220 526 220 526 202 544 c 128,-1,0
 184 562 184 562 184 586 c 128,-1,1
0 77 m 1,8,-1
 77 77 l 1,9,-1
 77 0 l 2,10,11
 77 -14 77 -14 84 -28 c 0,12,13
 90 -42 90 -42 101 -53 c 128,-1,14
 112 -64 112 -64 126 -70 c 0,15,16
 141 -77 141 -77 155 -77 c 128,-1,17
 169 -77 169 -77 184 -70 c 0,18,19
 197 -64 197 -64 207 -54 c 0,20,21
 219 -42 219 -42 225 -28 c 0,22,23
 232 -13 232 -13 231 0 c 2,24,-1
 231 385 l 1,25,-1
 149 385 l 1,26,-1
 149 462 l 1,27,-1
 308 462 l 1,28,-1
 308 0 l 2,29,30
 308 -29 308 -29 295 -58 c 0,31,32
 282 -84 282 -84 260 -105 c 0,33,34
 238 -127 238 -127 212 -141 c 0,35,36
 185.866666667 -154.066666667 185.866666667 -154.066666667 157.12 -154.066666667 c 0,37,38
 155.066666667 -154.066666667 155.066666667 -154.066666667 153 -154 c 256,39,40
 125 -154 125 -154 97 -141 c 0,41,42
 71 -128 71 -128 48 -106 c 0,43,44
 26 -84 26 -84 14 -58 c 0,45,46
 0 -30 0 -30 0 0 c 2,47,-1
 0 77 l 1,8,-1
EndSplineSet
Validated: 1
EndChar

StartChar: k
Encoding: 107 107 78
Width: 461
GlyphClass: 1
Flags: W
HStem: 0 21G<0 77 288 404> 674 20G<0.971182 78>
VStem: 0 78<0 231 309 694>
LayerCount: 2
Fore
SplineSet
1 694 m 1,0,-1
 78 694 l 1,1,-1
 78 309 l 1,2,-1
 247 478 l 1,3,-1
 343 478 l 5,4,-1
 135 270 l 5,5,-1
 404 0 l 5,6,-1
 308 0 l 1,7,-1
 77 231 l 1,8,-1
 77 0 l 1,9,-1
 0 0 l 1,10,-1
 1 694 l 1,0,-1
EndSplineSet
Validated: 1
EndChar

StartChar: l
Encoding: 108 108 79
Width: 461
GlyphClass: 1
Flags: W
HStem: 0 77<77 154 231 308> 616 77<77 154>
VStem: 77 154<616 693> 154 77<77 616>
LayerCount: 2
Fore
SplineSet
77 77 m 1,0,-1
 154 77 l 1,1,-1
 154 616 l 1,2,-1
 77 616 l 1,3,-1
 77 693 l 1,4,-1
 231 693 l 1,5,-1
 231 77 l 1,6,-1
 308 77 l 1,7,-1
 308 0 l 1,8,-1
 77 0 l 1,9,-1
 77 77 l 1,0,-1
EndSplineSet
Validated: 1
EndChar

StartChar: m
Encoding: 109 109 80
Width: 461
GlyphClass: 1
Flags: W
HStem: 0 21G<0 77> 388 79<83.1992 148.938 237.1 305.414>
VStem: 0 77<0 381.358> 155 77<2 381.075> 310 77<4 383.075>
CounterMasks: 1 38
LayerCount: 2
Fore
SplineSet
3 467 m 1,0,-1
 118 467 l 2,1,2
 139 467 139 467 159 459.5 c 128,-1,3
 179 452 179 452 195 438 c 1,4,5
 211 452 211 452 231 459.5 c 128,-1,6
 251 467 251 467 272 467 c 256,7,8
 293 467 293 467 314 457 c 128,-1,9
 335 447 335 447 351 430.5 c 128,-1,10
 367 414 367 414 377 393.5 c 128,-1,11
 387 373 387 373 387 351 c 2,12,-1
 387 4 l 1,13,-1
 310 4 l 1,14,-1
 310 350 l 2,15,16
 310 364 310 364 297.5 376 c 128,-1,17
 285 388 285 388 271 388 c 0,18,19
 256 388 256 388 244 375.5 c 128,-1,20
 232 363 232 363 232 349 c 2,21,-1
 232 2 l 1,22,-1
 155 2 l 1,23,-1
 155 348 l 2,24,25
 155 362 155 362 142.5 374 c 128,-1,26
 130 386 130 386 116 386 c 0,27,28
 101 386 101 386 89 373.5 c 128,-1,29
 77 361 77 361 77 347 c 2,30,-1
 77 0 l 1,31,-1
 0 0 l 1,32,-1
 3 467 l 1,0,-1
EndSplineSet
Validated: 1
EndChar

StartChar: n
Encoding: 110 110 81
Width: 461
GlyphClass: 1
Flags: W
HStem: 0 21G<0 77 308 385> 385 77<103.766 281.466>
VStem: 0 77<0 358.916 441 462> 308 77<0 358.466>
LayerCount: 2
Fore
SplineSet
0 462 m 1,0,-1
 77 462 l 1,1,-1
 77 441 l 1,2,3
 111 462 111 462 154 462 c 2,4,-1
 231 462 l 2,5,6
 260 462 260 462 287.5 449 c 128,-1,7
 315 436 315 436 337 414 c 128,-1,8
 359 392 359 392 372 364.5 c 128,-1,9
 385 337 385 337 385 308 c 2,10,-1
 385 0 l 1,11,-1
 308 0 l 1,12,-1
 308 308 l 2,13,14
 308 323 308 323 301.5 336.5 c 128,-1,15
 295 350 295 350 284 361 c 128,-1,16
 273 372 273 372 259.5 378.5 c 128,-1,17
 246 385 246 385 231 385 c 2,18,-1
 154 385 l 2,19,20
 140 385 140 385 126 378.5 c 128,-1,21
 112 372 112 372 101 361 c 128,-1,22
 90 350 90 350 83.5 336.5 c 128,-1,23
 77 323 77 323 77 308 c 2,24,-1
 77 0 l 1,25,-1
 0 0 l 1,26,-1
 0 462 l 1,0,-1
EndSplineSet
Validated: 1
EndChar

StartChar: o
Encoding: 111 111 82
Width: 461
GlyphClass: 1
Flags: W
HStem: 0 77<103.534 281.466> 385 77<103.534 281.466>
VStem: 0 77<103.534 358.466> 308 77<103.534 358.466>
LayerCount: 2
Fore
SplineSet
0 308 m 2,0,1
 0 337 0 337 13 364.5 c 128,-1,2
 26 392 26 392 48 414 c 128,-1,3
 70 436 70 436 97.5 449 c 128,-1,4
 125 462 125 462 154 462 c 2,5,-1
 231 462 l 2,6,7
 260 462 260 462 287.5 449 c 128,-1,8
 315 436 315 436 337 414 c 128,-1,9
 359 392 359 392 372 364.5 c 128,-1,10
 385 337 385 337 385 308 c 2,11,-1
 385 154 l 2,12,13
 385 125 385 125 372 97.5 c 128,-1,14
 359 70 359 70 337 48 c 128,-1,15
 315 26 315 26 287.5 13 c 128,-1,16
 260 0 260 0 231 0 c 2,17,-1
 154 0 l 2,18,19
 125 0 125 0 97.5 13 c 128,-1,20
 70 26 70 26 48 48 c 128,-1,21
 26 70 26 70 13 97.5 c 128,-1,22
 0 125 0 125 0 154 c 2,23,-1
 0 308 l 2,0,1
231 77 m 2,24,25
 246 77 246 77 259.5 83.5 c 128,-1,26
 273 90 273 90 284 101 c 128,-1,27
 295 112 295 112 301.5 126 c 128,-1,28
 308 140 308 140 308 154 c 2,29,-1
 308 308 l 2,30,31
 308 323 308 323 301.5 336.5 c 128,-1,32
 295 350 295 350 284 361 c 128,-1,33
 273 372 273 372 259.5 378.5 c 128,-1,34
 246 385 246 385 231 385 c 2,35,-1
 154 385 l 2,36,37
 140 385 140 385 126 378.5 c 128,-1,38
 112 372 112 372 101 361 c 128,-1,39
 90 350 90 350 83.5 336.5 c 128,-1,40
 77 323 77 323 77 308 c 2,41,-1
 77 154 l 2,42,43
 77 140 77 140 83.5 126 c 128,-1,44
 90 112 90 112 101 101 c 128,-1,45
 112 90 112 90 126 83.5 c 128,-1,46
 140 77 140 77 154 77 c 2,47,-1
 231 77 l 2,24,25
EndSplineSet
Validated: 1
EndChar

StartChar: p
Encoding: 112 112 83
Width: 461
GlyphClass: 1
Flags: W
HStem: -154 21G<0 77> 77 77<77 281.466> 385 77<77 281.466>
VStem: 0 77<-154 77 154 385> 308 77<180.534 358.466>
LayerCount: 2
Fore
SplineSet
0 462 m 1,0,-1
 231 462 l 2,1,2
 260 462 260 462 287.5 449 c 128,-1,3
 315 436 315 436 337 414 c 128,-1,4
 359 392 359 392 372 364.5 c 128,-1,5
 385 337 385 337 385 308 c 2,6,-1
 385 231 l 2,7,8
 385 202 385 202 372 174.5 c 128,-1,9
 359 147 359 147 337 125 c 128,-1,10
 315 103 315 103 287.5 90 c 128,-1,11
 260 77 260 77 231 77 c 2,12,-1
 77 77 l 1,13,-1
 77 -154 l 1,14,-1
 0 -154 l 1,15,-1
 0 462 l 1,0,-1
231 154 m 2,16,17
 246 154 246 154 259.5 160.5 c 128,-1,18
 273 167 273 167 284 178 c 128,-1,19
 295 189 295 189 301.5 203 c 128,-1,20
 308 217 308 217 308 231 c 2,21,-1
 308 308 l 2,22,23
 308 323 308 323 301.5 336.5 c 128,-1,24
 295 350 295 350 284 361 c 128,-1,25
 273 372 273 372 259.5 378.5 c 128,-1,26
 246 385 246 385 231 385 c 2,27,-1
 77 385 l 1,28,-1
 77 154 l 1,29,-1
 231 154 l 2,16,17
EndSplineSet
Validated: 1
EndChar

StartChar: q
Encoding: 113 113 84
Width: 461
GlyphClass: 1
Flags: W
HStem: -154 21G<308 385> 77 77<103.534 308> 385 77<103.534 308>
VStem: 0 77<180.534 358.466> 308 77<-154 77 154 385>
LayerCount: 2
Fore
SplineSet
0 308 m 2,0,1
 0 337 0 337 13 364.5 c 128,-1,2
 26 392 26 392 48 414 c 128,-1,3
 70 436 70 436 97.5 449 c 128,-1,4
 125 462 125 462 154 462 c 2,5,-1
 385 462 l 1,6,-1
 385 -154 l 1,7,-1
 308 -154 l 1,8,-1
 308 77 l 1,9,-1
 154 77 l 2,10,11
 125 77 125 77 97.5 90 c 128,-1,12
 70 103 70 103 48 125 c 128,-1,13
 26 147 26 147 13 174.5 c 128,-1,14
 0 202 0 202 0 231 c 2,15,-1
 0 308 l 2,0,1
308 154 m 1,16,-1
 308 385 l 1,17,-1
 154 385 l 2,18,19
 140 385 140 385 126 378.5 c 128,-1,20
 112 372 112 372 101 361 c 128,-1,21
 90 350 90 350 83.5 336.5 c 128,-1,22
 77 323 77 323 77 308 c 2,23,-1
 77 231 l 2,24,25
 77 217 77 217 83.5 203 c 128,-1,26
 90 189 90 189 101 178 c 128,-1,27
 112 167 112 167 126 160.5 c 128,-1,28
 140 154 140 154 154 154 c 2,29,-1
 308 154 l 1,16,-1
EndSplineSet
Validated: 1
EndChar

StartChar: r
Encoding: 114 114 85
Width: 461
GlyphClass: 1
Flags: W
HStem: 0 21G<0 77> 385 77<103.766 281.466>
VStem: 0 77<0 358.916 441 462> 308 77<308 358.466>
LayerCount: 2
Fore
SplineSet
0 462 m 1,0,-1
 77 462 l 1,1,-1
 77 441 l 1,2,3
 111 462 111 462 154 462 c 2,4,-1
 231 462 l 2,5,6
 260 462 260 462 287.5 449 c 128,-1,7
 315 436 315 436 337 414 c 128,-1,8
 359 392 359 392 372 364.5 c 128,-1,9
 385 337 385 337 385 308 c 1,10,-1
 308 308 l 1,11,12
 308 323 308 323 301.5 336.5 c 128,-1,13
 295 350 295 350 284 361 c 128,-1,14
 273 372 273 372 259.5 378.5 c 128,-1,15
 246 385 246 385 231 385 c 2,16,-1
 154 385 l 2,17,18
 140 385 140 385 126 378.5 c 128,-1,19
 112 372 112 372 101 361 c 128,-1,20
 90 350 90 350 83.5 336.5 c 128,-1,21
 77 323 77 323 77 308 c 2,22,-1
 77 0 l 1,23,-1
 0 0 l 1,24,-1
 0 462 l 1,0,-1
EndSplineSet
Validated: 1
EndChar

StartChar: s
Encoding: 115 115 86
Width: 461
GlyphClass: 1
Flags: W
HStem: 0 79<103.534 281.466> 386 77<103.534 281.466>
VStem: 0 77<105.264 154 309 359.466> 308 77<105.264 156 309 359.466>
LayerCount: 2
Fore
SplineSet
77 156 m 1,0,1
 77 142 77 142 83.5 128 c 128,-1,2
 90 114 90 114 101 103 c 128,-1,3
 112 92 112 92 126 85.5 c 128,-1,4
 140 79 140 79 154 79 c 2,5,-1
 231 79 l 2,6,7
 246 79 246 79 259.5 85.5 c 128,-1,8
 273 92 273 92 284 103 c 128,-1,9
 295 114 295 114 301.5 128 c 128,-1,10
 308 142 308 142 308 156 c 1,11,-1
 0 271 l 1,12,-1
 0 309 l 2,13,14
 0 338 0 338 13 365.5 c 128,-1,15
 26 393 26 393 48 415 c 128,-1,16
 70 437 70 437 97.5 450 c 128,-1,17
 125 463 125 463 154 463 c 2,18,-1
 231 463 l 2,19,20
 260 463 260 463 287.5 450 c 128,-1,21
 315 437 315 437 337 415 c 128,-1,22
 359 393 359 393 372 365.5 c 128,-1,23
 385 338 385 338 385 309 c 1,24,-1
 308 309 l 1,25,26
 308 324 308 324 301.5 337.5 c 128,-1,27
 295 351 295 351 284 362 c 128,-1,28
 273 373 273 373 259.5 379.5 c 128,-1,29
 246 386 246 386 231 386 c 2,30,-1
 154 386 l 2,31,32
 140 386 140 386 126 379.5 c 128,-1,33
 112 373 112 373 101 362 c 128,-1,34
 90 351 90 351 83.5 337.5 c 128,-1,35
 77 324 77 324 77 309 c 1,36,-1
 385 193 l 5,37,-1
 385 154 l 6,38,39
 385 125 385 125 372 97.5 c 128,-1,40
 359 70 359 70 337 48 c 128,-1,41
 315 26 315 26 287.5 13 c 128,-1,42
 260 0 260 0 231 0 c 2,43,-1
 154 0 l 2,44,45
 125 0 125 0 97.5 13 c 128,-1,46
 70 26 70 26 48 48 c 128,-1,47
 26 70 26 70 13 97.5 c 128,-1,48
 0 125 0 125 0 154 c 1,49,-1
 77 156 l 1,0,1
EndSplineSet
Validated: 1
EndChar

StartChar: t
Encoding: 116 116 87
Width: 461
GlyphClass: 1
Flags: W
HStem: 0 77<180.311 281.691> 385 77<0 77 154 308>
VStem: 77 77<103.534 385 462 616> 308 77<103.534 154>
LayerCount: 2
Fore
SplineSet
77 385 m 1,0,-1
 0 385 l 1,1,-1
 0 462 l 1,2,-1
 77 462 l 1,3,-1
 77 616 l 1,4,-1
 154 616 l 1,5,-1
 154 462 l 1,6,-1
 308 462 l 1,7,-1
 308 385 l 1,8,-1
 154 385 l 1,9,-1
 154 154 l 2,10,11
 154 140 154 140 160.5 126 c 128,-1,12
 167 112 167 112 178 101 c 128,-1,13
 189 90 189 90 203 83.5 c 128,-1,14
 217 77 217 77 231 77 c 0,15,16
 246 77 246 77 259.5 83.5 c 128,-1,17
 273 90 273 90 284 101 c 128,-1,18
 295 112 295 112 301.5 126 c 128,-1,19
 308 140 308 140 308 154 c 1,20,-1
 385 154 l 1,21,22
 385 125 385 125 372 97.5 c 128,-1,23
 359 70 359 70 337 48 c 128,-1,24
 315 26 315 26 287.5 13 c 128,-1,25
 260 0 260 0 231 0 c 256,26,27
 202 0 202 0 174.5 13 c 128,-1,28
 147 26 147 26 125 48 c 128,-1,29
 103 70 103 70 90 97.5 c 128,-1,30
 77 125 77 125 77 154 c 2,31,-1
 77 385 l 1,0,-1
EndSplineSet
Validated: 1
EndChar

StartChar: u
Encoding: 117 117 88
Width: 461
GlyphClass: 1
Flags: W
HStem: 0 77<103.534 281.916> 442 20G<0 77 308 385>
VStem: 0 77<103.534 462> 308 77<0 21 103.089 462>
LayerCount: 2
Fore
SplineSet
0 462 m 1,0,-1
 77 462 l 1,1,-1
 77 154 l 2,2,3
 77 140 77 140 83.5 126 c 128,-1,4
 90 112 90 112 101 101 c 128,-1,5
 112 90 112 90 126 83.5 c 128,-1,6
 140 77 140 77 154 77 c 2,7,-1
 231 77 l 2,8,9
 246 77 246 77 259.5 83.5 c 128,-1,10
 273 90 273 90 284 101 c 128,-1,11
 295 112 295 112 301.5 126 c 128,-1,12
 308 140 308 140 308 154 c 2,13,-1
 308 462 l 1,14,-1
 385 462 l 1,15,-1
 385 0 l 1,16,-1
 308 0 l 1,17,-1
 308 21 l 1,18,19
 273 0 273 0 231 0 c 2,20,-1
 154 0 l 2,21,22
 125 0 125 0 97.5 13 c 128,-1,23
 70 26 70 26 48 48 c 128,-1,24
 26 70 26 70 13 97.5 c 128,-1,25
 0 125 0 125 0 154 c 2,26,-1
 0 462 l 1,0,-1
EndSplineSet
Validated: 1
EndChar

StartChar: v
Encoding: 118 118 89
Width: 461
GlyphClass: 1
Flags: W
HStem: 0 21G<140.667 244.333> 442 20G<0.91342 78 308 385>
VStem: 0 78<254 462> 308 77<254 462>
LayerCount: 2
Fore
SplineSet
1 462 m 1,0,-1
 78 462 l 1,1,-1
 78 254 l 1,2,-1
 193 81 l 1,3,-1
 308 254 l 1,4,-1
 308 462 l 1,5,-1
 385 462 l 1,6,-1
 385 231 l 1,7,-1
 231 0 l 1,8,-1
 154 0 l 1,9,-1
 0 231 l 1,10,-1
 1 462 l 1,0,-1
EndSplineSet
Validated: 1
EndChar

StartChar: w
Encoding: 119 119 90
Width: 461
GlyphClass: 1
Flags: W
HStem: 0 21G<67 164.13 221.87 319> 442 20G<2.80519 80 309 386>
VStem: 0 80<172 462> 156 77<172 308> 309 77<172 462>
LayerCount: 2
Fore
SplineSet
3 462 m 1,0,-1
 80 462 l 1,1,-1
 80 172 l 1,2,-1
 118 95 l 1,3,-1
 156 172 l 1,4,-1
 156 308 l 1,5,-1
 233 308 l 1,6,-1
 233 172 l 1,7,-1
 271 95 l 1,8,-1
 309 172 l 1,9,-1
 309 462 l 1,10,-1
 386 462 l 1,11,-1
 386 154 l 1,12,-1
 309 0 l 1,13,-1
 232 0 l 1,14,-1
 193 77 l 1,15,-1
 154 0 l 1,16,-1
 77 0 l 1,17,-1
 0 154 l 1,18,-1
 3 462 l 1,0,-1
EndSplineSet
Validated: 1
EndChar

StartChar: x
Encoding: 120 120 91
Width: 461
GlyphClass: 1
Flags: W
HStem: 0 21G<0 90.4104 295.59 386> 442 20G<2 92.2948 295.705 386>
LayerCount: 2
Fore
SplineSet
156 231 m 1,0,-1
 2 462 l 1,1,-1
 79 462 l 1,2,-1
 194 289 l 1,3,-1
 309 462 l 1,4,-1
 386 462 l 1,5,-1
 232 231 l 1,6,-1
 386 0 l 1,7,-1
 309 0 l 1,8,-1
 193 173 l 1,9,-1
 77 0 l 1,10,-1
 0 0 l 1,11,-1
 156 231 l 1,0,-1
EndSplineSet
Validated: 1
EndChar

StartChar: y
Encoding: 121 121 92
Width: 461
GlyphClass: 1
Flags: W
HStem: -154 77<103.534 281.466> -20 20G<0 77> 77 77<103.534 281.916> 442 20G<0 77 308 385>
VStem: 0 77<-50.4664 0 180.534 462> 308 77<-50.4664 98 180.089 462>
LayerCount: 2
Fore
SplineSet
77 0 m 1,0,1
 77 -14 77 -14 83.5 -28 c 128,-1,2
 90 -42 90 -42 101 -53 c 128,-1,3
 112 -64 112 -64 126 -70.5 c 128,-1,4
 140 -77 140 -77 154 -77 c 2,5,-1
 231 -77 l 2,6,7
 246 -77 246 -77 259.5 -70.5 c 128,-1,8
 273 -64 273 -64 284 -53 c 128,-1,9
 295 -42 295 -42 301.5 -28 c 128,-1,10
 308 -14 308 -14 308 0 c 2,11,-1
 308 98 l 1,12,13
 273 77 273 77 231 77 c 2,14,-1
 154 77 l 2,15,16
 125 77 125 77 97.5 90 c 128,-1,17
 70 103 70 103 48 125 c 128,-1,18
 26 147 26 147 13 174.5 c 128,-1,19
 0 202 0 202 0 231 c 2,20,-1
 0 462 l 1,21,-1
 77 462 l 1,22,-1
 77 231 l 2,23,24
 77 217 77 217 83.5 203 c 128,-1,25
 90 189 90 189 101 178 c 128,-1,26
 112 167 112 167 126 160.5 c 128,-1,27
 140 154 140 154 154 154 c 2,28,-1
 231 154 l 2,29,30
 246 154 246 154 259.5 160.5 c 128,-1,31
 273 167 273 167 284 178 c 128,-1,32
 295 189 295 189 301.5 203 c 128,-1,33
 308 217 308 217 308 231 c 2,34,-1
 308 462 l 1,35,-1
 385 462 l 1,36,-1
 385 0 l 2,37,38
 385 -29 385 -29 372 -56.5 c 128,-1,39
 359 -84 359 -84 337 -106 c 128,-1,40
 315 -128 315 -128 287.5 -141 c 128,-1,41
 260 -154 260 -154 231 -154 c 2,42,-1
 154 -154 l 2,43,44
 125 -154 125 -154 97.5 -141 c 128,-1,45
 70 -128 70 -128 48 -106 c 128,-1,46
 26 -84 26 -84 13 -56.5 c 128,-1,47
 0 -29 0 -29 0 0 c 1,48,-1
 77 0 l 1,0,1
EndSplineSet
Validated: 1
EndChar

StartChar: z
Encoding: 122 122 93
Width: 461
GlyphClass: 1
Flags: W
HStem: 0 77<116 385> 385 77<1 271>
LayerCount: 2
Fore
SplineSet
2 77 m 1,0,-1
 271 385 l 1,1,-1
 1 385 l 1,2,-1
 1 462 l 1,3,-1
 386 462 l 1,4,-1
 386 385 l 1,5,-1
 116 77 l 1,6,-1
 385 77 l 1,7,-1
 385 0 l 1,8,-1
 0 0 l 1,9,-1
 2 77 l 1,0,-1
EndSplineSet
Validated: 1
EndChar

StartChar: braceleft
Encoding: 123 123 94
Width: 461
GlyphClass: 1
Flags: W
HStem: -77 77<257.534 385> 308 78<0 127.916> 694 77<257.534 385>
VStem: 154 77<26.5336 281.037 412.963 667.466>
CounterMasks: 1 e0
LayerCount: 2
Fore
SplineSet
0 386 m 1,0,-1
 77 386 l 2,1,2
 92 386 92 386 105.5 392.5 c 128,-1,3
 119 399 119 399 130 410 c 128,-1,4
 141 421 141 421 147.5 435 c 128,-1,5
 154 449 154 449 154 463 c 2,6,-1
 154 617 l 2,7,8
 154 646 154 646 167 673.5 c 128,-1,9
 180 701 180 701 202 723 c 128,-1,10
 224 745 224 745 251.5 758 c 128,-1,11
 279 771 279 771 308 771 c 2,12,-1
 385 771 l 1,13,-1
 385 694 l 1,14,-1
 308 694 l 2,15,16
 294 694 294 694 280 687.5 c 128,-1,17
 266 681 266 681 255 670 c 128,-1,18
 244 659 244 659 237.5 645.5 c 128,-1,19
 231 632 231 632 231 617 c 2,20,-1
 231 463 l 2,21,22
 231 430 231 430 217.5 399.5 c 128,-1,23
 204 369 204 369 179 347 c 1,24,25
 204 325 204 325 217.5 294.5 c 128,-1,26
 231 264 231 264 231 231 c 2,27,-1
 231 77 l 2,28,29
 231 63 231 63 237.5 49 c 128,-1,30
 244 35 244 35 255 24 c 128,-1,31
 266 13 266 13 280 6.5 c 128,-1,32
 294 0 294 0 308 0 c 2,33,-1
 385 0 l 1,34,-1
 385 -77 l 1,35,-1
 308 -77 l 2,36,37
 279 -77 279 -77 251.5 -64 c 128,-1,38
 224 -51 224 -51 202 -29 c 128,-1,39
 180 -7 180 -7 167 20.5 c 128,-1,40
 154 48 154 48 154 77 c 2,41,-1
 154 231 l 2,42,43
 154 246 154 246 147.5 259.5 c 128,-1,44
 141 273 141 273 130 284 c 128,-1,45
 119 295 119 295 105.5 301.5 c 128,-1,46
 92 308 92 308 77 308 c 2,47,-1
 0 308 l 1,48,-1
 0 386 l 1,0,-1
EndSplineSet
Validated: 1
EndChar

StartChar: bar
Encoding: 124 124 95
Width: 461
GlyphClass: 1
Flags: W
HStem: 0 21G<154 231> 673 20G<154 231>
VStem: 154 77<0 693>
LayerCount: 2
Fore
SplineSet
154 693 m 1,0,-1
 231 693 l 1,1,-1
 231 0 l 1,2,-1
 154 0 l 1,3,-1
 154 693 l 1,0,-1
EndSplineSet
Validated: 1
EndChar

StartChar: braceright
Encoding: 125 125 96
Width: 461
GlyphClass: 1
Flags: W
HStem: -77 77<0 126.602> 308 77<257.089 385> 693 77<0 127.466>
VStem: 154 77<27.3984 281.084 411.963 666.466>
CounterMasks: 1 e0
LayerCount: 2
Fore
SplineSet
77 1 m 2,0,1
 92 1 92 1 105.5 7.5 c 128,-1,2
 119 14 119 14 130 25 c 128,-1,3
 141 36 141 36 147.5 50 c 128,-1,4
 154 64 154 64 154 78 c 2,5,-1
 154 232 l 2,6,7
 154 264 154 264 167.5 294.5 c 128,-1,8
 181 325 181 325 206 347 c 1,9,10
 181 368 181 368 167.5 398.5 c 128,-1,11
 154 429 154 429 154 462 c 2,12,-1
 154 616 l 2,13,14
 154 631 154 631 147.5 644.5 c 128,-1,15
 141 658 141 658 130 669 c 128,-1,16
 119 680 119 680 105.5 686.5 c 128,-1,17
 92 693 92 693 77 693 c 2,18,-1
 0 693 l 1,19,-1
 0 770 l 1,20,-1
 77 770 l 2,21,22
 106 770 106 770 133.5 757 c 128,-1,23
 161 744 161 744 183 722 c 128,-1,24
 205 700 205 700 218 672.5 c 128,-1,25
 231 645 231 645 231 616 c 2,26,-1
 231 462 l 2,27,28
 231 448 231 448 237.5 434 c 128,-1,29
 244 420 244 420 255 409 c 128,-1,30
 266 398 266 398 280 391.5 c 128,-1,31
 294 385 294 385 308 385 c 2,32,-1
 385 385 l 1,33,-1
 385 308 l 1,34,-1
 308 308 l 2,35,36
 294 308 294 308 280 301.5 c 128,-1,37
 266 295 266 295 255 284 c 128,-1,38
 244 273 244 273 237.5 259.5 c 128,-1,39
 231 246 231 246 231 231 c 2,40,-1
 231 77 l 2,41,42
 231 48 231 48 218 20.5 c 128,-1,43
 205 -7 205 -7 183 -29 c 128,-1,44
 161 -51 161 -51 133.5 -64 c 128,-1,45
 106 -77 106 -77 77 -77 c 2,46,-1
 0 -77 l 1,47,-1
 0 0 l 1,48,-1
 77 1 l 2,0,1
EndSplineSet
Validated: 1
EndChar

StartChar: asciitilde
Encoding: 126 126 97
Width: 461
GlyphClass: 1
Flags: W
HStem: 464 78<238.65 305.327> 617 80<82.11 150.429>
VStem: 0 77<501 612.188> 155 79<546.844 611.85> 310 77<546.541 657>
LayerCount: 2
Fore
SplineSet
4 582 m 2,0,1
 4 603 4 603 14 624 c 128,-1,2
 24 645 24 645 40 661 c 128,-1,3
 56 677 56 677 76.5 687 c 128,-1,4
 97 697 97 697 119 697 c 0,5,6
 140 697 140 697 161 687 c 128,-1,7
 182 677 182 677 198 660.5 c 128,-1,8
 214 644 214 644 224 623.5 c 128,-1,9
 234 603 234 603 234 581 c 0,10,11
 234 566 234 566 246 554 c 128,-1,12
 258 542 258 542 272 542 c 256,13,14
 286 542 286 542 298 554 c 128,-1,15
 310 566 310 566 310 580 c 2,16,-1
 310 657 l 1,17,-1
 387 657 l 1,18,-1
 387 580 l 2,19,20
 387 558 387 558 377 537.5 c 128,-1,21
 367 517 367 517 350.5 500.5 c 128,-1,22
 334 484 334 484 313.5 474 c 128,-1,23
 293 464 293 464 271 464 c 256,24,25
 249 464 249 464 228.5 474 c 128,-1,26
 208 484 208 484 191.5 500 c 128,-1,27
 175 516 175 516 165 536.5 c 128,-1,28
 155 557 155 557 155 579 c 0,29,30
 155 593 155 593 142.5 605 c 128,-1,31
 130 617 130 617 116 617 c 0,32,33
 101 617 101 617 89 604.5 c 128,-1,34
 77 592 77 592 77 578 c 2,35,-1
 77 501 l 1,36,-1
 0 501 l 1,37,-1
 4 582 l 2,0,1
EndSplineSet
Validated: 1
EndChar

StartChar: exclamdown
Encoding: 161 161 98
Width: 461
GlyphClass: 1
Flags: W
HStem: 0 21G<154 231> 619 76<160.456 195>
VStem: 154 77<0 539 624.672 689.328>
LayerCount: 2
Fore
SplineSet
154 539 m 1,0,-1
 231 539 l 1,1,-1
 231 0 l 1,2,-1
 154 0 l 1,3,-1
 154 539 l 1,0,-1
195 619 m 1,4,5
 180 619 180 619 168 631 c 128,-1,6
 156 643 156 643 156 657 c 256,7,8
 156 671 156 671 168 683 c 128,-1,9
 180 695 180 695 194 695 c 256,10,11
 208 695 208 695 220 682.5 c 128,-1,12
 232 670 232 670 232 656 c 0,13,14
 232 641 232 641 219.5 629 c 128,-1,15
 207 617 207 617 193 617 c 1,16,-1
 195 619 l 1,4,5
EndSplineSet
Validated: 1
EndChar

StartChar: cent
Encoding: 162 162 99
Width: 461
GlyphClass: 1
Flags: W
HStem: 154 77<103.534 154 231 281.466> 462 21G<308 385> 539 77<103.534 154 231 281.466> 673 20G<154 231>
VStem: 0 77<257.534 512.466> 154 77<77 154 231 539 616 693> 308 77<257.534 308 462 512.466>
CounterMasks: 1 0e
LayerCount: 2
Fore
SplineSet
154 154 m 1,0,1
 125 154 125 154 97.5 167 c 128,-1,2
 70 180 70 180 48 202 c 128,-1,3
 26 224 26 224 13 251.5 c 128,-1,4
 0 279 0 279 0 308 c 2,5,-1
 0 462 l 2,6,7
 0 491 0 491 13 518.5 c 128,-1,8
 26 546 26 546 48 568 c 128,-1,9
 70 590 70 590 97.5 603 c 128,-1,10
 125 616 125 616 154 616 c 1,11,-1
 154 693 l 1,12,-1
 231 693 l 1,13,-1
 231 616 l 1,14,15
 260 616 260 616 287.5 603 c 128,-1,16
 315 590 315 590 337 568 c 128,-1,17
 359 546 359 546 372 518.5 c 128,-1,18
 385 491 385 491 385 462 c 1,19,-1
 308 462 l 1,20,21
 308 477 308 477 301.5 490.5 c 128,-1,22
 295 504 295 504 284 515 c 128,-1,23
 273 526 273 526 259.5 532.5 c 128,-1,24
 246 539 246 539 231 539 c 1,25,-1
 231 231 l 1,26,27
 246 231 246 231 259.5 237.5 c 128,-1,28
 273 244 273 244 284 255 c 128,-1,29
 295 266 295 266 301.5 280 c 128,-1,30
 308 294 308 294 308 308 c 1,31,-1
 385 308 l 1,32,33
 385 279 385 279 372 251.5 c 128,-1,34
 359 224 359 224 337 202 c 128,-1,35
 315 180 315 180 287.5 167 c 128,-1,36
 260 154 260 154 231 154 c 1,37,-1
 231 77 l 1,38,-1
 154 77 l 1,39,-1
 154 154 l 1,0,1
154 539 m 1,40,41
 140 539 140 539 126 532.5 c 128,-1,42
 112 526 112 526 101 515 c 128,-1,43
 90 504 90 504 83.5 490.5 c 128,-1,44
 77 477 77 477 77 462 c 2,45,-1
 77 308 l 2,46,47
 77 294 77 294 83.5 280 c 128,-1,48
 90 266 90 266 101 255 c 128,-1,49
 112 244 112 244 126 237.5 c 128,-1,50
 140 231 140 231 154 231 c 1,51,-1
 154 539 l 1,40,41
EndSplineSet
Validated: 1
EndChar

StartChar: sterling
Encoding: 163 163 100
Width: 461
GlyphClass: 1
Flags: W
HStem: 0 77<1 51.0062 181.526 282.691> 308 77<1 78 155 232> 616 77<181.311 282.691>
VStem: 78 77<103.089 308 385 589.466> 309 77<103.534 154 539 589.466>
CounterMasks: 1 e0
LayerCount: 2
Fore
SplineSet
1 77 m 1,0,1
 16 77 16 77 29.5 83.5 c 128,-1,2
 43 90 43 90 54 101 c 128,-1,3
 65 112 65 112 71.5 126 c 128,-1,4
 78 140 78 140 78 154 c 2,5,-1
 78 308 l 1,6,-1
 1 308 l 1,7,-1
 1 385 l 1,8,-1
 78 385 l 1,9,-1
 78 539 l 2,10,11
 78 568 78 568 91 595.5 c 128,-1,12
 104 623 104 623 126 645 c 128,-1,13
 148 667 148 667 175.5 680 c 128,-1,14
 203 693 203 693 232 693 c 256,15,16
 261 693 261 693 288.5 680 c 128,-1,17
 316 667 316 667 338 645 c 128,-1,18
 360 623 360 623 373 595.5 c 128,-1,19
 386 568 386 568 386 539 c 1,20,-1
 309 539 l 1,21,22
 309 554 309 554 302.5 567.5 c 128,-1,23
 296 581 296 581 285 592 c 128,-1,24
 274 603 274 603 260.5 609.5 c 128,-1,25
 247 616 247 616 232 616 c 0,26,27
 218 616 218 616 204 609.5 c 128,-1,28
 190 603 190 603 179 592 c 128,-1,29
 168 581 168 581 161.5 567.5 c 128,-1,30
 155 554 155 554 155 539 c 2,31,-1
 155 385 l 1,32,-1
 232 385 l 1,33,-1
 232 308 l 1,34,-1
 155 308 l 1,35,-1
 155 154 l 2,36,37
 155 140 155 140 161.5 126 c 128,-1,38
 168 112 168 112 179 101 c 128,-1,39
 190 90 190 90 204 83.5 c 128,-1,40
 218 77 218 77 232 77 c 0,41,42
 247 77 247 77 260.5 83.5 c 128,-1,43
 274 90 274 90 285 101 c 128,-1,44
 296 112 296 112 302.5 126 c 128,-1,45
 309 140 309 140 309 154 c 1,46,-1
 386 154 l 1,47,48
 386 125 386 125 373 97.5 c 128,-1,49
 360 70 360 70 338 48 c 128,-1,50
 316 26 316 26 288.5 13 c 128,-1,51
 261 0 261 0 232 0 c 0,52,53
 199 0 199 0 168.5 13.5 c 128,-1,54
 138 27 138 27 116 52 c 1,55,56
 94 27 94 27 63.5 13.5 c 128,-1,57
 33 0 33 0 0 0 c 1,58,-1
 1 77 l 1,0,1
EndSplineSet
Validated: 1
EndChar

StartChar: currency
Encoding: 164 164 101
Width: 461
GlyphClass: 1
Flags: W
HStem: 116 77<142.565 243.863> 347 75<142.089 243.592> 441 20G<0 74 310 384>
VStem: 270 75<220.041 320.754>
LayerCount: 2
Fore
SplineSet
0 131 m 1,0,-1
 60 191 l 1,1,2
 55 200 55 200 51 217 c 128,-1,3
 47 234 47 234 44.5 249 c 128,-1,4
 42 264 42 264 40.5 271.5 c 128,-1,5
 39 279 39 279 39 269 c 1,6,7
 39 311 39 311 60 347 c 1,8,-1
 0 407 l 1,9,-1
 0 461 l 1,10,-1
 54 461 l 1,11,-1
 114 401 l 1,12,13
 131 412 131 412 151.5 417 c 128,-1,14
 172 422 172 422 192 422 c 0,15,16
 224 422 224 422 241 421.5 c 128,-1,17
 258 421 258 421 264.5 419.5 c 128,-1,18
 271 418 271 418 270.5 416.5 c 128,-1,19
 270 415 270 415 268 412.5 c 128,-1,20
 266 410 266 410 265 407 c 128,-1,21
 264 404 264 404 270 401 c 1,22,-1
 330 461 l 1,23,-1
 384 461 l 1,24,-1
 384 407 l 1,25,-1
 324 347 l 1,26,27
 345 330 345 330 345 309.5 c 128,-1,28
 345 289 345 289 345 269 c 0,29,30
 345 227 345 227 324 191 c 1,31,-1
 384 131 l 1,32,-1
 384 77 l 1,33,-1
 330 77 l 1,34,-1
 270 137 l 1,35,36
 235 116 235 116 192 116 c 0,37,38
 150 116 150 116 114 137 c 1,39,-1
 54 77 l 1,40,-1
 0 77 l 1,41,-1
 0 131 l 1,0,-1
193 193 m 0,42,43
 208 193 208 193 221.5 199.5 c 128,-1,44
 235 206 235 206 246 217 c 128,-1,45
 257 228 257 228 263.5 242 c 128,-1,46
 270 256 270 256 270 270 c 0,47,48
 270 285 270 285 263.5 298.5 c 128,-1,49
 257 312 257 312 246 323 c 128,-1,50
 235 334 235 334 221.5 340.5 c 128,-1,51
 208 347 208 347 193 347 c 0,52,53
 179 347 179 347 165 340.5 c 128,-1,54
 151 334 151 334 140 323 c 128,-1,55
 129 312 129 312 122.5 298.5 c 128,-1,56
 116 285 116 285 116 270 c 0,57,58
 116 256 116 256 122.5 242 c 128,-1,59
 129 228 129 228 140 217 c 128,-1,60
 151 206 151 206 165 199.5 c 128,-1,61
 179 193 179 193 193 193 c 0,42,43
EndSplineSet
Validated: 1
EndChar

StartChar: yen
Encoding: 165 165 102
Width: 461
GlyphClass: 1
Flags: W
HStem: 0 21G<154 231> 154 77<1 155 231 385> 308 77<1 138 248 385> 673 20G<1 86.8462 299.154 385>
VStem: 155 76<0 154 231 308>
LayerCount: 2
Fore
SplineSet
155 154 m 1,0,-1
 1 154 l 1,1,-1
 1 231 l 1,2,-1
 155 231 l 1,3,-1
 155 308 l 1,4,-1
 1 308 l 1,5,-1
 1 385 l 1,6,-1
 138 385 l 1,7,-1
 1 693 l 1,8,-1
 78 693 l 1,9,-1
 193 433 l 1,10,-1
 308 693 l 1,11,-1
 385 693 l 1,12,-1
 248 385 l 1,13,-1
 385 385 l 1,14,-1
 385 308 l 1,15,-1
 231 308 l 1,16,-1
 231 231 l 1,17,-1
 385 231 l 1,18,-1
 385 154 l 1,19,-1
 231 154 l 1,20,-1
 231 0 l 1,21,-1
 154 0 l 1,22,-1
 155 154 l 1,0,-1
EndSplineSet
Validated: 1
EndChar

StartChar: brokenbar
Encoding: 166 166 103
Width: 461
GlyphClass: 1
Flags: W
HStem: 0 21G<154 231> 673 20G<154 231>
VStem: 154 77<0 308 385 693>
LayerCount: 2
Fore
SplineSet
154 308 m 1,0,-1
 231 308 l 1,1,-1
 231 0 l 1,2,-1
 154 0 l 1,3,-1
 154 308 l 1,0,-1
154 693 m 1,4,-1
 231 693 l 1,5,-1
 231 385 l 1,6,-1
 154 385 l 1,7,-1
 154 693 l 1,4,-1
EndSplineSet
Validated: 1
EndChar

StartChar: section
Encoding: 167 167 104
Width: 461
GlyphClass: 1
Flags: W
HStem: 0 79<180.311 281.691> 233 77<180.534 281.916> 464 76<180.089 281.466> 694 77<180.311 281.691>
VStem: 77 77<105.264 154 336.311 437.482 566.526 667.691> 308 77<105.176 206.445 336.512 437.623 617 667.466>
LayerCount: 2
Fore
SplineSet
154 156 m 1,0,1
 154 142 154 142 160.5 128 c 128,-1,2
 167 114 167 114 178 103 c 128,-1,3
 189 92 189 92 203 85.5 c 128,-1,4
 217 79 217 79 231 79 c 0,5,6
 246 79 246 79 259.5 85.5 c 128,-1,7
 273 92 273 92 284 103 c 128,-1,8
 295 114 295 114 301.5 128 c 128,-1,9
 308 142 308 142 308 156 c 0,10,11
 308 171 308 171 301.5 184.5 c 128,-1,12
 295 198 295 198 284 209 c 128,-1,13
 273 220 273 220 259.5 226.5 c 128,-1,14
 246 233 246 233 231 233 c 0,15,16
 202 233 202 233 174.5 246 c 128,-1,17
 147 259 147 259 125 281 c 128,-1,18
 103 303 103 303 90 330.5 c 128,-1,19
 77 358 77 358 77 387 c 0,20,21
 77 419 77 419 90.5 449.5 c 128,-1,22
 104 480 104 480 129 502 c 1,23,24
 104 523 104 523 90.5 553.5 c 128,-1,25
 77 584 77 584 77 617 c 0,26,27
 77 646 77 646 90 673.5 c 128,-1,28
 103 701 103 701 125 723 c 128,-1,29
 147 745 147 745 174.5 758 c 128,-1,30
 202 771 202 771 231 771 c 256,31,32
 260 771 260 771 287.5 758 c 128,-1,33
 315 745 315 745 337 723 c 128,-1,34
 359 701 359 701 372 673.5 c 128,-1,35
 385 646 385 646 385 617 c 1,36,-1
 308 617 l 1,37,38
 308 632 308 632 301.5 645.5 c 128,-1,39
 295 659 295 659 284 670 c 128,-1,40
 273 681 273 681 259.5 687.5 c 128,-1,41
 246 694 246 694 231 694 c 0,42,43
 217 694 217 694 203 687.5 c 128,-1,44
 189 681 189 681 178 670 c 128,-1,45
 167 659 167 659 160.5 645.5 c 128,-1,46
 154 632 154 632 154 617 c 0,47,48
 154 603 154 603 160.5 589 c 128,-1,49
 167 575 167 575 178 564 c 128,-1,50
 189 553 189 553 203 546.5 c 128,-1,51
 217 540 217 540 231 540 c 0,52,53
 260 540 260 540 287.5 527 c 128,-1,54
 315 514 315 514 337 492 c 128,-1,55
 359 470 359 470 372 442.5 c 128,-1,56
 385 415 385 415 385 386 c 0,57,58
 385 353 385 353 371.5 322.5 c 128,-1,59
 358 292 358 292 333 270 c 1,60,61
 358 248 358 248 371.5 217.5 c 128,-1,62
 385 187 385 187 385 154 c 0,63,64
 385 125 385 125 372 97.5 c 128,-1,65
 359 70 359 70 337 48 c 128,-1,66
 315 26 315 26 287.5 13 c 128,-1,67
 260 0 260 0 231 0 c 256,68,69
 202 0 202 0 174.5 13 c 128,-1,70
 147 26 147 26 125 48 c 128,-1,71
 103 70 103 70 90 97.5 c 128,-1,72
 77 125 77 125 77 154 c 1,73,-1
 154 156 l 1,0,1
231 310 m 0,74,75
 246 310 246 310 259.5 316.5 c 128,-1,76
 273 323 273 323 284 334 c 128,-1,77
 295 345 295 345 301.5 359 c 128,-1,78
 308 373 308 373 308 387 c 0,79,80
 308 402 308 402 301.5 415.5 c 128,-1,81
 295 429 295 429 284 440 c 128,-1,82
 273 451 273 451 259.5 457.5 c 128,-1,83
 246 464 246 464 231 464 c 0,84,85
 217 464 217 464 203 457.5 c 128,-1,86
 189 451 189 451 178 440 c 128,-1,87
 167 429 167 429 160.5 415.5 c 128,-1,88
 154 402 154 402 154 387 c 0,89,90
 154 373 154 373 160.5 359 c 128,-1,91
 167 345 167 345 178 334 c 128,-1,92
 189 323 189 323 203 316.5 c 128,-1,93
 217 310 217 310 231 310 c 0,74,75
EndSplineSet
Validated: 1
EndChar

StartChar: dieresis
Encoding: 168 168 105
Width: 461
GlyphClass: 1
Flags: W
HStem: 605 98<82.4395 151.561 238.439 307.561>
VStem: 68 98<619.439 687.046> 224 98<619.439 687.046>
LayerCount: 2
Fore
SplineSet
224 653 m 132,-1,1
 224 673 224 673 238 687.5 c 132,-1,2
 252 702 252 702 272 703 c 4,3,4
 294 702 294 702 308 687.5 c 132,-1,5
 322 673 322 673 322 653 c 132,-1,6
 322 633 322 633 308 619 c 132,-1,7
 294 605 294 605 274 605 c 4,8,9
 252 605 252 605 238 619 c 132,-1,0
 224 633 224 633 224 653 c 132,-1,1
68 653 m 132,-1,11
 68 673 68 673 82 687.5 c 132,-1,12
 96 702 96 702 116 703 c 4,13,14
 138 702 138 702 152 687.5 c 132,-1,15
 166 673 166 673 166 653 c 132,-1,16
 166 633 166 633 152 619 c 132,-1,17
 138 605 138 605 118 605 c 4,18,19
 96 605 96 605 82 619 c 132,-1,10
 68 633 68 633 68 653 c 132,-1,11
EndSplineSet
Validated: 1
EndChar

StartChar: copyright
Encoding: 169 169 106
Width: 461
GlyphClass: 1
Flags: W
HStem: 77 77<103.534 281.466> 235 36<162.155 223.944> 580 40<161.109 227.17> 693 77<103.534 281.466>
VStem: 0 77<180.534 666.466> 118 37<277.75 572.969> 231 41<276.362 347 504 575.247> 308 77<180.534 666.466>
LayerCount: 2
Fore
SplineSet
154 77 m 2,0,1
 125 77 125 77 97.5 90 c 128,-1,2
 70 103 70 103 48 125 c 128,-1,3
 26 147 26 147 13 174.5 c 128,-1,4
 0 202 0 202 0 231 c 2,5,-1
 0 616 l 2,6,7
 0 645 0 645 13 672.5 c 128,-1,8
 26 700 26 700 48 722 c 128,-1,9
 70 744 70 744 97.5 757 c 128,-1,10
 125 770 125 770 154 770 c 2,11,-1
 231 770 l 2,12,13
 260 770 260 770 287.5 757 c 128,-1,14
 315 744 315 744 337 722 c 128,-1,15
 359 700 359 700 372 672.5 c 128,-1,16
 385 645 385 645 385 616 c 2,17,-1
 385 231 l 2,18,19
 385 202 385 202 372 174.5 c 128,-1,20
 359 147 359 147 337 125 c 128,-1,21
 315 103 315 103 287.5 90 c 128,-1,22
 260 77 260 77 231 77 c 2,23,-1
 154 77 l 2,0,1
231 154 m 2,24,25
 246 154 246 154 259.5 160.5 c 128,-1,26
 273 167 273 167 284 178 c 128,-1,27
 295 189 295 189 301.5 203 c 128,-1,28
 308 217 308 217 308 231 c 2,29,-1
 308 616 l 2,30,31
 308 631 308 631 301.5 644.5 c 128,-1,32
 295 658 295 658 284 669 c 128,-1,33
 273 680 273 680 259.5 686.5 c 128,-1,34
 246 693 246 693 231 693 c 2,35,-1
 154 693 l 2,36,37
 140 693 140 693 126 686.5 c 128,-1,38
 112 680 112 680 101 669 c 128,-1,39
 90 658 90 658 83.5 644.5 c 128,-1,40
 77 631 77 631 77 616 c 2,41,-1
 77 231 l 2,42,43
 77 217 77 217 83.5 203 c 128,-1,44
 90 189 90 189 101 178 c 128,-1,45
 112 167 112 167 126 160.5 c 128,-1,46
 140 154 140 154 154 154 c 2,47,-1
 231 154 l 2,24,25
272 351 m 1,48,-1
 272 312 l 2,49,50
 272 298 272 298 265.5 284 c 128,-1,51
 259 270 259 270 248 259 c 128,-1,52
 237 248 237 248 223.5 241.5 c 128,-1,53
 210 235 210 235 195 235 c 0,54,55
 181 235 181 235 167 241.5 c 128,-1,56
 153 248 153 248 142 259 c 128,-1,57
 131 270 131 270 124.5 284 c 128,-1,58
 118 298 118 298 118 312 c 2,59,-1
 118 543 l 2,60,61
 118 558 118 558 124.5 571.5 c 128,-1,62
 131 585 131 585 142 596 c 128,-1,63
 153 607 153 607 167 613.5 c 128,-1,64
 181 620 181 620 195 620 c 0,65,66
 210 620 210 620 223.5 613.5 c 128,-1,67
 237 607 237 607 248 596 c 128,-1,68
 259 585 259 585 265.5 571.5 c 128,-1,69
 272 558 272 558 272 543 c 2,70,-1
 272 504 l 1,71,-1
 233 504 l 1,72,-1
 233 542 l 2,73,74
 233 556 233 556 220.5 568 c 128,-1,75
 208 580 208 580 194 580 c 0,76,77
 179 580 179 580 167 567.5 c 128,-1,78
 155 555 155 555 155 541 c 2,79,-1
 155 310 l 2,80,81
 155 295 155 295 167 283 c 128,-1,82
 179 271 179 271 193 271 c 256,83,84
 207 271 207 271 219 283 c 128,-1,85
 231 295 231 295 231 309 c 2,86,-1
 231 347 l 1,87,-1
 272 351 l 1,48,-1
EndSplineSet
Validated: 1
EndChar

StartChar: ordfeminine
Encoding: 170 170 107
Width: 461
GlyphClass: 1
Flags: W
HStem: 154 77<0 385> 309 77<84.8438 310> 464 75<85.1499 308> 616 77<77 281.466>
VStem: 1 79<390.498 459.398> 310 75<386 464 539 587.428>
LayerCount: 2
Fore
SplineSet
0 231 m 1,0,-1
 385 231 l 1,1,-1
 385 154 l 1,2,-1
 0 154 l 1,3,-1
 0 231 l 1,0,-1
117 309 m 2,4,5
 95 309 95 309 74.5 319 c 128,-1,6
 54 329 54 329 37.5 345 c 128,-1,7
 21 361 21 361 11 381.5 c 128,-1,8
 1 402 1 402 1 424 c 0,9,10
 1 445 1 445 11 466 c 128,-1,11
 21 487 21 487 37 503 c 128,-1,12
 53 519 53 519 73.5 529 c 128,-1,13
 94 539 94 539 116 539 c 2,14,-1
 308 539 l 1,15,16
 308 554 308 554 301.5 567.5 c 128,-1,17
 295 581 295 581 284 592 c 128,-1,18
 273 603 273 603 259.5 609.5 c 128,-1,19
 246 616 246 616 231 616 c 2,20,-1
 77 616 l 1,21,-1
 77 693 l 1,22,-1
 231 693 l 2,23,24
 260 693 260 693 287.5 680 c 128,-1,25
 315 667 315 667 337 645 c 128,-1,26
 359 623 359 623 372 595.5 c 128,-1,27
 385 568 385 568 385 539 c 2,28,-1
 385 308 l 1,29,-1
 117 309 l 2,4,5
312 464 m 1,30,-1
 119 464 l 2,31,32
 104 464 104 464 92 451.5 c 128,-1,33
 80 439 80 439 80 425 c 0,34,35
 80 410 80 410 92 398 c 128,-1,36
 104 386 104 386 118 386 c 2,37,-1
 310 386 l 1,38,-1
 312 464 l 1,30,-1
EndSplineSet
Validated: 1
EndChar

StartChar: guillemotleft
Encoding: 171 171 108
Width: 461
GlyphClass: 1
Flags: W
LayerCount: 2
Fore
SplineSet
0 308 m 1,0,-1
 231 539 l 1,1,-1
 231 430 l 1,2,-1
 109 308 l 1,3,-1
 231 186 l 1,4,-1
 231 77 l 1,5,-1
 0 308 l 1,0,-1
154 308 m 1,6,-1
 385 539 l 1,7,-1
 385 430 l 1,8,-1
 263 308 l 1,9,-1
 385 186 l 1,10,-1
 385 77 l 1,11,-1
 154 308 l 1,6,-1
EndSplineSet
Validated: 1
EndChar

StartChar: logicalnot
Encoding: 172 172 109
Width: 461
GlyphClass: 1
Flags: W
HStem: 231 154<308 385> 308 77<0 308>
VStem: 308 77<231 308>
LayerCount: 2
Fore
SplineSet
0 385 m 1,0,-1
 385 385 l 1,1,-1
 385 231 l 1,2,-1
 308 231 l 1,3,-1
 308 308 l 1,4,-1
 0 308 l 1,5,-1
 0 385 l 1,0,-1
EndSplineSet
Validated: 1
EndChar

StartChar: registered
Encoding: 174 174 110
Width: 461
GlyphClass: 1
Flags: W
HStem: 77 77<103.534 281.466> 385 40<193 227.287> 578 38<155 226.475> 693 77<103.534 281.466>
VStem: 0 77<180.534 666.466> 116 38<231 385 424 578> 233 37<431.831 570.836> 308 77<180.534 666.466>
LayerCount: 2
Fore
SplineSet
154 77 m 2,0,1
 125 77 125 77 97.5 90 c 128,-1,2
 70 103 70 103 48 125 c 128,-1,3
 26 147 26 147 13 174.5 c 128,-1,4
 0 202 0 202 0 231 c 2,5,-1
 0 616 l 2,6,7
 0 645 0 645 13 672.5 c 128,-1,8
 26 700 26 700 48 722 c 128,-1,9
 70 744 70 744 97.5 757 c 128,-1,10
 125 770 125 770 154 770 c 2,11,-1
 231 770 l 2,12,13
 260 770 260 770 287.5 757 c 128,-1,14
 315 744 315 744 337 722 c 128,-1,15
 359 700 359 700 372 672.5 c 128,-1,16
 385 645 385 645 385 616 c 2,17,-1
 385 231 l 2,18,19
 385 202 385 202 372 174.5 c 128,-1,20
 359 147 359 147 337 125 c 128,-1,21
 315 103 315 103 287.5 90 c 128,-1,22
 260 77 260 77 231 77 c 2,23,-1
 154 77 l 2,0,1
231 154 m 2,24,25
 246 154 246 154 259.5 160.5 c 128,-1,26
 273 167 273 167 284 178 c 128,-1,27
 295 189 295 189 301.5 203 c 128,-1,28
 308 217 308 217 308 231 c 2,29,-1
 308 616 l 2,30,31
 308 631 308 631 301.5 644.5 c 128,-1,32
 295 658 295 658 284 669 c 128,-1,33
 273 680 273 680 259.5 686.5 c 128,-1,34
 246 693 246 693 231 693 c 2,35,-1
 154 693 l 2,36,37
 140 693 140 693 126 686.5 c 128,-1,38
 112 680 112 680 101 669 c 128,-1,39
 90 658 90 658 83.5 644.5 c 128,-1,40
 77 631 77 631 77 616 c 2,41,-1
 77 231 l 2,42,43
 77 217 77 217 83.5 203 c 128,-1,44
 90 189 90 189 101 178 c 128,-1,45
 112 167 112 167 126 160.5 c 128,-1,46
 140 154 140 154 154 154 c 2,47,-1
 231 154 l 2,24,25
116 231 m 1,48,-1
 116 616 l 1,49,-1
 193 616 l 2,50,51
 208 616 208 616 221.5 609.5 c 128,-1,52
 235 603 235 603 246 592 c 128,-1,53
 257 581 257 581 263.5 567.5 c 128,-1,54
 270 554 270 554 270 539 c 2,55,-1
 270 462 l 2,56,57
 270 448 270 448 263.5 434 c 128,-1,58
 257 420 257 420 246 409 c 128,-1,59
 235 398 235 398 221.5 391.5 c 128,-1,60
 208 385 208 385 193 385 c 1,61,-1
 270 231 l 1,62,-1
 231 231 l 1,63,-1
 154 385 l 1,64,-1
 154 231 l 1,65,-1
 116 231 l 1,48,-1
195 425 m 2,66,67
 209 425 209 425 221 437 c 128,-1,68
 233 449 233 449 233 463 c 2,69,-1
 233 540 l 2,70,71
 233 554 233 554 220.5 566 c 128,-1,72
 208 578 208 578 194 578 c 2,73,-1
 155 578 l 1,74,-1
 155 424 l 1,75,-1
 195 425 l 2,66,67
EndSplineSet
Validated: 1
EndChar

StartChar: macron
Encoding: 175 175 111
Width: 461
GlyphClass: 1
Flags: W
HStem: 616 77<0 385>
LayerCount: 2
Fore
SplineSet
0 693 m 1,0,-1
 385 693 l 1,1,-1
 385 616 l 1,2,-1
 0 616 l 1,3,-1
 0 693 l 1,0,-1
EndSplineSet
Validated: 1
EndChar

StartChar: degree
Encoding: 176 176 112
Width: 461
GlyphClass: 1
Flags: W
HStem: 385 77<180.311 281.691> 616 77<180.311 281.691>
VStem: 77 77<488.311 589.691> 308 77<488.311 589.691>
LayerCount: 2
Fore
SplineSet
231 385 m 256,0,1
 202 385 202 385 174.5 398 c 128,-1,2
 147 411 147 411 125 433 c 128,-1,3
 103 455 103 455 90 482.5 c 128,-1,4
 77 510 77 510 77 539 c 256,5,6
 77 568 77 568 90 595.5 c 128,-1,7
 103 623 103 623 125 645 c 128,-1,8
 147 667 147 667 174.5 680 c 128,-1,9
 202 693 202 693 231 693 c 256,10,11
 260 693 260 693 287.5 680 c 128,-1,12
 315 667 315 667 337 645 c 128,-1,13
 359 623 359 623 372 595.5 c 128,-1,14
 385 568 385 568 385 539 c 256,15,16
 385 510 385 510 372 482.5 c 128,-1,17
 359 455 359 455 337 433 c 128,-1,18
 315 411 315 411 287.5 398 c 128,-1,19
 260 385 260 385 231 385 c 256,0,1
231 462 m 0,20,21
 246 462 246 462 259.5 468.5 c 128,-1,22
 273 475 273 475 284 486 c 128,-1,23
 295 497 295 497 301.5 511 c 128,-1,24
 308 525 308 525 308 539 c 0,25,26
 308 554 308 554 301.5 567.5 c 128,-1,27
 295 581 295 581 284 592 c 128,-1,28
 273 603 273 603 259.5 609.5 c 128,-1,29
 246 616 246 616 231 616 c 0,30,31
 217 616 217 616 203 609.5 c 128,-1,32
 189 603 189 603 178 592 c 128,-1,33
 167 581 167 581 160.5 567.5 c 128,-1,34
 154 554 154 554 154 539 c 0,35,36
 154 525 154 525 160.5 511 c 128,-1,37
 167 497 167 497 178 486 c 128,-1,38
 189 475 189 475 203 468.5 c 128,-1,39
 217 462 217 462 231 462 c 0,20,21
EndSplineSet
Validated: 1
EndChar

StartChar: plusminus
Encoding: 177 177 113
Width: 461
GlyphClass: 1
Flags: W
HStem: 77 77<0 385> 385 77<0 154 231 385>
VStem: 154 77<231 385 462 616>
LayerCount: 2
Fore
SplineSet
0 154 m 1,0,-1
 385 154 l 1,1,-1
 385 77 l 1,2,-1
 0 77 l 1,3,-1
 0 154 l 1,0,-1
0 462 m 1,4,-1
 154 462 l 1,5,-1
 154 616 l 1,6,-1
 231 616 l 1,7,-1
 231 462 l 1,8,-1
 385 462 l 1,9,-1
 385 385 l 1,10,-1
 231 385 l 1,11,-1
 231 231 l 1,12,-1
 154 231 l 1,13,-1
 154 385 l 1,14,-1
 0 385 l 1,15,-1
 0 462 l 1,4,-1
EndSplineSet
Validated: 1
EndChar

StartChar: twosuperior
Encoding: 178 178 114
Width: 461
GlyphClass: 1
Flags: W
HStem: 385 77<109 231> 695 75<83.0583 151.398>
VStem: 1 77<617 690.358> 156 75<619 690.057>
LayerCount: 2
Fore
SplineSet
156 619 m 1,0,-1
 156 657 l 2,1,2
 156 671 156 671 143.5 683 c 128,-1,3
 131 695 131 695 117 695 c 0,4,5
 102 695 102 695 90 682.5 c 128,-1,6
 78 670 78 670 78 656 c 2,7,-1
 78 617 l 1,8,-1
 1 617 l 1,9,-1
 1 655 l 2,10,11
 1 676 1 676 11 697 c 128,-1,12
 21 718 21 718 37 734 c 128,-1,13
 53 750 53 750 73.5 760 c 128,-1,14
 94 770 94 770 116 770 c 0,15,16
 137 770 137 770 158 760 c 128,-1,17
 179 750 179 750 195 733.5 c 128,-1,18
 211 717 211 717 221 696.5 c 128,-1,19
 231 676 231 676 231 654 c 2,20,-1
 231 584 l 1,21,-1
 109 462 l 1,22,-1
 231 462 l 1,23,-1
 231 385 l 1,24,-1
 0 385 l 1,25,-1
 0 462 l 1,26,-1
 156 619 l 1,0,-1
EndSplineSet
Validated: 1
EndChar

StartChar: threesuperior
Encoding: 179 179 115
Width: 461
GlyphClass: 1
Flags: W
HStem: 385 82<5 153.352> 543 77<119 152.544> 696 75<84.0583 152.398>
VStem: 2 77<618 691.358> 158 74<471.458 538.158 625.127 690.496>
LayerCount: 2
Fore
SplineSet
5 467 m 1,0,-1
 120 467 l 2,1,2
 134 467 134 467 146 479 c 128,-1,3
 158 491 158 491 158 505 c 256,4,5
 158 519 158 519 145.5 531 c 128,-1,6
 133 543 133 543 119 543 c 1,7,-1
 119 620 l 1,8,9
 133 620 133 620 145 632 c 128,-1,10
 157 644 157 644 157 658 c 256,11,12
 157 672 157 672 144.5 684 c 128,-1,13
 132 696 132 696 118 696 c 0,14,15
 103 696 103 696 91 683.5 c 128,-1,16
 79 671 79 671 79 657 c 2,17,-1
 79 618 l 1,18,-1
 2 618 l 1,19,-1
 2 656 l 2,20,21
 2 677 2 677 12 698 c 128,-1,22
 22 719 22 719 38 735 c 128,-1,23
 54 751 54 751 74.5 761 c 128,-1,24
 95 771 95 771 117 771 c 0,25,26
 138 771 138 771 159 761 c 128,-1,27
 180 751 180 751 196 734.5 c 128,-1,28
 212 718 212 718 222 697.5 c 128,-1,29
 232 677 232 677 232 655 c 0,30,31
 232 634 232 634 224.5 614 c 128,-1,32
 217 594 217 594 203 578 c 1,33,34
 217 562 217 562 224.5 542 c 128,-1,35
 232 522 232 522 232 501 c 0,36,37
 232 479 232 479 222 458.5 c 128,-1,38
 212 438 212 438 195.5 421.5 c 128,-1,39
 179 405 179 405 158.5 395 c 128,-1,40
 138 385 138 385 116 385 c 2,41,-1
 0 385 l 1,42,-1
 5 467 l 1,0,-1
EndSplineSet
Validated: 1
EndChar

StartChar: acute
Encoding: 180 180 116
Width: 461
GlyphClass: 1
Flags: W
HStem: 539 231
VStem: 77 231
LayerCount: 2
Fore
SplineSet
77 593 m 1,0,-1
 254 770 l 1,1,-1
 308 770 l 1,2,-1
 308 716 l 1,3,-1
 131 539 l 1,4,-1
 77 539 l 1,5,-1
 77 593 l 1,0,-1
EndSplineSet
Validated: 1
EndChar

StartChar: mu
Encoding: 181 181 117
Width: 461
GlyphClass: 1
Flags: W
HStem: -154 21G<0 77> 0 77<103.587 281.916> 442 20G<0 77 308 385>
VStem: 0 77<-154 21 103.089 462> 308 77<0 21 103.089 462>
LayerCount: 2
Fore
SplineSet
77 462 m 1,0,-1
 77 154 l 2,1,2
 77 140 77 140 83.5 126 c 128,-1,3
 90 112 90 112 101 101 c 128,-1,4
 112 90 112 90 126 83.5 c 128,-1,5
 140 77 140 77 154 77 c 2,6,-1
 231 77 l 2,7,8
 246 77 246 77 259.5 83.5 c 128,-1,9
 273 90 273 90 284 101 c 128,-1,10
 295 112 295 112 301.5 126 c 128,-1,11
 308 140 308 140 308 154 c 2,12,-1
 308 462 l 1,13,-1
 385 462 l 1,14,-1
 385 0 l 1,15,-1
 308 0 l 1,16,-1
 308 21 l 1,17,18
 273 0 273 0 231 0 c 2,19,-1
 154 0 l 2,20,21
 134 0 134 0 114 5.5 c 128,-1,22
 94 11 94 11 77 21 c 1,23,-1
 77 -154 l 1,24,-1
 0 -154 l 1,25,-1
 0 462 l 1,26,-1
 77 462 l 1,0,-1
EndSplineSet
Validated: 1
EndChar

StartChar: paragraph
Encoding: 182 182 118
Width: 461
GlyphClass: 1
Flags: W
HStem: 0 21G<154 231 308 385> 616 77<231 308>
VStem: 0 231<389.657 611.343> 154 77<0 308> 308 77<0 616>
LayerCount: 2
Fore
SplineSet
154 0 m 1,0,-1
 154 308 l 1,1,2
 125 308 125 308 97.5 321 c 128,-1,3
 70 334 70 334 48 356 c 128,-1,4
 26 378 26 378 13 405.5 c 128,-1,5
 0 433 0 433 0 462 c 2,6,-1
 0 539 l 2,7,8
 0 568 0 568 13 595.5 c 128,-1,9
 26 623 26 623 48 645 c 128,-1,10
 70 667 70 667 97.5 680 c 128,-1,11
 125 693 125 693 154 693 c 2,12,-1
 385 693 l 1,13,-1
 385 0 l 1,14,-1
 308 0 l 1,15,-1
 308 616 l 1,16,-1
 231 616 l 1,17,-1
 231 0 l 1,18,-1
 154 0 l 1,0,-1
EndSplineSet
Validated: 1
EndChar

StartChar: periodcentered
Encoding: 183 183 119
Width: 461
GlyphClass: 1
Flags: W
HStem: 311 76<160.456 195>
VStem: 156 76<315.472 382.358>
LayerCount: 2
Fore
SplineSet
195 311 m 1,0,1
 180 311 180 311 168 323 c 128,-1,2
 156 335 156 335 156 349 c 256,3,4
 156 363 156 363 168 375 c 128,-1,5
 180 387 180 387 194 387 c 256,6,7
 208 387 208 387 220 374.5 c 128,-1,8
 232 362 232 362 232 348 c 0,9,10
 232 333 232 333 219.5 321 c 128,-1,11
 207 309 207 309 193 309 c 1,12,-1
 195 311 l 1,0,1
EndSplineSet
Validated: 1
EndChar

StartChar: cedilla
Encoding: 184 184 120
Width: 461
GlyphClass: 1
Flags: W
HStem: -153 38<77 268.484> -77 79<154 231> -77 40<231 268.484>
VStem: 154 77<-37 0> 269 39<-114.873 -77.0747>
LayerCount: 2
Fore
SplineSet
231 2 m 1,0,-1
 231 -37 l 1,1,-1
 250 -37 l 2,2,3
 272 -37 272 -37 290 -55 c 128,-1,4
 308 -73 308 -73 308 -95 c 256,5,6
 308 -117 308 -117 290 -135 c 128,-1,7
 272 -153 272 -153 250 -153 c 2,8,-1
 77 -153 l 1,9,-1
 77 -115 l 1,10,-1
 250 -115 l 2,11,12
 257 -115 257 -115 263 -109.5 c 128,-1,13
 269 -104 269 -104 269 -96 c 0,14,15
 269 -89 269 -89 263.5 -83 c 128,-1,16
 258 -77 258 -77 250 -77 c 2,17,-1
 154 -77 l 1,18,-1
 154 0 l 1,19,-1
 231 2 l 1,0,-1
EndSplineSet
Validated: 1
EndChar

StartChar: onesuperior
Encoding: 185 185 121
Width: 461
GlyphClass: 1
Flags: W
HStem: 385 77<0 77 154 231>
VStem: 0 154<616 693> 77 77<462 616>
LayerCount: 2
Fore
SplineSet
0 462 m 1,0,-1
 77 462 l 1,1,-1
 77 616 l 1,2,-1
 0 616 l 1,3,-1
 0 693 l 1,4,-1
 77 770 l 1,5,-1
 154 770 l 1,6,-1
 154 462 l 1,7,-1
 231 462 l 1,8,-1
 231 385 l 1,9,-1
 0 385 l 1,10,-1
 0 462 l 1,0,-1
EndSplineSet
Validated: 1
EndChar

StartChar: ordmasculine
Encoding: 186 186 122
Width: 461
GlyphClass: 1
Flags: W
HStem: 154 77<0 385> 308 77<103.534 281.466> 616 77<103.534 281.466>
VStem: 0 77<411.534 589.466> 308 77<411.534 589.466>
LayerCount: 2
Fore
SplineSet
0 231 m 1,0,-1
 385 231 l 1,1,-1
 385 154 l 1,2,-1
 0 154 l 1,3,-1
 0 231 l 1,0,-1
154 308 m 2,4,5
 125 308 125 308 97.5 321 c 128,-1,6
 70 334 70 334 48 356 c 128,-1,7
 26 378 26 378 13 405.5 c 128,-1,8
 0 433 0 433 0 462 c 2,9,-1
 0 539 l 2,10,11
 0 568 0 568 13 595.5 c 128,-1,12
 26 623 26 623 48 645 c 128,-1,13
 70 667 70 667 97.5 680 c 128,-1,14
 125 693 125 693 154 693 c 2,15,-1
 231 693 l 2,16,17
 260 693 260 693 287.5 680 c 128,-1,18
 315 667 315 667 337 645 c 128,-1,19
 359 623 359 623 372 595.5 c 128,-1,20
 385 568 385 568 385 539 c 2,21,-1
 385 462 l 2,22,23
 385 433 385 433 372 405.5 c 128,-1,24
 359 378 359 378 337 356 c 128,-1,25
 315 334 315 334 287.5 321 c 128,-1,26
 260 308 260 308 231 308 c 2,27,-1
 154 308 l 2,4,5
231 385 m 2,28,29
 246 385 246 385 259.5 391.5 c 128,-1,30
 273 398 273 398 284 409 c 128,-1,31
 295 420 295 420 301.5 434 c 128,-1,32
 308 448 308 448 308 462 c 2,33,-1
 308 539 l 2,34,35
 308 554 308 554 301.5 567.5 c 128,-1,36
 295 581 295 581 284 592 c 128,-1,37
 273 603 273 603 259.5 609.5 c 128,-1,38
 246 616 246 616 231 616 c 2,39,-1
 154 616 l 2,40,41
 140 616 140 616 126 609.5 c 128,-1,42
 112 603 112 603 101 592 c 128,-1,43
 90 581 90 581 83.5 567.5 c 128,-1,44
 77 554 77 554 77 539 c 2,45,-1
 77 462 l 2,46,47
 77 448 77 448 83.5 434 c 128,-1,48
 90 420 90 420 101 409 c 128,-1,49
 112 398 112 398 126 391.5 c 128,-1,50
 140 385 140 385 154 385 c 2,51,-1
 231 385 l 2,28,29
EndSplineSet
Validated: 1
EndChar

StartChar: guillemotright
Encoding: 187 187 123
Width: 461
GlyphClass: 1
Flags: W
LayerCount: 2
Fore
SplineSet
0 186 m 1,0,-1
 122 308 l 1,1,-1
 0 430 l 1,2,-1
 0 539 l 1,3,-1
 231 308 l 1,4,-1
 0 77 l 1,5,-1
 0 186 l 1,0,-1
154 186 m 1,6,-1
 276 308 l 1,7,-1
 154 430 l 1,8,-1
 154 539 l 1,9,-1
 385 308 l 1,10,-1
 154 77 l 1,11,-1
 154 186 l 1,6,-1
EndSplineSet
Validated: 1
EndChar

StartChar: onequarter
Encoding: 188 188 124
Width: 461
GlyphClass: 1
Flags: W
HStem: 0 21G<308 385> 77 77<247 308> 385 77<0 77 154 231>
VStem: 0 154<616 693> 77 77<462 616> 308 77<0 77 154 246>
LayerCount: 2
Fore
SplineSet
0 462 m 1,0,-1
 77 462 l 1,1,-1
 77 616 l 1,2,-1
 0 616 l 1,3,-1
 0 693 l 1,4,-1
 77 770 l 1,5,-1
 154 770 l 1,6,-1
 154 462 l 1,7,-1
 231 462 l 1,8,-1
 231 385 l 1,9,-1
 0 385 l 1,10,-1
 0 462 l 1,0,-1
308 77 m 1,11,-1
 154 77 l 1,12,-1
 154 154 l 1,13,-1
 308 385 l 1,14,-1
 385 385 l 1,15,-1
 385 0 l 1,16,-1
 308 0 l 1,17,-1
 308 77 l 1,11,-1
308 246 m 1,18,-1
 247 154 l 1,19,-1
 308 154 l 1,20,-1
 308 246 l 1,18,-1
EndSplineSet
Validated: 1
EndChar

StartChar: onehalf
Encoding: 189 189 125
Width: 461
GlyphClass: 1
Flags: W
HStem: 0 77<263 385> 310 75<237.058 305.398> 385 77<0 77 154 231>
VStem: 0 154<616 693> 77 77<462 616> 155 77<232 305.358> 310 75<234 305.057>
LayerCount: 2
Fore
SplineSet
0 462 m 1,0,-1
 77 462 l 1,1,-1
 77 616 l 1,2,-1
 0 616 l 1,3,-1
 0 693 l 1,4,-1
 77 770 l 1,5,-1
 154 770 l 1,6,-1
 154 462 l 1,7,-1
 231 462 l 1,8,-1
 231 385 l 1,9,-1
 0 385 l 1,10,-1
 0 462 l 1,0,-1
310 234 m 1,11,-1
 310 272 l 2,12,13
 310 286 310 286 297.5 298 c 128,-1,14
 285 310 285 310 271 310 c 0,15,16
 256 310 256 310 244 297.5 c 128,-1,17
 232 285 232 285 232 271 c 2,18,-1
 232 232 l 1,19,-1
 155 232 l 1,20,-1
 155 270 l 2,21,22
 155 291 155 291 165 312 c 128,-1,23
 175 333 175 333 191 349 c 128,-1,24
 207 365 207 365 227.5 375 c 128,-1,25
 248 385 248 385 270 385 c 0,26,27
 291 385 291 385 312 375 c 128,-1,28
 333 365 333 365 349 348.5 c 128,-1,29
 365 332 365 332 375 311.5 c 128,-1,30
 385 291 385 291 385 269 c 2,31,-1
 385 199 l 1,32,-1
 263 77 l 1,33,-1
 385 77 l 1,34,-1
 385 0 l 1,35,-1
 154 0 l 1,36,-1
 154 77 l 1,37,-1
 310 234 l 1,11,-1
EndSplineSet
Validated: 1
EndChar

StartChar: threequarters
Encoding: 190 190 126
Width: 461
GlyphClass: 1
Flags: W
HStem: 82 77<252 313> 385 82<5 153.352> 543 77<119 152.544> 696 75<84.0583 152.398>
VStem: 2 77<618 691.358> 158 74<471.458 538.158 625.127 690.496> 313 77<5 82 159 251>
LayerCount: 2
Fore
SplineSet
5 467 m 1,0,-1
 120 467 l 2,1,2
 134 467 134 467 146 479 c 128,-1,3
 158 491 158 491 158 505 c 256,4,5
 158 519 158 519 145.5 531 c 128,-1,6
 133 543 133 543 119 543 c 1,7,-1
 119 620 l 1,8,9
 133 620 133 620 145 632 c 128,-1,10
 157 644 157 644 157 658 c 256,11,12
 157 672 157 672 144.5 684 c 128,-1,13
 132 696 132 696 118 696 c 0,14,15
 103 696 103 696 91 683.5 c 128,-1,16
 79 671 79 671 79 657 c 2,17,-1
 79 618 l 1,18,-1
 2 618 l 1,19,-1
 2 656 l 2,20,21
 2 677 2 677 12 698 c 128,-1,22
 22 719 22 719 38 735 c 128,-1,23
 54 751 54 751 74.5 761 c 128,-1,24
 95 771 95 771 117 771 c 0,25,26
 138 771 138 771 159 761 c 128,-1,27
 180 751 180 751 196 734.5 c 128,-1,28
 212 718 212 718 222 697.5 c 128,-1,29
 232 677 232 677 232 655 c 0,30,31
 232 634 232 634 224.5 614 c 128,-1,32
 217 594 217 594 203 578 c 1,33,34
 217 562 217 562 224.5 542 c 128,-1,35
 232 522 232 522 232 501 c 0,36,37
 232 479 232 479 222 458.5 c 128,-1,38
 212 438 212 438 195.5 421.5 c 128,-1,39
 179 405 179 405 158.5 395 c 128,-1,40
 138 385 138 385 116 385 c 2,41,-1
 0 385 l 1,42,-1
 5 467 l 1,0,-1
313 82 m 1,43,-1
 159 82 l 1,44,-1
 159 159 l 1,45,-1
 313 390 l 1,46,-1
 390 390 l 1,47,-1
 390 5 l 1,48,-1
 313 5 l 1,49,-1
 313 82 l 1,43,-1
313 251 m 1,50,-1
 252 159 l 1,51,-1
 313 159 l 1,52,-1
 313 251 l 1,50,-1
EndSplineSet
Validated: 1
EndChar

StartChar: questiondown
Encoding: 191 191 127
Width: 461
GlyphClass: 1
Flags: W
HStem: 0 77<103.534 281.466> 619 76<160.456 195>
VStem: 0 77<103.534 276> 154 77<462 539 624.672 689.328> 308 77<103.534 231>
CounterMasks: 1 38
LayerCount: 2
Fore
SplineSet
154 462 m 1,0,-1
 154 539 l 1,1,-1
 231 539 l 1,2,-1
 231 430 l 1,3,-1
 77 276 l 1,4,-1
 77 154 l 2,5,6
 77 140 77 140 83.5 126 c 128,-1,7
 90 112 90 112 101 101 c 128,-1,8
 112 90 112 90 126 83.5 c 128,-1,9
 140 77 140 77 154 77 c 2,10,-1
 231 77 l 2,11,12
 246 77 246 77 259.5 83.5 c 128,-1,13
 273 90 273 90 284 101 c 128,-1,14
 295 112 295 112 301.5 126 c 128,-1,15
 308 140 308 140 308 154 c 2,16,-1
 308 231 l 1,17,-1
 385 231 l 1,18,-1
 385 154 l 2,19,20
 385 125 385 125 372 97.5 c 128,-1,21
 359 70 359 70 337 48 c 128,-1,22
 315 26 315 26 287.5 13 c 128,-1,23
 260 0 260 0 231 0 c 2,24,-1
 154 0 l 2,25,26
 125 0 125 0 97.5 13 c 128,-1,27
 70 26 70 26 48 48 c 128,-1,28
 26 70 26 70 13 97.5 c 128,-1,29
 0 125 0 125 0 154 c 2,30,-1
 0 308 l 1,31,-1
 154 462 l 1,0,-1
195 619 m 1,32,33
 180 619 180 619 168 631 c 128,-1,34
 156 643 156 643 156 657 c 256,35,36
 156 671 156 671 168 683 c 128,-1,37
 180 695 180 695 194 695 c 256,38,39
 208 695 208 695 220 682.5 c 128,-1,40
 232 670 232 670 232 656 c 0,41,42
 232 641 232 641 219.5 629 c 128,-1,43
 207 617 207 617 193 617 c 1,44,-1
 195 619 l 1,32,33
EndSplineSet
Validated: 1
EndChar

StartChar: Agrave
Encoding: 192 192 128
Width: 461
GlyphClass: 1
Flags: W
HStem: 0 21G<0 77 308 385> 154 79<78 308>
VStem: 0 77<0 154 233 317> 308 77<0 154 234 318>
LayerCount: 2
Fore
SplineSet
1 348 m 1,0,-1
 193 540 l 1,1,-1
 385 347 l 1,2,-1
 385 0 l 1,3,-1
 308 0 l 1,4,-1
 308 154 l 1,5,-1
 77 154 l 1,6,-1
 77 0 l 1,7,-1
 0 0 l 1,8,-1
 1 348 l 1,0,-1
310 234 m 1,9,-1
 310 318 l 1,10,-1
 194 433 l 1,11,-1
 78 317 l 1,12,-1
 78 233 l 1,13,-1
 310 234 l 1,9,-1
179 619 m 1,14,-1
 79 719 l 1,15,-1
 79 773 l 1,16,-1
 133 773 l 1,17,-1
 233 673 l 1,18,-1
 233 619 l 1,19,-1
 179 619 l 1,14,-1
EndSplineSet
Validated: 1
EndChar

StartChar: Aacute
Encoding: 193 193 129
Width: 461
GlyphClass: 1
Flags: W
HStem: 0 21G<0 77 308 385> 154 79<78 308>
VStem: 0 77<0 154 233 317> 308 77<0 154 234 318>
LayerCount: 2
Fore
SplineSet
1 348 m 1,0,-1
 193 540 l 1,1,-1
 385 347 l 1,2,-1
 385 0 l 1,3,-1
 308 0 l 1,4,-1
 308 154 l 1,5,-1
 77 154 l 1,6,-1
 77 0 l 1,7,-1
 0 0 l 1,8,-1
 1 348 l 1,0,-1
310 234 m 1,9,-1
 310 318 l 1,10,-1
 194 433 l 1,11,-1
 78 317 l 1,12,-1
 78 233 l 1,13,-1
 310 234 l 1,9,-1
156 673 m 1,14,-1
 256 773 l 1,15,-1
 310 773 l 1,16,-1
 310 719 l 1,17,-1
 210 619 l 1,18,-1
 156 619 l 1,19,-1
 156 673 l 1,14,-1
EndSplineSet
Validated: 1
EndChar

StartChar: Acircumflex
Encoding: 194 194 130
Width: 461
GlyphClass: 1
Flags: W
HStem: 0 21G<0 77 308 385> 154 79<78 308>
VStem: 0 77<0 154 233 317> 308 77<0 154 234 318>
LayerCount: 2
Fore
SplineSet
1 348 m 1,0,-1
 193 540 l 1,1,-1
 385 347 l 1,2,-1
 385 0 l 1,3,-1
 308 0 l 1,4,-1
 308 154 l 1,5,-1
 77 154 l 1,6,-1
 77 0 l 1,7,-1
 0 0 l 1,8,-1
 1 348 l 1,0,-1
310 234 m 1,9,-1
 310 318 l 1,10,-1
 194 433 l 1,11,-1
 78 317 l 1,12,-1
 78 233 l 1,13,-1
 310 234 l 1,9,-1
79 659 m 1,14,-1
 194 774 l 1,15,-1
 309 658 l 1,16,-1
 309 619 l 1,17,-1
 239 619 l 1,18,-1
 194 664 l 1,19,-1
 149 619 l 1,20,-1
 79 619 l 1,21,-1
 79 659 l 1,14,-1
EndSplineSet
Validated: 1
EndChar

StartChar: Atilde
Encoding: 195 195 131
Width: 461
GlyphClass: 1
Flags: W
HStem: 0 21G<0 77 308 385> 154 79<78 308> 620 79<231.529 306.327> 697 79<84.0825 159.471>
VStem: 0 77<0 154 233 317 619 691.092> 308 77<0 154 234 318 701.89 775>
LayerCount: 2
Fore
SplineSet
1 348 m 1,0,-1
 193 540 l 1,1,-1
 385 347 l 1,2,-1
 385 0 l 1,3,-1
 308 0 l 1,4,-1
 308 154 l 1,5,-1
 77 154 l 1,6,-1
 77 0 l 1,7,-1
 0 0 l 1,8,-1
 1 348 l 1,0,-1
310 234 m 1,9,-1
 310 318 l 1,10,-1
 194 433 l 1,11,-1
 78 317 l 1,12,-1
 78 233 l 1,13,-1
 310 234 l 1,9,-1
4 661 m 2,14,15
 4 682 4 682 14 703 c 128,-1,16
 24 724 24 724 40 740 c 128,-1,17
 56 756 56 756 76.5 766 c 128,-1,18
 97 776 97 776 119 776 c 0,19,20
 157 776 157 776 188 753 c 2,21,-1
 250 707 l 2,22,23
 261 699 261 699 273 699 c 0,24,25
 287 699 287 699 299 711 c 128,-1,26
 311 723 311 723 311 737 c 2,27,-1
 311 775 l 1,28,-1
 388 775 l 1,29,-1
 388 736 l 2,30,31
 388 714 388 714 378 693.5 c 128,-1,32
 368 673 368 673 351.5 656.5 c 128,-1,33
 335 640 335 640 314.5 630 c 128,-1,34
 294 620 294 620 272 620 c 0,35,36
 234 620 234 620 203 643 c 2,37,-1
 141 689 l 2,38,39
 130 697 130 697 118 697 c 0,40,41
 103 697 103 697 91 684.5 c 128,-1,42
 79 672 79 672 79 658 c 2,43,-1
 79 619 l 1,44,-1
 2 619 l 1,45,-1
 4 661 l 2,14,15
EndSplineSet
Validated: 1
EndChar

StartChar: Adieresis
Encoding: 196 196 132
Width: 461
GlyphClass: 1
Flags: W
HStem: 0 21G<0 77 308 385> 154 79<78 308> 604 98<80.4395 149.561 236.439 305.561>
VStem: 0 77<0 154 233 317> 66 98<618.439 686.046> 222 98<618.439 686.046> 308 77<0 154 234 318>
LayerCount: 2
Fore
SplineSet
222 652 m 132,-1,1
 222 672 222 672 236 686.5 c 132,-1,2
 250 701 250 701 270 702 c 4,3,4
 292 701 292 701 306 686.5 c 132,-1,5
 320 672 320 672 320 652 c 132,-1,6
 320 632 320 632 306 618 c 132,-1,7
 292 604 292 604 272 604 c 4,8,9
 250 604 250 604 236 618 c 132,-1,0
 222 632 222 632 222 652 c 132,-1,1
66 652 m 132,-1,11
 66 672 66 672 80 686.5 c 132,-1,12
 94 701 94 701 114 702 c 4,13,14
 136 701 136 701 150 686.5 c 132,-1,15
 164 672 164 672 164 652 c 132,-1,16
 164 632 164 632 150 618 c 132,-1,17
 136 604 136 604 116 604 c 4,18,19
 94 604 94 604 80 618 c 132,-1,10
 66 632 66 632 66 652 c 132,-1,11
1 348 m 1,20,-1
 193 540 l 1,21,-1
 385 347 l 1,22,-1
 385 0 l 1,23,-1
 308 0 l 1,24,-1
 308 154 l 1,25,-1
 77 154 l 1,26,-1
 77 0 l 1,27,-1
 0 0 l 1,28,-1
 1 348 l 1,20,-1
310 234 m 1,29,-1
 310 318 l 1,30,-1
 194 433 l 1,31,-1
 78 317 l 1,32,-1
 78 233 l 1,33,-1
 310 234 l 1,29,-1
EndSplineSet
Validated: 1
EndChar

StartChar: Aring
Encoding: 197 197 133
Width: 461
GlyphClass: 1
Flags: W
HStem: 0 21G<0 77 308 385> 154 79<78 308> 583 50<196 230.257> 709 46<160.49 226.507>
VStem: 0 77<0 154 233 317> 104 51<636.942 703.971> 235 48<638.469 696.625> 308 77<0 154 234 318>
LayerCount: 2
Fore
SplineSet
194 583 m 128,-1,1
 177 583 177 583 162 590 c 0,2,3
 144 598 144 598 133 609 c 0,4,5
 121 621 121 621 112 638 c 0,6,7
 104 653 104 653 104 668 c 0,8,9
 104 669 104 669 104 670 c 0,10,11
 105 685 105 685 112 701 c 0,12,13
 116 711 116 711 133 729 c 0,14,15
 147 742 147 742 161 748 c 0,16,17
 177 755 177 755 194 755 c 128,-1,18
 211 755 211 755 227 748 c 128,-1,19
 243 741 243 741 255 729 c 0,20,21
 268 715 268 715 275 701 c 0,22,23
 283 685 283 685 283 669 c 128,-1,24
 283 653 283 653 275 638 c 0,25,26
 268 622 268 622 255 609 c 128,-1,27
 242 596 242 596 227 590 c 0,28,0
 211 583 211 583 194 583 c 128,-1,1
196 633 m 1,29,30
 210 633 210 633 223 646 c 0,31,32
 236 658 236 658 235 671 c 256,33,34
 235 685 235 685 223 697 c 0,35,36
 209 709 209 709 195 709 c 0,37,38
 179 709 179 709 167 696 c 0,39,40
 155 682 155 682 155 670 c 0,41,42
 155 655 155 655 167 644 c 128,-1,43
 179 633 179 633 194 631 c 1,44,-1
 196 633 l 1,29,30
1 348 m 1,45,-1
 193 540 l 1,46,-1
 385 347 l 1,47,-1
 385 0 l 1,48,-1
 308 0 l 1,49,-1
 308 154 l 1,50,-1
 77 154 l 1,51,-1
 77 0 l 1,52,-1
 0 0 l 1,53,-1
 1 348 l 1,45,-1
310 234 m 1,54,-1
 310 318 l 1,55,-1
 194 433 l 1,56,-1
 78 317 l 1,57,-1
 78 233 l 1,58,-1
 310 234 l 1,54,-1
EndSplineSet
Validated: 1
EndChar

StartChar: AE
Encoding: 198 198 134
Width: 461
GlyphClass: 1
Flags: W
HStem: 0 77<231 385> 231 77<77 154> 308 77<231 308> 616 77<231 385>
VStem: 0 77<0 231 308 507> 154 154<308 385> 154 77<77 231 385 584>
LayerCount: 2
Fore
SplineSet
0 539 m 1,0,-1
 154 693 l 1,1,-1
 385 693 l 1,2,-1
 385 616 l 1,3,-1
 231 616 l 1,4,-1
 231 385 l 1,5,-1
 308 385 l 1,6,-1
 308 308 l 1,7,-1
 231 308 l 1,8,-1
 231 77 l 1,9,-1
 385 77 l 1,10,-1
 385 0 l 1,11,-1
 154 0 l 1,12,-1
 154 231 l 1,13,-1
 77 231 l 1,14,-1
 77 0 l 1,15,-1
 0 0 l 1,16,-1
 0 539 l 1,0,-1
154 308 m 1,17,-1
 154 584 l 1,18,-1
 77 507 l 1,19,-1
 77 308 l 1,20,-1
 154 308 l 1,17,-1
EndSplineSet
Validated: 1
EndChar

StartChar: Ccedilla
Encoding: 199 199 135
Width: 461
GlyphClass: 1
Flags: W
HStem: -153 38<77 268.484> -77 156<154 246> -77 40<231 268.484> 618 77<103.534 281.466>
VStem: 0 77<105.264 591.466> 154 77<-37 0> 269 39<-114.873 -77.0747> 308 77<105.534 156 541 591.466>
LayerCount: 2
Fore
SplineSet
0 541 m 2,0,1
 0 570 0 570 13 597.5 c 128,-1,2
 26 625 26 625 48 647 c 128,-1,3
 70 669 70 669 97.5 682 c 128,-1,4
 125 695 125 695 154 695 c 2,5,-1
 231 695 l 2,6,7
 260 695 260 695 287.5 682 c 128,-1,8
 315 669 315 669 337 647 c 128,-1,9
 359 625 359 625 372 597.5 c 128,-1,10
 385 570 385 570 385 541 c 1,11,-1
 308 541 l 1,12,13
 308 556 308 556 301.5 569.5 c 128,-1,14
 295 583 295 583 284 594 c 128,-1,15
 273 605 273 605 259.5 611.5 c 128,-1,16
 246 618 246 618 231 618 c 2,17,-1
 154 618 l 2,18,19
 140 618 140 618 126 611.5 c 128,-1,20
 112 605 112 605 101 594 c 128,-1,21
 90 583 90 583 83.5 569.5 c 128,-1,22
 77 556 77 556 77 541 c 2,23,-1
 77 156 l 2,24,25
 77 142 77 142 83.5 128 c 128,-1,26
 90 114 90 114 101 103 c 128,-1,27
 112 92 112 92 126 85.5 c 128,-1,28
 140 79 140 79 154 79 c 2,29,-1
 231 79 l 2,30,31
 246 79 246 79 259.5 85.5 c 128,-1,32
 273 92 273 92 284 103 c 128,-1,33
 295 114 295 114 301.5 128 c 128,-1,34
 308 142 308 142 308 156 c 1,35,-1
 385 156 l 1,36,37
 385 127 385 127 372 99.5 c 128,-1,38
 359 72 359 72 337 50 c 128,-1,39
 315 28 315 28 287.5 15 c 128,-1,40
 260 2 260 2 231 2 c 1,41,-1
 231 -37 l 1,42,-1
 250 -37 l 2,43,44
 272 -37 272 -37 290 -55 c 128,-1,45
 308 -73 308 -73 308 -95 c 256,46,47
 308 -117 308 -117 290 -135 c 128,-1,48
 272 -153 272 -153 250 -153 c 2,49,-1
 77 -153 l 1,50,-1
 77 -115 l 1,51,-1
 250 -115 l 2,52,53
 257 -115 257 -115 263 -109.5 c 128,-1,54
 269 -104 269 -104 269 -96 c 0,55,56
 269 -89 269 -89 263.5 -83 c 128,-1,57
 258 -77 258 -77 250 -77 c 2,58,-1
 154 -77 l 1,59,-1
 154 0 l 1,60,61
 125 0 125 0 97.5 13 c 128,-1,62
 70 26 70 26 48 48 c 128,-1,63
 26 70 26 70 13 97.5 c 128,-1,64
 0 125 0 125 0 154 c 2,65,-1
 0 541 l 2,0,1
EndSplineSet
Validated: 1
EndChar

StartChar: Egrave
Encoding: 200 200 136
Width: 461
GlyphClass: 1
Flags: W
HStem: 0 77<77 385> 231 77<77 308> 462 77<77 385>
VStem: 0 77<77 231 308 462>
CounterMasks: 1 e0
LayerCount: 2
Fore
SplineSet
0 539 m 1,0,-1
 385 539 l 1,1,-1
 385 462 l 1,2,-1
 77 462 l 1,3,-1
 77 308 l 1,4,-1
 308 308 l 1,5,-1
 308 231 l 1,6,-1
 77 231 l 1,7,-1
 77 77 l 1,8,-1
 385 77 l 1,9,-1
 385 0 l 1,10,-1
 0 0 l 1,11,-1
 0 539 l 1,0,-1
177 616 m 1,12,-1
 77 716 l 1,13,-1
 77 770 l 1,14,-1
 131 770 l 1,15,-1
 231 670 l 1,16,-1
 231 616 l 1,17,-1
 177 616 l 1,12,-1
EndSplineSet
Validated: 1
EndChar

StartChar: Eacute
Encoding: 201 201 137
Width: 461
GlyphClass: 1
Flags: W
HStem: 0 77<77 385> 231 77<77 308> 462 77<77 385>
VStem: 0 77<77 231 308 462>
CounterMasks: 1 e0
LayerCount: 2
Fore
SplineSet
0 539 m 1,0,-1
 385 539 l 1,1,-1
 385 462 l 1,2,-1
 77 462 l 1,3,-1
 77 308 l 1,4,-1
 308 308 l 1,5,-1
 308 231 l 1,6,-1
 77 231 l 1,7,-1
 77 77 l 1,8,-1
 385 77 l 1,9,-1
 385 0 l 1,10,-1
 0 0 l 1,11,-1
 0 539 l 1,0,-1
154 670 m 1,12,-1
 254 770 l 1,13,-1
 308 770 l 1,14,-1
 308 716 l 1,15,-1
 208 616 l 1,16,-1
 154 616 l 1,17,-1
 154 670 l 1,12,-1
EndSplineSet
Validated: 1
EndChar

StartChar: Ecircumflex
Encoding: 202 202 138
Width: 461
GlyphClass: 1
Flags: W
HStem: 0 77<77 385> 231 77<77 308> 462 77<77 385>
VStem: 0 77<77 231 308 462>
CounterMasks: 1 e0
LayerCount: 2
Fore
SplineSet
0 539 m 1,0,-1
 385 539 l 1,1,-1
 385 462 l 1,2,-1
 77 462 l 1,3,-1
 77 308 l 1,4,-1
 308 308 l 1,5,-1
 308 231 l 1,6,-1
 77 231 l 1,7,-1
 77 77 l 1,8,-1
 385 77 l 1,9,-1
 385 0 l 1,10,-1
 0 0 l 1,11,-1
 0 539 l 1,0,-1
77 656 m 1,12,-1
 192 771 l 1,13,-1
 307 655 l 1,14,-1
 307 616 l 1,15,-1
 237 616 l 1,16,-1
 192 661 l 1,17,-1
 147 616 l 1,18,-1
 77 616 l 1,19,-1
 77 656 l 1,12,-1
EndSplineSet
Validated: 1
EndChar

StartChar: Edieresis
Encoding: 203 203 139
Width: 461
GlyphClass: 1
Flags: W
HStem: 0 77<77 385> 231 77<77 308> 462 77<77 385> 610 98<79.4395 148.561 235.439 304.561>
VStem: 0 77<77 231 308 462> 65 98<624.439 692.046> 221 98<624.439 692.046>
LayerCount: 2
Fore
SplineSet
221 658 m 132,-1,1
 221 678 221 678 235 692.5 c 132,-1,2
 249 707 249 707 269 708 c 4,3,4
 291 707 291 707 305 692.5 c 132,-1,5
 319 678 319 678 319 658 c 132,-1,6
 319 638 319 638 305 624 c 132,-1,7
 291 610 291 610 271 610 c 4,8,9
 249 610 249 610 235 624 c 132,-1,0
 221 638 221 638 221 658 c 132,-1,1
65 658 m 132,-1,11
 65 678 65 678 79 692.5 c 132,-1,12
 93 707 93 707 113 708 c 4,13,14
 135 707 135 707 149 692.5 c 132,-1,15
 163 678 163 678 163 658 c 132,-1,16
 163 638 163 638 149 624 c 132,-1,17
 135 610 135 610 115 610 c 4,18,19
 93 610 93 610 79 624 c 132,-1,10
 65 638 65 638 65 658 c 132,-1,11
0 539 m 1,20,-1
 385 539 l 1,21,-1
 385 462 l 1,22,-1
 77 462 l 1,23,-1
 77 308 l 1,24,-1
 308 308 l 1,25,-1
 308 231 l 1,26,-1
 77 231 l 1,27,-1
 77 77 l 1,28,-1
 385 77 l 1,29,-1
 385 0 l 1,30,-1
 0 0 l 1,31,-1
 0 539 l 1,20,-1
EndSplineSet
Validated: 1
EndChar

StartChar: Igrave
Encoding: 204 204 140
Width: 461
GlyphClass: 1
Flags: W
HStem: 0 77<77 154 231 308> 462 77<77 154 231 308>
VStem: 77 231<0 77 462 539> 154 77<77 462>
LayerCount: 2
Fore
SplineSet
77 77 m 1,0,-1
 154 77 l 1,1,-1
 154 462 l 1,2,-1
 77 462 l 1,3,-1
 77 539 l 1,4,-1
 308 539 l 1,5,-1
 308 462 l 1,6,-1
 231 462 l 1,7,-1
 231 77 l 1,8,-1
 308 77 l 1,9,-1
 308 0 l 1,10,-1
 77 0 l 1,11,-1
 77 77 l 1,0,-1
177 616 m 1,12,-1
 77 716 l 1,13,-1
 77 770 l 1,14,-1
 131 770 l 1,15,-1
 231 670 l 1,16,-1
 231 616 l 1,17,-1
 177 616 l 1,12,-1
EndSplineSet
Validated: 1
EndChar

StartChar: Iacute
Encoding: 205 205 141
Width: 461
GlyphClass: 1
Flags: W
HStem: 0 77<77 154 231 308> 462 77<77 154 231 308>
VStem: 77 231<0 77 462 539> 154 77<77 462>
LayerCount: 2
Fore
SplineSet
77 77 m 1,0,-1
 154 77 l 1,1,-1
 154 462 l 1,2,-1
 77 462 l 1,3,-1
 77 539 l 1,4,-1
 308 539 l 1,5,-1
 308 462 l 1,6,-1
 231 462 l 1,7,-1
 231 77 l 1,8,-1
 308 77 l 1,9,-1
 308 0 l 1,10,-1
 77 0 l 1,11,-1
 77 77 l 1,0,-1
154 670 m 1,12,-1
 254 770 l 1,13,-1
 308 770 l 1,14,-1
 308 716 l 1,15,-1
 208 616 l 1,16,-1
 154 616 l 1,17,-1
 154 670 l 1,12,-1
EndSplineSet
Validated: 1
EndChar

StartChar: Icircumflex
Encoding: 206 206 142
Width: 461
GlyphClass: 1
Flags: W
HStem: 0 77<77 154 231 308> 462 77<77 154 231 308>
VStem: 77 231<0 77 462 539>
LayerCount: 2
Fore
SplineSet
77 77 m 1,0,-1
 154 77 l 1,1,-1
 154 462 l 1,2,-1
 77 462 l 1,3,-1
 77 539 l 1,4,-1
 308 539 l 1,5,-1
 308 462 l 1,6,-1
 231 462 l 1,7,-1
 231 77 l 1,8,-1
 308 77 l 1,9,-1
 308 0 l 1,10,-1
 77 0 l 1,11,-1
 77 77 l 1,0,-1
77 656 m 1,12,-1
 192 771 l 1,13,-1
 307 655 l 1,14,-1
 307 616 l 1,15,-1
 237 616 l 1,16,-1
 192 661 l 1,17,-1
 147 616 l 1,18,-1
 77 616 l 1,19,-1
 77 656 l 1,12,-1
EndSplineSet
Validated: 1
EndChar

StartChar: Idieresis
Encoding: 207 207 143
Width: 461
GlyphClass: 1
Flags: W
HStem: 0 77<77 154 231 308> 462 77<77 154 231 308> 605 98<80.4395 149.561 236.439 305.561>
VStem: 66 98<619.439 687.046> 77 231<0 77 462 539> 222 98<619.439 687.046>
LayerCount: 2
Fore
SplineSet
222 653 m 132,-1,1
 222 673 222 673 236 687.5 c 132,-1,2
 250 702 250 702 270 703 c 4,3,4
 292 702 292 702 306 687.5 c 132,-1,5
 320 673 320 673 320 653 c 132,-1,6
 320 633 320 633 306 619 c 132,-1,7
 292 605 292 605 272 605 c 4,8,9
 250 605 250 605 236 619 c 132,-1,0
 222 633 222 633 222 653 c 132,-1,1
66 653 m 132,-1,11
 66 673 66 673 80 687.5 c 132,-1,12
 94 702 94 702 114 703 c 4,13,14
 136 702 136 702 150 687.5 c 132,-1,15
 164 673 164 673 164 653 c 132,-1,16
 164 633 164 633 150 619 c 132,-1,17
 136 605 136 605 116 605 c 4,18,19
 94 605 94 605 80 619 c 132,-1,10
 66 633 66 633 66 653 c 132,-1,11
77 77 m 1,20,-1
 154 77 l 1,21,-1
 154 462 l 1,22,-1
 77 462 l 1,23,-1
 77 539 l 1,24,-1
 308 539 l 1,25,-1
 308 462 l 1,26,-1
 231 462 l 1,27,-1
 231 77 l 1,28,-1
 308 77 l 1,29,-1
 308 0 l 1,30,-1
 77 0 l 1,31,-1
 77 77 l 1,20,-1
EndSplineSet
Validated: 1
EndChar

StartChar: Eth
Encoding: 208 208 144
Width: 461
GlyphClass: 1
Flags: W
HStem: 0 77<0 77 154 281.466> 308 77<0 77 154 231> 616 77<0 77 154 281.466>
VStem: 77 77<77 308 385 616> 308 77<103.534 589.466>
CounterMasks: 1 e0
LayerCount: 2
Fore
SplineSet
0 77 m 1,0,-1
 77 77 l 1,1,-1
 77 308 l 1,2,-1
 0 308 l 1,3,-1
 0 385 l 1,4,-1
 77 385 l 1,5,-1
 77 616 l 1,6,-1
 0 616 l 1,7,-1
 0 693 l 1,8,-1
 231 693 l 2,9,10
 260 693 260 693 287.5 680 c 128,-1,11
 315 667 315 667 337 645 c 128,-1,12
 359 623 359 623 372 595.5 c 128,-1,13
 385 568 385 568 385 539 c 2,14,-1
 385 154 l 2,15,16
 385 125 385 125 372 97.5 c 128,-1,17
 359 70 359 70 337 48 c 128,-1,18
 315 26 315 26 287.5 13 c 128,-1,19
 260 0 260 0 231 0 c 2,20,-1
 0 0 l 1,21,-1
 0 77 l 1,0,-1
231 77 m 2,22,23
 246 77 246 77 259.5 83.5 c 128,-1,24
 273 90 273 90 284 101 c 128,-1,25
 295 112 295 112 301.5 126 c 128,-1,26
 308 140 308 140 308 154 c 2,27,-1
 308 539 l 2,28,29
 308 554 308 554 301.5 567.5 c 128,-1,30
 295 581 295 581 284 592 c 128,-1,31
 273 603 273 603 259.5 609.5 c 128,-1,32
 246 616 246 616 231 616 c 2,33,-1
 154 616 l 1,34,-1
 154 385 l 1,35,-1
 231 385 l 1,36,-1
 231 308 l 1,37,-1
 154 308 l 1,38,-1
 154 77 l 1,39,-1
 231 77 l 2,22,23
EndSplineSet
Validated: 1
EndChar

StartChar: Ntilde
Encoding: 209 209 145
Width: 461
GlyphClass: 1
Flags: W
HStem: 0 21G<0 77 296.093 385> 617 79<229.529 304.327> 694 79<82.0825 157.471>
VStem: 0 77<0 388 616 688.844> 308 77<151 539 700.192 772>
LayerCount: 2
Fore
SplineSet
0 539 m 1,0,-1
 77 539 l 1,1,-1
 308 151 l 1,2,-1
 308 539 l 1,3,-1
 385 539 l 1,4,-1
 385 0 l 1,5,-1
 308 0 l 1,6,-1
 77 388 l 1,7,-1
 77 0 l 1,8,-1
 0 0 l 1,9,-1
 0 539 l 1,0,-1
2 658 m 2,10,11
 2 679 2 679 12 700 c 128,-1,12
 22 721 22 721 38 737 c 128,-1,13
 54 753 54 753 74.5 763 c 128,-1,14
 95 773 95 773 117 773 c 0,15,16
 155 773 155 773 186 750 c 2,17,-1
 248 704 l 2,18,19
 259 696 259 696 271 696 c 0,20,21
 285 696 285 696 297 708 c 128,-1,22
 309 720 309 720 309 734 c 2,23,-1
 309 772 l 1,24,-1
 386 772 l 1,25,-1
 386 733 l 2,26,27
 386 711 386 711 376 690.5 c 128,-1,28
 366 670 366 670 349.5 653.5 c 128,-1,29
 333 637 333 637 312.5 627 c 128,-1,30
 292 617 292 617 270 617 c 0,31,32
 232 617 232 617 201 640 c 2,33,-1
 139 686 l 2,34,35
 128 694 128 694 116 694 c 0,36,37
 101 694 101 694 89 681.5 c 128,-1,38
 77 669 77 669 77 655 c 2,39,-1
 77 616 l 1,40,-1
 0 616 l 1,41,-1
 2 658 l 2,10,11
EndSplineSet
Validated: 1
EndChar

StartChar: Ograve
Encoding: 210 210 146
Width: 461
GlyphClass: 1
Flags: W
HStem: 0 77<103.534 281.466> 462 77<103.534 281.466>
VStem: 0 77<103.534 435.466> 308 77<103.534 435.466>
LayerCount: 2
Fore
SplineSet
0 385 m 2,0,1
 0 414 0 414 13 441.5 c 128,-1,2
 26 469 26 469 48 491 c 128,-1,3
 70 513 70 513 97.5 526 c 128,-1,4
 125 539 125 539 154 539 c 2,5,-1
 231 539 l 2,6,7
 260 539 260 539 287.5 526 c 128,-1,8
 315 513 315 513 337 491 c 128,-1,9
 359 469 359 469 372 441.5 c 128,-1,10
 385 414 385 414 385 385 c 2,11,-1
 385 154 l 2,12,13
 385 125 385 125 372 97.5 c 128,-1,14
 359 70 359 70 337 48 c 128,-1,15
 315 26 315 26 287.5 13 c 128,-1,16
 260 0 260 0 231 0 c 2,17,-1
 154 0 l 2,18,19
 125 0 125 0 97.5 13 c 128,-1,20
 70 26 70 26 48 48 c 128,-1,21
 26 70 26 70 13 97.5 c 128,-1,22
 0 125 0 125 0 154 c 2,23,-1
 0 385 l 2,0,1
231 77 m 2,24,25
 246 77 246 77 259.5 83.5 c 128,-1,26
 273 90 273 90 284 101 c 128,-1,27
 295 112 295 112 301.5 126 c 128,-1,28
 308 140 308 140 308 154 c 2,29,-1
 308 385 l 2,30,31
 308 400 308 400 301.5 413.5 c 128,-1,32
 295 427 295 427 284 438 c 128,-1,33
 273 449 273 449 259.5 455.5 c 128,-1,34
 246 462 246 462 231 462 c 2,35,-1
 154 462 l 2,36,37
 140 462 140 462 126 455.5 c 128,-1,38
 112 449 112 449 101 438 c 128,-1,39
 90 427 90 427 83.5 413.5 c 128,-1,40
 77 400 77 400 77 385 c 2,41,-1
 77 154 l 2,42,43
 77 140 77 140 83.5 126 c 128,-1,44
 90 112 90 112 101 101 c 128,-1,45
 112 90 112 90 126 83.5 c 128,-1,46
 140 77 140 77 154 77 c 2,47,-1
 231 77 l 2,24,25
177 616 m 1,48,-1
 77 716 l 1,49,-1
 77 770 l 1,50,-1
 131 770 l 1,51,-1
 231 670 l 1,52,-1
 231 616 l 1,53,-1
 177 616 l 1,48,-1
EndSplineSet
Validated: 1
EndChar

StartChar: Oacute
Encoding: 211 211 147
Width: 461
GlyphClass: 1
Flags: W
HStem: 0 77<103.534 281.466> 462 77<103.534 281.466>
VStem: 0 77<103.534 435.466> 308 77<103.534 435.466>
LayerCount: 2
Fore
SplineSet
0 385 m 2,0,1
 0 414 0 414 13 441.5 c 128,-1,2
 26 469 26 469 48 491 c 128,-1,3
 70 513 70 513 97.5 526 c 128,-1,4
 125 539 125 539 154 539 c 2,5,-1
 231 539 l 2,6,7
 260 539 260 539 287.5 526 c 128,-1,8
 315 513 315 513 337 491 c 128,-1,9
 359 469 359 469 372 441.5 c 128,-1,10
 385 414 385 414 385 385 c 2,11,-1
 385 154 l 2,12,13
 385 125 385 125 372 97.5 c 128,-1,14
 359 70 359 70 337 48 c 128,-1,15
 315 26 315 26 287.5 13 c 128,-1,16
 260 0 260 0 231 0 c 2,17,-1
 154 0 l 2,18,19
 125 0 125 0 97.5 13 c 128,-1,20
 70 26 70 26 48 48 c 128,-1,21
 26 70 26 70 13 97.5 c 128,-1,22
 0 125 0 125 0 154 c 2,23,-1
 0 385 l 2,0,1
231 77 m 2,24,25
 246 77 246 77 259.5 83.5 c 128,-1,26
 273 90 273 90 284 101 c 128,-1,27
 295 112 295 112 301.5 126 c 128,-1,28
 308 140 308 140 308 154 c 2,29,-1
 308 385 l 2,30,31
 308 400 308 400 301.5 413.5 c 128,-1,32
 295 427 295 427 284 438 c 128,-1,33
 273 449 273 449 259.5 455.5 c 128,-1,34
 246 462 246 462 231 462 c 2,35,-1
 154 462 l 2,36,37
 140 462 140 462 126 455.5 c 128,-1,38
 112 449 112 449 101 438 c 128,-1,39
 90 427 90 427 83.5 413.5 c 128,-1,40
 77 400 77 400 77 385 c 2,41,-1
 77 154 l 2,42,43
 77 140 77 140 83.5 126 c 128,-1,44
 90 112 90 112 101 101 c 128,-1,45
 112 90 112 90 126 83.5 c 128,-1,46
 140 77 140 77 154 77 c 2,47,-1
 231 77 l 2,24,25
154 670 m 1,48,-1
 254 770 l 1,49,-1
 308 770 l 1,50,-1
 308 716 l 1,51,-1
 208 616 l 1,52,-1
 154 616 l 1,53,-1
 154 670 l 1,48,-1
EndSplineSet
Validated: 1
EndChar

StartChar: Ocircumflex
Encoding: 212 212 148
Width: 461
GlyphClass: 1
Flags: W
HStem: 0 77<103.534 281.466> 462 77<103.534 281.466>
VStem: 0 77<103.534 435.466> 308 77<103.534 435.466>
LayerCount: 2
Fore
SplineSet
0 385 m 2,0,1
 0 414 0 414 13 441.5 c 128,-1,2
 26 469 26 469 48 491 c 128,-1,3
 70 513 70 513 97.5 526 c 128,-1,4
 125 539 125 539 154 539 c 2,5,-1
 231 539 l 2,6,7
 260 539 260 539 287.5 526 c 128,-1,8
 315 513 315 513 337 491 c 128,-1,9
 359 469 359 469 372 441.5 c 128,-1,10
 385 414 385 414 385 385 c 2,11,-1
 385 154 l 2,12,13
 385 125 385 125 372 97.5 c 128,-1,14
 359 70 359 70 337 48 c 128,-1,15
 315 26 315 26 287.5 13 c 128,-1,16
 260 0 260 0 231 0 c 2,17,-1
 154 0 l 2,18,19
 125 0 125 0 97.5 13 c 128,-1,20
 70 26 70 26 48 48 c 128,-1,21
 26 70 26 70 13 97.5 c 128,-1,22
 0 125 0 125 0 154 c 2,23,-1
 0 385 l 2,0,1
231 77 m 2,24,25
 246 77 246 77 259.5 83.5 c 128,-1,26
 273 90 273 90 284 101 c 128,-1,27
 295 112 295 112 301.5 126 c 128,-1,28
 308 140 308 140 308 154 c 2,29,-1
 308 385 l 2,30,31
 308 400 308 400 301.5 413.5 c 128,-1,32
 295 427 295 427 284 438 c 128,-1,33
 273 449 273 449 259.5 455.5 c 128,-1,34
 246 462 246 462 231 462 c 2,35,-1
 154 462 l 2,36,37
 140 462 140 462 126 455.5 c 128,-1,38
 112 449 112 449 101 438 c 128,-1,39
 90 427 90 427 83.5 413.5 c 128,-1,40
 77 400 77 400 77 385 c 2,41,-1
 77 154 l 2,42,43
 77 140 77 140 83.5 126 c 128,-1,44
 90 112 90 112 101 101 c 128,-1,45
 112 90 112 90 126 83.5 c 128,-1,46
 140 77 140 77 154 77 c 2,47,-1
 231 77 l 2,24,25
77 656 m 1,48,-1
 192 771 l 1,49,-1
 307 655 l 1,50,-1
 307 616 l 1,51,-1
 237 616 l 1,52,-1
 192 661 l 1,53,-1
 147 616 l 1,54,-1
 77 616 l 1,55,-1
 77 656 l 1,48,-1
EndSplineSet
Validated: 1
EndChar

StartChar: Otilde
Encoding: 213 213 149
Width: 461
GlyphClass: 1
Flags: W
HStem: 0 77<103.534 281.466> 462 77<103.534 281.466> 617 79<229.529 304.327> 694 79<82.0825 157.471>
VStem: 0 77<103.534 435.466 616 688.844> 308 77<103.534 435.466 700.192 772>
LayerCount: 2
Fore
SplineSet
0 385 m 2,0,1
 0 414 0 414 13 441.5 c 128,-1,2
 26 469 26 469 48 491 c 128,-1,3
 70 513 70 513 97.5 526 c 128,-1,4
 125 539 125 539 154 539 c 2,5,-1
 231 539 l 2,6,7
 260 539 260 539 287.5 526 c 128,-1,8
 315 513 315 513 337 491 c 128,-1,9
 359 469 359 469 372 441.5 c 128,-1,10
 385 414 385 414 385 385 c 2,11,-1
 385 154 l 2,12,13
 385 125 385 125 372 97.5 c 128,-1,14
 359 70 359 70 337 48 c 128,-1,15
 315 26 315 26 287.5 13 c 128,-1,16
 260 0 260 0 231 0 c 2,17,-1
 154 0 l 2,18,19
 125 0 125 0 97.5 13 c 128,-1,20
 70 26 70 26 48 48 c 128,-1,21
 26 70 26 70 13 97.5 c 128,-1,22
 0 125 0 125 0 154 c 2,23,-1
 0 385 l 2,0,1
231 77 m 2,24,25
 246 77 246 77 259.5 83.5 c 128,-1,26
 273 90 273 90 284 101 c 128,-1,27
 295 112 295 112 301.5 126 c 128,-1,28
 308 140 308 140 308 154 c 2,29,-1
 308 385 l 2,30,31
 308 400 308 400 301.5 413.5 c 128,-1,32
 295 427 295 427 284 438 c 128,-1,33
 273 449 273 449 259.5 455.5 c 128,-1,34
 246 462 246 462 231 462 c 2,35,-1
 154 462 l 2,36,37
 140 462 140 462 126 455.5 c 128,-1,38
 112 449 112 449 101 438 c 128,-1,39
 90 427 90 427 83.5 413.5 c 128,-1,40
 77 400 77 400 77 385 c 2,41,-1
 77 154 l 2,42,43
 77 140 77 140 83.5 126 c 128,-1,44
 90 112 90 112 101 101 c 128,-1,45
 112 90 112 90 126 83.5 c 128,-1,46
 140 77 140 77 154 77 c 2,47,-1
 231 77 l 2,24,25
2 658 m 2,48,49
 2 679 2 679 12 700 c 128,-1,50
 22 721 22 721 38 737 c 128,-1,51
 54 753 54 753 74.5 763 c 128,-1,52
 95 773 95 773 117 773 c 0,53,54
 155 773 155 773 186 750 c 2,55,-1
 248 704 l 2,56,57
 259 696 259 696 271 696 c 0,58,59
 285 696 285 696 297 708 c 128,-1,60
 309 720 309 720 309 734 c 2,61,-1
 309 772 l 1,62,-1
 386 772 l 1,63,-1
 386 733 l 2,64,65
 386 711 386 711 376 690.5 c 128,-1,66
 366 670 366 670 349.5 653.5 c 128,-1,67
 333 637 333 637 312.5 627 c 128,-1,68
 292 617 292 617 270 617 c 0,69,70
 232 617 232 617 201 640 c 2,71,-1
 139 686 l 2,72,73
 128 694 128 694 116 694 c 0,74,75
 101 694 101 694 89 681.5 c 128,-1,76
 77 669 77 669 77 655 c 2,77,-1
 77 616 l 1,78,-1
 0 616 l 1,79,-1
 2 658 l 2,48,49
EndSplineSet
Validated: 1
EndChar

StartChar: Odieresis
Encoding: 214 214 150
Width: 461
GlyphClass: 1
Flags: W
HStem: 0 77<103.534 281.466> 462 77<103.534 281.466> 606 98<78.4395 147.561 234.439 303.561>
VStem: 0 77<103.534 435.466> 64 98<620.439 688.046> 220 98<620.439 688.046> 308 77<103.534 435.466>
LayerCount: 2
Fore
SplineSet
220 654 m 132,-1,1
 220 674 220 674 234 688.5 c 132,-1,2
 248 703 248 703 268 704 c 4,3,4
 290 703 290 703 304 688.5 c 132,-1,5
 318 674 318 674 318 654 c 132,-1,6
 318 634 318 634 304 620 c 132,-1,7
 290 606 290 606 270 606 c 4,8,9
 248 606 248 606 234 620 c 132,-1,0
 220 634 220 634 220 654 c 132,-1,1
64 654 m 132,-1,11
 64 674 64 674 78 688.5 c 132,-1,12
 92 703 92 703 112 704 c 4,13,14
 134 703 134 703 148 688.5 c 132,-1,15
 162 674 162 674 162 654 c 132,-1,16
 162 634 162 634 148 620 c 132,-1,17
 134 606 134 606 114 606 c 4,18,19
 92 606 92 606 78 620 c 132,-1,10
 64 634 64 634 64 654 c 132,-1,11
0 385 m 2,20,21
 0 414 0 414 13 441.5 c 128,-1,22
 26 469 26 469 48 491 c 128,-1,23
 70 513 70 513 97.5 526 c 128,-1,24
 125 539 125 539 154 539 c 2,25,-1
 231 539 l 2,26,27
 260 539 260 539 287.5 526 c 128,-1,28
 315 513 315 513 337 491 c 128,-1,29
 359 469 359 469 372 441.5 c 128,-1,30
 385 414 385 414 385 385 c 2,31,-1
 385 154 l 2,32,33
 385 125 385 125 372 97.5 c 128,-1,34
 359 70 359 70 337 48 c 128,-1,35
 315 26 315 26 287.5 13 c 128,-1,36
 260 0 260 0 231 0 c 2,37,-1
 154 0 l 2,38,39
 125 0 125 0 97.5 13 c 128,-1,40
 70 26 70 26 48 48 c 128,-1,41
 26 70 26 70 13 97.5 c 128,-1,42
 0 125 0 125 0 154 c 2,43,-1
 0 385 l 2,20,21
231 77 m 2,44,45
 246 77 246 77 259.5 83.5 c 128,-1,46
 273 90 273 90 284 101 c 128,-1,47
 295 112 295 112 301.5 126 c 128,-1,48
 308 140 308 140 308 154 c 2,49,-1
 308 385 l 2,50,51
 308 400 308 400 301.5 413.5 c 128,-1,52
 295 427 295 427 284 438 c 128,-1,53
 273 449 273 449 259.5 455.5 c 128,-1,54
 246 462 246 462 231 462 c 2,55,-1
 154 462 l 2,56,57
 140 462 140 462 126 455.5 c 128,-1,58
 112 449 112 449 101 438 c 128,-1,59
 90 427 90 427 83.5 413.5 c 128,-1,60
 77 400 77 400 77 385 c 2,61,-1
 77 154 l 2,62,63
 77 140 77 140 83.5 126 c 128,-1,64
 90 112 90 112 101 101 c 128,-1,65
 112 90 112 90 126 83.5 c 128,-1,66
 140 77 140 77 154 77 c 2,67,-1
 231 77 l 2,44,45
EndSplineSet
Validated: 1
EndChar

StartChar: multiply
Encoding: 215 215 151
Width: 461
GlyphClass: 1
Flags: W
HStem: 441 20G<34 74 310 350>
LayerCount: 2
Fore
SplineSet
0 131 m 1,0,-1
 138 269 l 1,1,-1
 0 407 l 1,2,-1
 54 461 l 1,3,-1
 192 323 l 1,4,-1
 330 461 l 1,5,-1
 384 407 l 1,6,-1
 246 269 l 1,7,-1
 384 131 l 1,8,-1
 330 77 l 1,9,-1
 192 215 l 1,10,-1
 54 77 l 1,11,-1
 0 131 l 1,0,-1
EndSplineSet
Validated: 1
EndChar

StartChar: Oslash
Encoding: 216 216 152
Width: 461
GlyphClass: 1
Flags: W
HStem: 0 77<142 281.466> 616 77<103.534 243>
VStem: 0 77<144.674 589.466> 308 77<103.534 548.326>
LayerCount: 2
Fore
SplineSet
0 539 m 2,0,1
 0 568 0 568 13 595.5 c 128,-1,2
 26 623 26 623 48 645 c 128,-1,3
 70 667 70 667 97.5 680 c 128,-1,4
 125 693 125 693 154 693 c 2,5,-1
 231 693 l 2,6,7
 248 693 248 693 268 688 c 1,8,-1
 297 770 l 1,9,-1
 385 770 l 1,10,-1
 342 646 l 1,11,12
 362 625 362 625 373.5 597 c 128,-1,13
 385 569 385 569 385 539 c 2,14,-1
 385 154 l 2,15,16
 385 125 385 125 372 97.5 c 128,-1,17
 359 70 359 70 337 48 c 128,-1,18
 315 26 315 26 287.5 13 c 128,-1,19
 260 0 260 0 231 0 c 2,20,-1
 154 0 l 2,21,22
 137 0 137 0 117 5 c 1,23,-1
 88 -77 l 1,24,-1
 0 -77 l 1,25,-1
 43 47 l 1,26,27
 23 68 23 68 11.5 96 c 128,-1,28
 0 124 0 124 0 154 c 2,29,-1
 0 539 l 2,0,1
77 154 m 2,30,31
 77 151 77 151 77.5 148.5 c 128,-1,32
 78 146 78 146 78 144 c 1,33,-1
 243 615 l 1,34,35
 239 616 239 616 231 616 c 2,36,-1
 154 616 l 2,37,38
 140 616 140 616 126 609.5 c 128,-1,39
 112 603 112 603 101 592 c 128,-1,40
 90 581 90 581 83.5 567.5 c 128,-1,41
 77 554 77 554 77 539 c 2,42,-1
 77 154 l 2,30,31
308 539 m 2,43,44
 308 542 308 542 307.5 544.5 c 128,-1,45
 307 547 307 547 307 549 c 1,46,-1
 142 78 l 1,47,48
 146 77 146 77 154 77 c 2,49,-1
 231 77 l 2,50,51
 246 77 246 77 259.5 83.5 c 128,-1,52
 273 90 273 90 284 101 c 128,-1,53
 295 112 295 112 301.5 126 c 128,-1,54
 308 140 308 140 308 154 c 2,55,-1
 308 539 l 2,43,44
EndSplineSet
Validated: 1
EndChar

StartChar: Ugrave
Encoding: 217 217 153
Width: 461
GlyphClass: 1
Flags: W
HStem: 0 77<103.534 281.466>
VStem: 0 77<103.534 539> 308 77<103.534 539>
LayerCount: 2
Fore
SplineSet
0 539 m 1,0,-1
 77 539 l 1,1,-1
 77 154 l 2,2,3
 77 140 77 140 83.5 126 c 128,-1,4
 90 112 90 112 101 101 c 128,-1,5
 112 90 112 90 126 83.5 c 128,-1,6
 140 77 140 77 154 77 c 2,7,-1
 231 77 l 2,8,9
 246 77 246 77 259.5 83.5 c 128,-1,10
 273 90 273 90 284 101 c 128,-1,11
 295 112 295 112 301.5 126 c 128,-1,12
 308 140 308 140 308 154 c 2,13,-1
 308 539 l 1,14,-1
 385 539 l 1,15,-1
 385 154 l 2,16,17
 385 125 385 125 372 97.5 c 128,-1,18
 359 70 359 70 337 48 c 128,-1,19
 315 26 315 26 287.5 13 c 128,-1,20
 260 0 260 0 231 0 c 2,21,-1
 154 0 l 2,22,23
 125 0 125 0 97.5 13 c 128,-1,24
 70 26 70 26 48 48 c 128,-1,25
 26 70 26 70 13 97.5 c 128,-1,26
 0 125 0 125 0 154 c 2,27,-1
 0 539 l 1,0,-1
177 616 m 1,28,-1
 77 716 l 1,29,-1
 77 770 l 1,30,-1
 131 770 l 1,31,-1
 231 670 l 1,32,-1
 231 616 l 1,33,-1
 177 616 l 1,28,-1
EndSplineSet
Validated: 1
EndChar

StartChar: Uacute
Encoding: 218 218 154
Width: 461
GlyphClass: 1
Flags: W
HStem: 0 77<103.534 281.466>
VStem: 0 77<103.534 539> 308 77<103.534 539>
LayerCount: 2
Fore
SplineSet
0 539 m 1,0,-1
 77 539 l 1,1,-1
 77 154 l 2,2,3
 77 140 77 140 83.5 126 c 128,-1,4
 90 112 90 112 101 101 c 128,-1,5
 112 90 112 90 126 83.5 c 128,-1,6
 140 77 140 77 154 77 c 2,7,-1
 231 77 l 2,8,9
 246 77 246 77 259.5 83.5 c 128,-1,10
 273 90 273 90 284 101 c 128,-1,11
 295 112 295 112 301.5 126 c 128,-1,12
 308 140 308 140 308 154 c 2,13,-1
 308 539 l 1,14,-1
 385 539 l 1,15,-1
 385 154 l 2,16,17
 385 125 385 125 372 97.5 c 128,-1,18
 359 70 359 70 337 48 c 128,-1,19
 315 26 315 26 287.5 13 c 128,-1,20
 260 0 260 0 231 0 c 2,21,-1
 154 0 l 2,22,23
 125 0 125 0 97.5 13 c 128,-1,24
 70 26 70 26 48 48 c 128,-1,25
 26 70 26 70 13 97.5 c 128,-1,26
 0 125 0 125 0 154 c 2,27,-1
 0 539 l 1,0,-1
154 670 m 1,28,-1
 254 770 l 1,29,-1
 308 770 l 1,30,-1
 308 716 l 1,31,-1
 208 616 l 1,32,-1
 154 616 l 1,33,-1
 154 670 l 1,28,-1
EndSplineSet
Validated: 1
EndChar

StartChar: Ucircumflex
Encoding: 219 219 155
Width: 461
GlyphClass: 1
Flags: W
HStem: 0 77<103.534 281.466>
VStem: 0 77<103.534 539> 308 77<103.534 539>
LayerCount: 2
Fore
SplineSet
0 539 m 1,0,-1
 77 539 l 1,1,-1
 77 154 l 2,2,3
 77 140 77 140 83.5 126 c 128,-1,4
 90 112 90 112 101 101 c 128,-1,5
 112 90 112 90 126 83.5 c 128,-1,6
 140 77 140 77 154 77 c 2,7,-1
 231 77 l 2,8,9
 246 77 246 77 259.5 83.5 c 128,-1,10
 273 90 273 90 284 101 c 128,-1,11
 295 112 295 112 301.5 126 c 128,-1,12
 308 140 308 140 308 154 c 2,13,-1
 308 539 l 1,14,-1
 385 539 l 1,15,-1
 385 154 l 2,16,17
 385 125 385 125 372 97.5 c 128,-1,18
 359 70 359 70 337 48 c 128,-1,19
 315 26 315 26 287.5 13 c 128,-1,20
 260 0 260 0 231 0 c 2,21,-1
 154 0 l 2,22,23
 125 0 125 0 97.5 13 c 128,-1,24
 70 26 70 26 48 48 c 128,-1,25
 26 70 26 70 13 97.5 c 128,-1,26
 0 125 0 125 0 154 c 2,27,-1
 0 539 l 1,0,-1
77 656 m 1,28,-1
 192 771 l 1,29,-1
 307 655 l 1,30,-1
 307 616 l 1,31,-1
 237 616 l 1,32,-1
 192 661 l 1,33,-1
 147 616 l 1,34,-1
 77 616 l 1,35,-1
 77 656 l 1,28,-1
EndSplineSet
Validated: 1
EndChar

StartChar: Udieresis
Encoding: 220 220 156
Width: 461
GlyphClass: 1
Flags: W
HStem: 0 77<103.534 281.466> 606 98<80.4395 149.561 236.439 305.561>
VStem: 0 77<103.534 539> 66 98<620.439 688.046> 222 98<620.439 688.046> 308 77<103.534 539>
LayerCount: 2
Fore
SplineSet
222 654 m 132,-1,1
 222 674 222 674 236 688.5 c 132,-1,2
 250 703 250 703 270 704 c 4,3,4
 292 703 292 703 306 688.5 c 132,-1,5
 320 674 320 674 320 654 c 132,-1,6
 320 634 320 634 306 620 c 132,-1,7
 292 606 292 606 272 606 c 4,8,9
 250 606 250 606 236 620 c 132,-1,0
 222 634 222 634 222 654 c 132,-1,1
66 654 m 132,-1,11
 66 674 66 674 80 688.5 c 132,-1,12
 94 703 94 703 114 704 c 4,13,14
 136 703 136 703 150 688.5 c 132,-1,15
 164 674 164 674 164 654 c 132,-1,16
 164 634 164 634 150 620 c 132,-1,17
 136 606 136 606 116 606 c 4,18,19
 94 606 94 606 80 620 c 132,-1,10
 66 634 66 634 66 654 c 132,-1,11
0 539 m 1,20,-1
 77 539 l 1,21,-1
 77 154 l 2,22,23
 77 140 77 140 83.5 126 c 128,-1,24
 90 112 90 112 101 101 c 128,-1,25
 112 90 112 90 126 83.5 c 128,-1,26
 140 77 140 77 154 77 c 2,27,-1
 231 77 l 2,28,29
 246 77 246 77 259.5 83.5 c 128,-1,30
 273 90 273 90 284 101 c 128,-1,31
 295 112 295 112 301.5 126 c 128,-1,32
 308 140 308 140 308 154 c 2,33,-1
 308 539 l 1,34,-1
 385 539 l 1,35,-1
 385 154 l 2,36,37
 385 125 385 125 372 97.5 c 128,-1,38
 359 70 359 70 337 48 c 128,-1,39
 315 26 315 26 287.5 13 c 128,-1,40
 260 0 260 0 231 0 c 2,41,-1
 154 0 l 2,42,43
 125 0 125 0 97.5 13 c 128,-1,44
 70 26 70 26 48 48 c 128,-1,45
 26 70 26 70 13 97.5 c 128,-1,46
 0 125 0 125 0 154 c 2,47,-1
 0 539 l 1,20,-1
EndSplineSet
Validated: 1
EndChar

StartChar: Yacute
Encoding: 221 221 157
Width: 461
GlyphClass: 1
Flags: W
HStem: 0 21G<153.935 231>
VStem: 153 78<0 308>
LayerCount: 2
Fore
SplineSet
153 308 m 1,0,-1
 -1 539 l 1,1,-1
 92 539 l 1,2,-1
 192 389 l 1,3,-1
 292 539 l 1,4,-1
 385 539 l 1,5,-1
 231 308 l 1,6,-1
 231 0 l 1,7,-1
 154 0 l 1,8,-1
 153 308 l 1,0,-1
153 670 m 1,9,-1
 253 770 l 1,10,-1
 307 770 l 1,11,-1
 307 716 l 1,12,-1
 207 616 l 1,13,-1
 153 616 l 1,14,-1
 153 670 l 1,9,-1
EndSplineSet
Validated: 1
EndChar

StartChar: Thorn
Encoding: 222 222 158
Width: 461
GlyphClass: 1
Flags: W
HStem: 0 21G<0 77> 231 77<77 281.466> 539 77<77 281.466> 673 20G<0 77>
VStem: 0 77<0 231 308 539 616 693> 308 77<334.534 512.466>
LayerCount: 2
Fore
SplineSet
0 693 m 1,0,-1
 77 693 l 1,1,-1
 77 616 l 1,2,-1
 231 616 l 2,3,4
 260 616 260 616 287.5 603 c 128,-1,5
 315 590 315 590 337 568 c 128,-1,6
 359 546 359 546 372 518.5 c 128,-1,7
 385 491 385 491 385 462 c 2,8,-1
 385 385 l 2,9,10
 385 356 385 356 372 328.5 c 128,-1,11
 359 301 359 301 337 279 c 128,-1,12
 315 257 315 257 287.5 244 c 128,-1,13
 260 231 260 231 231 231 c 2,14,-1
 77 231 l 1,15,-1
 77 0 l 1,16,-1
 0 0 l 1,17,-1
 0 693 l 1,0,-1
231 308 m 2,18,19
 246 308 246 308 259.5 314.5 c 128,-1,20
 273 321 273 321 284 332 c 128,-1,21
 295 343 295 343 301.5 357 c 128,-1,22
 308 371 308 371 308 385 c 2,23,-1
 308 462 l 2,24,25
 308 477 308 477 301.5 490.5 c 128,-1,26
 295 504 295 504 284 515 c 128,-1,27
 273 526 273 526 259.5 532.5 c 128,-1,28
 246 539 246 539 231 539 c 2,29,-1
 77 539 l 1,30,-1
 77 308 l 1,31,-1
 231 308 l 2,18,19
EndSplineSet
Validated: 1
EndChar

StartChar: germandbls
Encoding: 223 223 159
Width: 461
GlyphClass: 1
Flags: W
HStem: 0 77<156 283.466> 616 77<103.311 204.691>
VStem: 0 77<0 589.466> 155 77<331.625 439.719> 231 77<484.281 589.691> 310 77<103.311 207.375>
LayerCount: 2
Fore
SplineSet
0 539 m 2,0,1
 0 568 0 568 13 595.5 c 128,-1,2
 26 623 26 623 48 645 c 128,-1,3
 70 667 70 667 97.5 680 c 128,-1,4
 125 693 125 693 154 693 c 256,5,6
 183 693 183 693 210.5 680 c 128,-1,7
 238 667 238 667 260 645 c 128,-1,8
 282 623 282 623 295 595.5 c 128,-1,9
 308 568 308 568 308 539 c 0,10,11
 308 527 308 527 304.5 515 c 128,-1,12
 301 503 301 503 293 493 c 2,13,-1
 247 431 l 2,14,15
 232 411 232 411 232 385 c 0,16,17
 232 367 232 367 240.5 350.5 c 128,-1,18
 249 334 249 334 263 323 c 2,19,-1
 325 277 l 2,20,21
 354 256 354 256 370.5 223 c 128,-1,22
 387 190 387 190 387 154 c 0,23,24
 387 125 387 125 374 97.5 c 128,-1,25
 361 70 361 70 339 48 c 128,-1,26
 317 26 317 26 289.5 13 c 128,-1,27
 262 0 262 0 233 0 c 2,28,-1
 156 0 l 1,29,-1
 156 77 l 1,30,-1
 233 77 l 2,31,32
 248 77 248 77 261.5 83.5 c 128,-1,33
 275 90 275 90 286 101 c 128,-1,34
 297 112 297 112 303.5 126 c 128,-1,35
 310 140 310 140 310 154 c 0,36,37
 310 172 310 172 301.5 188.5 c 128,-1,38
 293 205 293 205 279 216 c 2,39,-1
 217 262 l 2,40,41
 188 283 188 283 171.5 316 c 128,-1,42
 155 349 155 349 155 385 c 0,43,44
 155 411 155 411 170 431 c 2,45,-1
 216 493 l 2,46,47
 231 512 231 512 231 539 c 0,48,49
 231 554 231 554 224.5 567.5 c 128,-1,50
 218 581 218 581 207 592 c 128,-1,51
 196 603 196 603 182.5 609.5 c 128,-1,52
 169 616 169 616 154 616 c 0,53,54
 140 616 140 616 126 609.5 c 128,-1,55
 112 603 112 603 101 592 c 128,-1,56
 90 581 90 581 83.5 567.5 c 128,-1,57
 77 554 77 554 77 539 c 2,58,-1
 77 0 l 1,59,-1
 0 0 l 1,60,-1
 0 539 l 2,0,1
EndSplineSet
Validated: 1
EndChar

StartChar: agrave
Encoding: 224 224 160
Width: 461
GlyphClass: 1
Flags: W
HStem: 0 77<99.625 308> 231 77<103.534 308> 385 77<77 281.466> 673 20G<77 151>
VStem: 0 77<99.373 204.691> 308 77<77 231 308 358.466>
LayerCount: 2
Fore
SplineSet
154 0 m 6,0,1
 125 0 125 0 96 10.5 c 132,-1,2
 67 21 67 21 45 43 c 132,-1,3
 23 65 23 65 11.5 95 c 132,-1,4
 0 125 0 125 0 154 c 260,5,6
 0 183 0 183 13 210.5 c 132,-1,7
 26 238 26 238 48 260 c 132,-1,8
 70 282 70 282 97.5 295 c 132,-1,9
 125 308 125 308 154 308 c 6,10,-1
 308 308 l 5,11,12
 308 323 308 323 301.5 336.5 c 132,-1,13
 295 350 295 350 284 361 c 132,-1,14
 273 372 273 372 259.5 378.5 c 132,-1,15
 246 385 246 385 231 385 c 6,16,-1
 77 385 l 5,17,-1
 77 462 l 5,18,-1
 231 462 l 6,19,20
 260 462 260 462 287.5 449 c 132,-1,21
 315 436 315 436 337 414 c 132,-1,22
 359 392 359 392 372 364.5 c 132,-1,23
 385 337 385 337 385 308 c 6,24,-1
 385 0 l 5,25,-1
 154 0 l 6,0,1
308 231 m 5,26,-1
 154 231 l 6,27,28
 140 231 140 231 126 224.5 c 132,-1,29
 112 218 112 218 101 207 c 132,-1,30
 90 196 90 196 83.5 182.5 c 132,-1,31
 77 169 77 169 77 153.5 c 132,-1,32
 77 138 77 138 82 125 c 4,33,34
 87 113 87 113 98 100 c 4,35,36
 106 90 106 90 124 81 c 4,37,38
 134 76 134 76 154 77 c 6,39,-1
 308 77 l 5,40,-1
 308 231 l 5,26,-1
177 539 m 1,41,-1
 77 639 l 1,42,-1
 77 693 l 1,43,-1
 131 693 l 1,44,-1
 231 593 l 1,45,-1
 231 539 l 1,46,-1
 177 539 l 1,41,-1
EndSplineSet
Validated: 1
EndChar

StartChar: aacute
Encoding: 225 225 161
Width: 461
GlyphClass: 1
Flags: W
HStem: 0 77<103.534 308> 231 77<103.534 308> 385 77<77 281.466> 673 20G<234 308>
VStem: 0 77<103.311 204.691> 308 77<77 231 308 358.466>
LayerCount: 2
Fore
SplineSet
154 0 m 2,0,1
 125 0 125 0 97.5 13 c 128,-1,2
 70 26 70 26 48 48 c 128,-1,3
 26 70 26 70 13 97.5 c 128,-1,4
 0 125 0 125 0 154 c 256,5,6
 0 183 0 183 13 210.5 c 128,-1,7
 26 238 26 238 48 260 c 128,-1,8
 70 282 70 282 97.5 295 c 128,-1,9
 125 308 125 308 154 308 c 2,10,-1
 308 308 l 1,11,12
 308 323 308 323 301.5 336.5 c 128,-1,13
 295 350 295 350 284 361 c 128,-1,14
 273 372 273 372 259.5 378.5 c 128,-1,15
 246 385 246 385 231 385 c 2,16,-1
 77 385 l 1,17,-1
 77 462 l 1,18,-1
 231 462 l 2,19,20
 260 462 260 462 287.5 449 c 128,-1,21
 315 436 315 436 337 414 c 128,-1,22
 359 392 359 392 372 364.5 c 128,-1,23
 385 337 385 337 385 308 c 2,24,-1
 385 0 l 1,25,-1
 154 0 l 2,0,1
308 231 m 1,26,-1
 154 231 l 2,27,28
 140 231 140 231 126 224.5 c 128,-1,29
 112 218 112 218 101 207 c 128,-1,30
 90 196 90 196 83.5 182.5 c 128,-1,31
 77 169 77 169 77 154 c 0,32,33
 77 140 77 140 83.5 126 c 128,-1,34
 90 112 90 112 101 101 c 128,-1,35
 112 90 112 90 126 83.5 c 128,-1,36
 140 77 140 77 154 77 c 2,37,-1
 308 77 l 1,38,-1
 308 231 l 1,26,-1
154 593 m 1,39,-1
 254 693 l 1,40,-1
 308 693 l 1,41,-1
 308 639 l 1,42,-1
 208 539 l 1,43,-1
 154 539 l 1,44,-1
 154 593 l 1,39,-1
EndSplineSet
Validated: 1
EndChar

StartChar: acircumflex
Encoding: 226 226 162
Width: 461
GlyphClass: 1
Flags: W
HStem: 0 77<103.534 308> 231 77<103.534 308> 385 77<77 281.466> 674 20G<172 211.828>
VStem: 0 77<103.311 204.691> 308 77<77 231 308 358.466>
LayerCount: 2
Fore
SplineSet
154 0 m 2,0,1
 125 0 125 0 97.5 13 c 128,-1,2
 70 26 70 26 48 48 c 128,-1,3
 26 70 26 70 13 97.5 c 128,-1,4
 0 125 0 125 0 154 c 256,5,6
 0 183 0 183 13 210.5 c 128,-1,7
 26 238 26 238 48 260 c 128,-1,8
 70 282 70 282 97.5 295 c 128,-1,9
 125 308 125 308 154 308 c 2,10,-1
 308 308 l 1,11,12
 308 323 308 323 301.5 336.5 c 128,-1,13
 295 350 295 350 284 361 c 128,-1,14
 273 372 273 372 259.5 378.5 c 128,-1,15
 246 385 246 385 231 385 c 2,16,-1
 77 385 l 1,17,-1
 77 462 l 1,18,-1
 231 462 l 2,19,20
 260 462 260 462 287.5 449 c 128,-1,21
 315 436 315 436 337 414 c 128,-1,22
 359 392 359 392 372 364.5 c 128,-1,23
 385 337 385 337 385 308 c 2,24,-1
 385 0 l 1,25,-1
 154 0 l 2,0,1
308 231 m 1,26,-1
 154 231 l 2,27,28
 140 231 140 231 126 224.5 c 128,-1,29
 112 218 112 218 101 207 c 128,-1,30
 90 196 90 196 83.5 182.5 c 128,-1,31
 77 169 77 169 77 154 c 0,32,33
 77 140 77 140 83.5 126 c 128,-1,34
 90 112 90 112 101 101 c 128,-1,35
 112 90 112 90 126 83.5 c 128,-1,36
 140 77 140 77 154 77 c 2,37,-1
 308 77 l 1,38,-1
 308 231 l 1,26,-1
77 579 m 1,39,-1
 192 694 l 1,40,-1
 307 578 l 1,41,-1
 307 539 l 1,42,-1
 237 539 l 1,43,-1
 192 584 l 1,44,-1
 147 539 l 1,45,-1
 77 539 l 1,46,-1
 77 579 l 1,39,-1
EndSplineSet
Validated: 1
EndChar

StartChar: atilde
Encoding: 227 227 163
Width: 461
GlyphClass: 1
Flags: W
HStem: 0 77<103.534 308> 231 77<103.534 308> 385 77<77 281.466> 540 79<229.529 304.327> 617 79<82.0825 157.471>
VStem: 0 77<103.311 204.691 539 611.844> 308 77<77 231 308 358.466 623.192 695>
LayerCount: 2
Fore
SplineSet
154 0 m 2,0,1
 125 0 125 0 97.5 13 c 128,-1,2
 70 26 70 26 48 48 c 128,-1,3
 26 70 26 70 13 97.5 c 128,-1,4
 0 125 0 125 0 154 c 256,5,6
 0 183 0 183 13 210.5 c 128,-1,7
 26 238 26 238 48 260 c 128,-1,8
 70 282 70 282 97.5 295 c 128,-1,9
 125 308 125 308 154 308 c 2,10,-1
 308 308 l 1,11,12
 308 323 308 323 301.5 336.5 c 128,-1,13
 295 350 295 350 284 361 c 128,-1,14
 273 372 273 372 259.5 378.5 c 128,-1,15
 246 385 246 385 231 385 c 2,16,-1
 77 385 l 1,17,-1
 77 462 l 1,18,-1
 231 462 l 2,19,20
 260 462 260 462 287.5 449 c 128,-1,21
 315 436 315 436 337 414 c 128,-1,22
 359 392 359 392 372 364.5 c 128,-1,23
 385 337 385 337 385 308 c 2,24,-1
 385 0 l 1,25,-1
 154 0 l 2,0,1
308 231 m 1,26,-1
 154 231 l 2,27,28
 140 231 140 231 126 224.5 c 128,-1,29
 112 218 112 218 101 207 c 128,-1,30
 90 196 90 196 83.5 182.5 c 128,-1,31
 77 169 77 169 77 154 c 0,32,33
 77 140 77 140 83.5 126 c 128,-1,34
 90 112 90 112 101 101 c 128,-1,35
 112 90 112 90 126 83.5 c 128,-1,36
 140 77 140 77 154 77 c 2,37,-1
 308 77 l 1,38,-1
 308 231 l 1,26,-1
2 581 m 2,39,40
 2 602 2 602 12 623 c 128,-1,41
 22 644 22 644 38 660 c 128,-1,42
 54 676 54 676 74.5 686 c 128,-1,43
 95 696 95 696 117 696 c 0,44,45
 155 696 155 696 186 673 c 2,46,-1
 248 627 l 2,47,48
 259 619 259 619 271 619 c 0,49,50
 285 619 285 619 297 631 c 128,-1,51
 309 643 309 643 309 657 c 2,52,-1
 309 695 l 1,53,-1
 386 695 l 1,54,-1
 386 656 l 2,55,56
 386 634 386 634 376 613.5 c 128,-1,57
 366 593 366 593 349.5 576.5 c 128,-1,58
 333 560 333 560 312.5 550 c 128,-1,59
 292 540 292 540 270 540 c 0,60,61
 232 540 232 540 201 563 c 2,62,-1
 139 609 l 2,63,64
 128 617 128 617 116 617 c 0,65,66
 101 617 101 617 89 604.5 c 128,-1,67
 77 592 77 592 77 578 c 2,68,-1
 77 539 l 1,69,-1
 0 539 l 1,70,-1
 2 581 l 2,39,40
EndSplineSet
Validated: 1
EndChar

StartChar: adieresis
Encoding: 228 228 164
Width: 461
GlyphClass: 1
Flags: W
HStem: 0 77<99.625 308> 231 77<103.534 308> 385 77<77 281.466> 541 98<92.4395 161.561 248.439 317.561>
VStem: 0 77<99.373 204.691> 78 98<555.439 623.046> 234 98<555.439 623.046> 308 77<77 231 308 358.466>
LayerCount: 2
Fore
SplineSet
234 589 m 132,-1,1
 234 609 234 609 248 623.5 c 132,-1,2
 262 638 262 638 282 639 c 4,3,4
 304 638 304 638 318 623.5 c 132,-1,5
 332 609 332 609 332 589 c 132,-1,6
 332 569 332 569 318 555 c 132,-1,7
 304 541 304 541 284 541 c 4,8,9
 262 541 262 541 248 555 c 132,-1,0
 234 569 234 569 234 589 c 132,-1,1
78 589 m 132,-1,11
 78 609 78 609 92 623.5 c 132,-1,12
 106 638 106 638 126 639 c 4,13,14
 148 638 148 638 162 623.5 c 132,-1,15
 176 609 176 609 176 589 c 132,-1,16
 176 569 176 569 162 555 c 132,-1,17
 148 541 148 541 128 541 c 4,18,19
 106 541 106 541 92 555 c 132,-1,10
 78 569 78 569 78 589 c 132,-1,11
154 0 m 2,20,21
 125 0 125 0 96 10.5 c 128,-1,22
 67 21 67 21 45 43 c 128,-1,23
 23 65 23 65 11.5 95 c 128,-1,24
 0 125 0 125 0 154 c 256,25,26
 0 183 0 183 13 210.5 c 128,-1,27
 26 238 26 238 48 260 c 128,-1,28
 70 282 70 282 97.5 295 c 128,-1,29
 125 308 125 308 154 308 c 2,30,-1
 308 308 l 1,31,32
 308 323 308 323 301.5 336.5 c 128,-1,33
 295 350 295 350 284 361 c 128,-1,34
 273 372 273 372 259.5 378.5 c 128,-1,35
 246 385 246 385 231 385 c 2,36,-1
 77 385 l 1,37,-1
 77 462 l 1,38,-1
 231 462 l 2,39,40
 260 462 260 462 287.5 449 c 128,-1,41
 315 436 315 436 337 414 c 128,-1,42
 359 392 359 392 372 364.5 c 128,-1,43
 385 337 385 337 385 308 c 2,44,-1
 385 0 l 1,45,-1
 154 0 l 2,20,21
308 231 m 1,46,-1
 154 231 l 2,47,48
 140 231 140 231 126 224.5 c 128,-1,49
 112 218 112 218 101 207 c 128,-1,50
 90 196 90 196 83.5 182.5 c 128,-1,51
 77 169 77 169 77 153.5 c 128,-1,52
 77 138 77 138 82 125 c 0,53,54
 87 113 87 113 98 100 c 0,55,56
 106 90 106 90 124 81 c 0,57,58
 134 76 134 76 154 77 c 2,59,-1
 308 77 l 1,60,-1
 308 231 l 1,46,-1
EndSplineSet
Validated: 1
EndChar

StartChar: aring
Encoding: 229 229 165
Width: 461
GlyphClass: 1
Flags: W
HStem: 0 77<99.625 308> 231 77<103.534 308> 385 77<77 281.466> 523 51<205 238.953> 650 46<172.752 239.063>
VStem: 0 77<99.373 204.691> 113 51<580.754 637.563> 244 48<578.964 644.387> 308 77<77 231 308 358.466>
LayerCount: 2
Fore
SplineSet
154 0 m 2,0,1
 125 0 125 0 96 10.5 c 128,-1,2
 67 21 67 21 45 43 c 128,-1,3
 23 65 23 65 11.5 95 c 128,-1,4
 0 125 0 125 0 154 c 256,5,6
 0 183 0 183 13 210.5 c 128,-1,7
 26 238 26 238 48 260 c 128,-1,8
 70 282 70 282 97.5 295 c 128,-1,9
 125 308 125 308 154 308 c 2,10,-1
 308 308 l 1,11,12
 308 323 308 323 301.5 336.5 c 128,-1,13
 295 350 295 350 284 361 c 128,-1,14
 273 372 273 372 259.5 378.5 c 128,-1,15
 246 385 246 385 231 385 c 2,16,-1
 77 385 l 1,17,-1
 77 462 l 1,18,-1
 231 462 l 2,19,20
 260 462 260 462 287.5 449 c 128,-1,21
 315 436 315 436 337 414 c 128,-1,22
 359 392 359 392 372 364.5 c 128,-1,23
 385 337 385 337 385 308 c 2,24,-1
 385 0 l 1,25,-1
 154 0 l 2,0,1
308 231 m 1,26,-1
 154 231 l 2,27,28
 140 231 140 231 126 224.5 c 128,-1,29
 112 218 112 218 101 207 c 128,-1,30
 90 196 90 196 83.5 182.5 c 128,-1,31
 77 169 77 169 77 153.5 c 128,-1,32
 77 138 77 138 82 125 c 0,33,34
 87 113 87 113 98 100 c 0,35,36
 106 90 106 90 124 81 c 0,37,38
 134 76 134 76 154 77 c 2,39,-1
 308 77 l 1,40,-1
 308 231 l 1,26,-1
203 523 m 128,-1,42
 186 523 186 523 170.5 530.5 c 128,-1,43
 155 538 155 538 142 551 c 128,-1,44
 129 564 129 564 121 579 c 128,-1,45
 113 594 113 594 113 609 c 0,46,47
 113 610 113 610 114 610 c 0,48,49
 114 626 114 626 121 642 c 0,50,51
 126 653 126 653 142 669 c 0,52,53
 156 682 156 682 171 688 c 0,54,55
 187 695 187 695 203 696 c 0,56,57
 220 696 220 696 235 688 c 0,58,59
 251 681 251 681 264 669 c 0,60,61
 277 655 277 655 284 642 c 0,62,63
 292 626 292 626 292 610 c 128,-1,64
 292 594 292 594 284 579 c 0,65,66
 277 563 277 563 264 551 c 0,67,68
 251 538 251 538 235 531 c 0,69,41
 220 523 220 523 203 523 c 128,-1,42
205 574 m 1,70,71
 219 574 219 574 231 586 c 0,72,73
 244 598 244 598 244 612 c 256,74,75
 244 626 244 626 231 638 c 0,76,77
 217 650 217 650 204 650 c 0,78,79
 188 650 188 650 176 638 c 0,80,81
 164 624 164 624 164 611 c 0,82,83
 164 596 164 596 176 584 c 0,84,85
 188 573 188 573 203 572 c 1,86,-1
 205 574 l 1,70,71
EndSplineSet
Validated: 1
EndChar

StartChar: ae
Encoding: 230 230 166
Width: 461
GlyphClass: 1
Flags: W
HStem: 1 79<89.7445 160.715 237.627 304.327> 238 75<87.9248 158 239 310.643> 390 77<81 158 239 313.031>
VStem: 0 83<87.771 233.358> 161 72<84.4561 235 315 390> 309 77<84.8438 156> 317 71<320.63 387.066>
LayerCount: 2
Fore
SplineSet
5 198 m 2,0,1
 5 219 5 219 15 240 c 128,-1,2
 25 261 25 261 41 277 c 128,-1,3
 57 293 57 293 77.5 303 c 128,-1,4
 98 313 98 313 120 313 c 2,5,-1
 158 313 l 1,6,-1
 158 390 l 1,7,-1
 81 390 l 1,8,-1
 81 467 l 1,9,-1
 273 467 l 2,10,11
 294 467 294 467 315 457 c 128,-1,12
 336 447 336 447 352 430.5 c 128,-1,13
 368 414 368 414 378 393.5 c 128,-1,14
 388 373 388 373 388 351 c 256,15,16
 388 329 388 329 378 308.5 c 128,-1,17
 368 288 368 288 351.5 271.5 c 128,-1,18
 335 255 335 255 314.5 245 c 128,-1,19
 294 235 294 235 272 235 c 2,20,-1
 233 235 l 1,21,-1
 233 119 l 2,22,23
 233 104 233 104 245 92 c 128,-1,24
 257 80 257 80 271 80 c 256,25,26
 285 80 285 80 297 92 c 128,-1,27
 309 104 309 104 309 118 c 2,28,-1
 309 156 l 1,29,-1
 386 156 l 1,30,-1
 386 117 l 2,31,32
 386 95 386 95 376 74.5 c 128,-1,33
 366 54 366 54 349.5 37.5 c 128,-1,34
 333 21 333 21 312.5 11 c 128,-1,35
 292 1 292 1 270 1 c 0,36,37
 249 1 249 1 229 8.5 c 128,-1,38
 209 16 209 16 193 30 c 1,39,40
 177 16 177 16 157 8.5 c 128,-1,41
 137 1 137 1 116 1 c 0,42,43
 94 1 94 1 73.5 11 c 128,-1,44
 53 21 53 21 36.5 37 c 128,-1,45
 20 53 20 53 10 73.5 c 128,-1,46
 0 94 0 94 0 116 c 2,47,-1
 5 198 l 2,0,1
161 84 m 1,48,-1
 161 238 l 1,49,-1
 122 238 l 2,50,51
 107 238 107 238 95 225.5 c 128,-1,52
 83 213 83 213 83 199 c 2,53,-1
 83 122 l 2,54,55
 83 107 83 107 95 95 c 128,-1,56
 107 83 107 83 121 83 c 2,57,-1
 161 84 l 1,48,-1
279 316 m 2,58,59
 293 316 293 316 305 328 c 128,-1,60
 317 340 317 340 317 354 c 256,61,62
 317 368 317 368 304.5 380 c 128,-1,63
 292 392 292 392 278 392 c 2,64,-1
 239 392 l 1,65,-1
 239 315 l 1,66,-1
 279 316 l 2,58,59
EndSplineSet
Validated: 1
EndChar

StartChar: ccedilla
Encoding: 231 231 167
Width: 461
GlyphClass: 1
Flags: W
HStem: -153 38<77 268.484> -77 156<154 246> -77 40<231 268.484> 387 77<103.534 281.466>
VStem: 0 77<105.264 360.466> 154 77<-37 0> 269 39<-114.873 -77.0747> 308 77<105.534 156 310 360.466>
LayerCount: 2
Fore
SplineSet
0 310 m 2,0,1
 0 339 0 339 13 366.5 c 128,-1,2
 26 394 26 394 48 416 c 128,-1,3
 70 438 70 438 97.5 451 c 128,-1,4
 125 464 125 464 154 464 c 2,5,-1
 231 464 l 2,6,7
 260 464 260 464 287.5 451 c 128,-1,8
 315 438 315 438 337 416 c 128,-1,9
 359 394 359 394 372 366.5 c 128,-1,10
 385 339 385 339 385 310 c 1,11,-1
 308 310 l 1,12,13
 308 325 308 325 301.5 338.5 c 128,-1,14
 295 352 295 352 284 363 c 128,-1,15
 273 374 273 374 259.5 380.5 c 128,-1,16
 246 387 246 387 231 387 c 2,17,-1
 154 387 l 2,18,19
 140 387 140 387 126 380.5 c 128,-1,20
 112 374 112 374 101 363 c 128,-1,21
 90 352 90 352 83.5 338.5 c 128,-1,22
 77 325 77 325 77 310 c 2,23,-1
 77 156 l 2,24,25
 77 142 77 142 83.5 128 c 128,-1,26
 90 114 90 114 101 103 c 128,-1,27
 112 92 112 92 126 85.5 c 128,-1,28
 140 79 140 79 154 79 c 2,29,-1
 231 79 l 2,30,31
 246 79 246 79 259.5 85.5 c 128,-1,32
 273 92 273 92 284 103 c 128,-1,33
 295 114 295 114 301.5 128 c 128,-1,34
 308 142 308 142 308 156 c 1,35,-1
 385 156 l 1,36,37
 385 127 385 127 372 99.5 c 128,-1,38
 359 72 359 72 337 50 c 128,-1,39
 315 28 315 28 287.5 15 c 128,-1,40
 260 2 260 2 231 2 c 1,41,-1
 231 -37 l 1,42,-1
 250 -37 l 2,43,44
 272 -37 272 -37 290 -55 c 128,-1,45
 308 -73 308 -73 308 -95 c 256,46,47
 308 -117 308 -117 290 -135 c 128,-1,48
 272 -153 272 -153 250 -153 c 2,49,-1
 77 -153 l 1,50,-1
 77 -115 l 1,51,-1
 250 -115 l 2,52,53
 257 -115 257 -115 263 -109.5 c 128,-1,54
 269 -104 269 -104 269 -96 c 0,55,56
 269 -89 269 -89 263.5 -83 c 128,-1,57
 258 -77 258 -77 250 -77 c 2,58,-1
 154 -77 l 1,59,-1
 154 0 l 1,60,61
 125 0 125 0 97.5 13 c 128,-1,62
 70 26 70 26 48 48 c 128,-1,63
 26 70 26 70 13 97.5 c 128,-1,64
 0 125 0 125 0 154 c 2,65,-1
 0 310 l 2,0,1
EndSplineSet
Validated: 1
EndChar

StartChar: egrave
Encoding: 232 232 168
Width: 461
GlyphClass: 1
Flags: W
HStem: 0 77<103.534 281.466> 231 77<77 308> 385 77<103.534 281.466> 673 20G<77 151>
VStem: 0 77<103.534 231 308 358.466> 308 77<103.534 154 308 358.466>
LayerCount: 2
Fore
SplineSet
154 0 m 2,0,1
 125 0 125 0 97.5 13 c 128,-1,2
 70 26 70 26 48 48 c 128,-1,3
 26 70 26 70 13 97.5 c 128,-1,4
 0 125 0 125 0 154 c 2,5,-1
 0 308 l 2,6,7
 0 337 0 337 13 364.5 c 128,-1,8
 26 392 26 392 48 414 c 128,-1,9
 70 436 70 436 97.5 449 c 128,-1,10
 125 462 125 462 154 462 c 2,11,-1
 231 462 l 2,12,13
 260 462 260 462 287.5 449 c 128,-1,14
 315 436 315 436 337 414 c 128,-1,15
 359 392 359 392 372 364.5 c 128,-1,16
 385 337 385 337 385 308 c 2,17,-1
 385 231 l 1,18,-1
 77 231 l 1,19,-1
 77 154 l 2,20,21
 77 140 77 140 83.5 126 c 128,-1,22
 90 112 90 112 101 101 c 128,-1,23
 112 90 112 90 126 83.5 c 128,-1,24
 140 77 140 77 154 77 c 2,25,-1
 231 77 l 2,26,27
 246 77 246 77 259.5 83.5 c 128,-1,28
 273 90 273 90 284 101 c 128,-1,29
 295 112 295 112 301.5 126 c 128,-1,30
 308 140 308 140 308 154 c 1,31,-1
 385 154 l 1,32,33
 385 125 385 125 372 97.5 c 128,-1,34
 359 70 359 70 337 48 c 128,-1,35
 315 26 315 26 287.5 13 c 128,-1,36
 260 0 260 0 231 0 c 2,37,-1
 154 0 l 2,0,1
308 308 m 1,38,39
 308 323 308 323 301.5 336.5 c 128,-1,40
 295 350 295 350 284 361 c 128,-1,41
 273 372 273 372 259.5 378.5 c 128,-1,42
 246 385 246 385 231 385 c 2,43,-1
 154 385 l 2,44,45
 140 385 140 385 126 378.5 c 128,-1,46
 112 372 112 372 101 361 c 128,-1,47
 90 350 90 350 83.5 336.5 c 128,-1,48
 77 323 77 323 77 308 c 1,49,-1
 308 308 l 1,38,39
177 539 m 1,50,-1
 77 639 l 1,51,-1
 77 693 l 1,52,-1
 131 693 l 1,53,-1
 231 593 l 1,54,-1
 231 539 l 1,55,-1
 177 539 l 1,50,-1
EndSplineSet
Validated: 1
EndChar

StartChar: eacute
Encoding: 233 233 169
Width: 461
GlyphClass: 1
Flags: W
HStem: 0 77<103.534 281.466> 231 77<77 308> 385 77<103.534 281.466> 673 20G<234 308>
VStem: 0 77<103.534 231 308 358.466> 308 77<103.534 154 308 358.466>
LayerCount: 2
Fore
SplineSet
154 0 m 2,0,1
 125 0 125 0 97.5 13 c 128,-1,2
 70 26 70 26 48 48 c 128,-1,3
 26 70 26 70 13 97.5 c 128,-1,4
 0 125 0 125 0 154 c 2,5,-1
 0 308 l 2,6,7
 0 337 0 337 13 364.5 c 128,-1,8
 26 392 26 392 48 414 c 128,-1,9
 70 436 70 436 97.5 449 c 128,-1,10
 125 462 125 462 154 462 c 2,11,-1
 231 462 l 2,12,13
 260 462 260 462 287.5 449 c 128,-1,14
 315 436 315 436 337 414 c 128,-1,15
 359 392 359 392 372 364.5 c 128,-1,16
 385 337 385 337 385 308 c 2,17,-1
 385 231 l 1,18,-1
 77 231 l 1,19,-1
 77 154 l 2,20,21
 77 140 77 140 83.5 126 c 128,-1,22
 90 112 90 112 101 101 c 128,-1,23
 112 90 112 90 126 83.5 c 128,-1,24
 140 77 140 77 154 77 c 2,25,-1
 231 77 l 2,26,27
 246 77 246 77 259.5 83.5 c 128,-1,28
 273 90 273 90 284 101 c 128,-1,29
 295 112 295 112 301.5 126 c 128,-1,30
 308 140 308 140 308 154 c 1,31,-1
 385 154 l 1,32,33
 385 125 385 125 372 97.5 c 128,-1,34
 359 70 359 70 337 48 c 128,-1,35
 315 26 315 26 287.5 13 c 128,-1,36
 260 0 260 0 231 0 c 2,37,-1
 154 0 l 2,0,1
308 308 m 1,38,39
 308 323 308 323 301.5 336.5 c 128,-1,40
 295 350 295 350 284 361 c 128,-1,41
 273 372 273 372 259.5 378.5 c 128,-1,42
 246 385 246 385 231 385 c 2,43,-1
 154 385 l 2,44,45
 140 385 140 385 126 378.5 c 128,-1,46
 112 372 112 372 101 361 c 128,-1,47
 90 350 90 350 83.5 336.5 c 128,-1,48
 77 323 77 323 77 308 c 1,49,-1
 308 308 l 1,38,39
154 593 m 1,50,-1
 254 693 l 1,51,-1
 308 693 l 1,52,-1
 308 639 l 1,53,-1
 208 539 l 1,54,-1
 154 539 l 1,55,-1
 154 593 l 1,50,-1
EndSplineSet
Validated: 1
EndChar

StartChar: ecircumflex
Encoding: 234 234 170
Width: 461
GlyphClass: 1
Flags: W
HStem: 0 77<103.534 281.466> 231 77<77 308> 385 77<103.534 281.466> 674 20G<172 211.828>
VStem: 0 77<103.534 231 308 358.466> 308 77<103.534 154 308 358.466>
LayerCount: 2
Fore
SplineSet
154 0 m 2,0,1
 125 0 125 0 97.5 13 c 128,-1,2
 70 26 70 26 48 48 c 128,-1,3
 26 70 26 70 13 97.5 c 128,-1,4
 0 125 0 125 0 154 c 2,5,-1
 0 308 l 2,6,7
 0 337 0 337 13 364.5 c 128,-1,8
 26 392 26 392 48 414 c 128,-1,9
 70 436 70 436 97.5 449 c 128,-1,10
 125 462 125 462 154 462 c 2,11,-1
 231 462 l 2,12,13
 260 462 260 462 287.5 449 c 128,-1,14
 315 436 315 436 337 414 c 128,-1,15
 359 392 359 392 372 364.5 c 128,-1,16
 385 337 385 337 385 308 c 2,17,-1
 385 231 l 1,18,-1
 77 231 l 1,19,-1
 77 154 l 2,20,21
 77 140 77 140 83.5 126 c 128,-1,22
 90 112 90 112 101 101 c 128,-1,23
 112 90 112 90 126 83.5 c 128,-1,24
 140 77 140 77 154 77 c 2,25,-1
 231 77 l 2,26,27
 246 77 246 77 259.5 83.5 c 128,-1,28
 273 90 273 90 284 101 c 128,-1,29
 295 112 295 112 301.5 126 c 128,-1,30
 308 140 308 140 308 154 c 1,31,-1
 385 154 l 1,32,33
 385 125 385 125 372 97.5 c 128,-1,34
 359 70 359 70 337 48 c 128,-1,35
 315 26 315 26 287.5 13 c 128,-1,36
 260 0 260 0 231 0 c 2,37,-1
 154 0 l 2,0,1
308 308 m 1,38,39
 308 323 308 323 301.5 336.5 c 128,-1,40
 295 350 295 350 284 361 c 128,-1,41
 273 372 273 372 259.5 378.5 c 128,-1,42
 246 385 246 385 231 385 c 2,43,-1
 154 385 l 2,44,45
 140 385 140 385 126 378.5 c 128,-1,46
 112 372 112 372 101 361 c 128,-1,47
 90 350 90 350 83.5 336.5 c 128,-1,48
 77 323 77 323 77 308 c 1,49,-1
 308 308 l 1,38,39
77 579 m 1,50,-1
 192 694 l 1,51,-1
 307 578 l 1,52,-1
 307 539 l 1,53,-1
 237 539 l 1,54,-1
 192 584 l 1,55,-1
 147 539 l 1,56,-1
 77 539 l 1,57,-1
 77 579 l 1,50,-1
EndSplineSet
Validated: 1
EndChar

StartChar: edieresis
Encoding: 235 235 171
Width: 461
GlyphClass: 1
Flags: W
HStem: 0 77<103.534 281.466> 231 77<77 308> 385 77<103.534 281.466> 539 98<80.4395 149.561 236.439 305.561>
VStem: 0 77<103.534 231 308 358.466> 66 98<553.439 621.046> 222 98<553.439 621.046> 308 77<103.534 154 308 358.466>
LayerCount: 2
Fore
SplineSet
222 587 m 128,-1,1
 222 607 222 607 236 621.5 c 128,-1,2
 250 636 250 636 270 637 c 0,3,4
 292 636 292 636 306 621.5 c 128,-1,5
 320 607 320 607 320 587 c 128,-1,6
 320 567 320 567 306 553 c 128,-1,7
 292 539 292 539 272 539 c 0,8,9
 250 539 250 539 236 553 c 128,-1,0
 222 567 222 567 222 587 c 128,-1,1
66 587 m 128,-1,11
 66 607 66 607 80 621.5 c 128,-1,12
 94 636 94 636 114 637 c 0,13,14
 136 636 136 636 150 621.5 c 128,-1,15
 164 607 164 607 164 587 c 128,-1,16
 164 567 164 567 150 553 c 128,-1,17
 136 539 136 539 116 539 c 0,18,19
 94 539 94 539 80 553 c 128,-1,10
 66 567 66 567 66 587 c 128,-1,11
154 0 m 2,20,21
 125 0 125 0 97.5 13 c 128,-1,22
 70 26 70 26 48 48 c 128,-1,23
 26 70 26 70 13 97.5 c 128,-1,24
 0 125 0 125 0 154 c 2,25,-1
 0 308 l 2,26,27
 0 337 0 337 13 364.5 c 128,-1,28
 26 392 26 392 48 414 c 128,-1,29
 70 436 70 436 97.5 449 c 128,-1,30
 125 462 125 462 154 462 c 2,31,-1
 231 462 l 2,32,33
 260 462 260 462 287.5 449 c 128,-1,34
 315 436 315 436 337 414 c 128,-1,35
 359 392 359 392 372 364.5 c 128,-1,36
 385 337 385 337 385 308 c 2,37,-1
 385 231 l 1,38,-1
 77 231 l 1,39,-1
 77 154 l 2,40,41
 77 140 77 140 83.5 126 c 128,-1,42
 90 112 90 112 101 101 c 128,-1,43
 112 90 112 90 126 83.5 c 128,-1,44
 140 77 140 77 154 77 c 2,45,-1
 231 77 l 2,46,47
 246 77 246 77 259.5 83.5 c 128,-1,48
 273 90 273 90 284 101 c 128,-1,49
 295 112 295 112 301.5 126 c 128,-1,50
 308 140 308 140 308 154 c 1,51,-1
 385 154 l 1,52,53
 385 125 385 125 372 97.5 c 128,-1,54
 359 70 359 70 337 48 c 128,-1,55
 315 26 315 26 287.5 13 c 128,-1,56
 260 0 260 0 231 0 c 2,57,-1
 154 0 l 2,20,21
308 308 m 1,58,59
 308 323 308 323 301.5 336.5 c 128,-1,60
 295 350 295 350 284 361 c 128,-1,61
 273 372 273 372 259.5 378.5 c 128,-1,62
 246 385 246 385 231 385 c 2,63,-1
 154 385 l 2,64,65
 140 385 140 385 126 378.5 c 128,-1,66
 112 372 112 372 101 361 c 128,-1,67
 90 350 90 350 83.5 336.5 c 128,-1,68
 77 323 77 323 77 308 c 1,69,-1
 308 308 l 1,58,59
EndSplineSet
Validated: 1
EndChar

StartChar: igrave
Encoding: 236 236 172
Width: 461
GlyphClass: 1
Flags: W
HStem: 0 77<77 154 231 308> 385 77<77 154> 673 20G<77 151>
VStem: 77 154<385 462> 154 77<77 385>
LayerCount: 2
Fore
SplineSet
77 77 m 1,0,-1
 154 77 l 1,1,-1
 154 385 l 1,2,-1
 77 385 l 1,3,-1
 77 462 l 1,4,-1
 231 462 l 1,5,-1
 231 77 l 1,6,-1
 308 77 l 1,7,-1
 308 0 l 1,8,-1
 77 0 l 1,9,-1
 77 77 l 1,0,-1
177 539 m 1,10,-1
 77 639 l 1,11,-1
 77 693 l 1,12,-1
 131 693 l 1,13,-1
 231 593 l 1,14,-1
 231 539 l 1,15,-1
 177 539 l 1,10,-1
EndSplineSet
Validated: 1
EndChar

StartChar: iacute
Encoding: 237 237 173
Width: 461
GlyphClass: 1
Flags: W
HStem: 0 77<77 154 231 308> 385 77<77 154> 673 20G<234 308>
VStem: 77 154<385 462> 154 77<77 385>
LayerCount: 2
Fore
SplineSet
77 77 m 1,0,-1
 154 77 l 1,1,-1
 154 385 l 1,2,-1
 77 385 l 1,3,-1
 77 462 l 1,4,-1
 231 462 l 1,5,-1
 231 77 l 1,6,-1
 308 77 l 1,7,-1
 308 0 l 1,8,-1
 77 0 l 1,9,-1
 77 77 l 1,0,-1
154 593 m 1,10,-1
 254 693 l 1,11,-1
 308 693 l 1,12,-1
 308 639 l 1,13,-1
 208 539 l 1,14,-1
 154 539 l 1,15,-1
 154 593 l 1,10,-1
EndSplineSet
Validated: 1
EndChar

StartChar: icircumflex
Encoding: 238 238 174
Width: 461
GlyphClass: 1
Flags: W
HStem: 0 77<77 154 231 308> 385 77<77 154> 674 20G<172 211.828>
VStem: 77 154<385 462> 154 77<77 385>
LayerCount: 2
Fore
SplineSet
77 77 m 1,0,-1
 154 77 l 1,1,-1
 154 385 l 1,2,-1
 77 385 l 1,3,-1
 77 462 l 1,4,-1
 231 462 l 1,5,-1
 231 77 l 1,6,-1
 308 77 l 1,7,-1
 308 0 l 1,8,-1
 77 0 l 1,9,-1
 77 77 l 1,0,-1
77 579 m 1,10,-1
 192 694 l 1,11,-1
 307 578 l 1,12,-1
 307 539 l 1,13,-1
 237 539 l 1,14,-1
 192 584 l 1,15,-1
 147 539 l 1,16,-1
 77 539 l 1,17,-1
 77 579 l 1,10,-1
EndSplineSet
Validated: 1
EndChar

StartChar: idieresis
Encoding: 239 239 175
Width: 461
GlyphClass: 1
Flags: W
HStem: 0 77<77 154 231 308> 385 77<77 154> 543 98<52.4395 121.561 208.439 277.561>
VStem: 38 98<557.439 625.046> 77 154<385 462> 154 77<77 385> 194 98<557.439 625.046>
LayerCount: 2
Fore
SplineSet
194 591 m 132,-1,1
 194 611 194 611 208 625.5 c 132,-1,2
 222 640 222 640 242 641 c 4,3,4
 264 640 264 640 278 625.5 c 132,-1,5
 292 611 292 611 292 591 c 132,-1,6
 292 571 292 571 278 557 c 132,-1,7
 264 543 264 543 244 543 c 4,8,9
 222 543 222 543 208 557 c 132,-1,0
 194 571 194 571 194 591 c 132,-1,1
38 591 m 132,-1,11
 38 611 38 611 52 625.5 c 132,-1,12
 66 640 66 640 86 641 c 4,13,14
 108 640 108 640 122 625.5 c 132,-1,15
 136 611 136 611 136 591 c 132,-1,16
 136 571 136 571 122 557 c 132,-1,17
 108 543 108 543 88 543 c 4,18,19
 66 543 66 543 52 557 c 132,-1,10
 38 571 38 571 38 591 c 132,-1,11
77 77 m 1,20,-1
 154 77 l 1,21,-1
 154 385 l 1,22,-1
 77 385 l 1,23,-1
 77 462 l 1,24,-1
 231 462 l 1,25,-1
 231 77 l 1,26,-1
 308 77 l 1,27,-1
 308 0 l 1,28,-1
 77 0 l 1,29,-1
 77 77 l 1,20,-1
EndSplineSet
Validated: 1
EndChar

StartChar: eth
Encoding: 240 240 176
Width: 461
GlyphClass: 1
Flags: W
HStem: 0 76<103.534 281.466> 384 77<103.534 237.949>
VStem: 0 77<102.669 357.466> 308 77<102.669 357.457>
LayerCount: 2
Fore
SplineSet
0 307 m 2,0,1
 0 336 0 336 13 363.5 c 128,-1,2
 26 391 26 391 48 413 c 128,-1,3
 70 435 70 435 97.5 448 c 128,-1,4
 125 461 125 461 154 461 c 2,5,-1
 238 461 l 1,6,-1
 172 588 l 1,7,-1
 104 552 l 1,8,-1
 68 620 l 1,9,-1
 136 656 l 1,10,-1
 77 769 l 1,11,-1
 164 769 l 1,12,-1
 204 692 l 1,13,-1
 272 728 l 1,14,-1
 308 660 l 1,15,-1
 240 624 l 1,16,-1
 368 379 l 2,17,18
 385 345 385 345 385 308 c 2,19,-1
 385 154 l 2,20,21
 385 125 385 125 372 97.5 c 128,-1,22
 359 70 359 70 337 48 c 128,-1,23
 315 26 315 26 287.5 13 c 128,-1,24
 260 0 260 0 231 0 c 2,25,-1
 154 0 l 2,26,27
 125 0 125 0 97.5 13 c 128,-1,28
 70 26 70 26 48 48 c 128,-1,29
 26 70 26 70 13 97.5 c 128,-1,30
 0 125 0 125 0 154 c 2,31,-1
 0 307 l 2,0,1
231 76 m 2,32,33
 246 76 246 76 259.5 82.5 c 128,-1,34
 273 89 273 89 284 100 c 128,-1,35
 295 111 295 111 301.5 125 c 128,-1,36
 308 139 308 139 308 153 c 2,37,-1
 308 307 l 2,38,39
 308 322 308 322 301.5 335.5 c 128,-1,40
 295 349 295 349 284 360 c 128,-1,41
 273 371 273 371 259.5 377.5 c 128,-1,42
 246 384 246 384 231 384 c 2,43,-1
 154 384 l 2,44,45
 140 384 140 384 126 377.5 c 128,-1,46
 112 371 112 371 101 360 c 128,-1,47
 90 349 90 349 83.5 335.5 c 128,-1,48
 77 322 77 322 77 307 c 2,49,-1
 77 153 l 2,50,51
 77 139 77 139 83.5 125 c 128,-1,52
 90 111 90 111 101 100 c 128,-1,53
 112 89 112 89 126 82.5 c 128,-1,54
 140 76 140 76 154 76 c 2,55,-1
 231 76 l 2,32,33
EndSplineSet
Validated: 1
EndChar

StartChar: ntilde
Encoding: 241 241 177
Width: 461
GlyphClass: 1
Flags: W
HStem: 0 21G<0 77 308 385> 385 77<103.766 281.466> 540 79<229.529 304.327> 617 79<82.0825 157.471>
VStem: 0 77<0 358.916 441 462 539 611.844> 308 77<0 358.466 623.192 695>
LayerCount: 2
Fore
SplineSet
0 462 m 1,0,-1
 77 462 l 1,1,-1
 77 441 l 1,2,3
 111 462 111 462 154 462 c 2,4,-1
 231 462 l 2,5,6
 260 462 260 462 287.5 449 c 128,-1,7
 315 436 315 436 337 414 c 128,-1,8
 359 392 359 392 372 364.5 c 128,-1,9
 385 337 385 337 385 308 c 2,10,-1
 385 0 l 1,11,-1
 308 0 l 1,12,-1
 308 308 l 2,13,14
 308 323 308 323 301.5 336.5 c 128,-1,15
 295 350 295 350 284 361 c 128,-1,16
 273 372 273 372 259.5 378.5 c 128,-1,17
 246 385 246 385 231 385 c 2,18,-1
 154 385 l 2,19,20
 140 385 140 385 126 378.5 c 128,-1,21
 112 372 112 372 101 361 c 128,-1,22
 90 350 90 350 83.5 336.5 c 128,-1,23
 77 323 77 323 77 308 c 2,24,-1
 77 0 l 1,25,-1
 0 0 l 1,26,-1
 0 462 l 1,0,-1
2 581 m 2,27,28
 2 602 2 602 12 623 c 128,-1,29
 22 644 22 644 38 660 c 128,-1,30
 54 676 54 676 74.5 686 c 128,-1,31
 95 696 95 696 117 696 c 0,32,33
 155 696 155 696 186 673 c 2,34,-1
 248 627 l 2,35,36
 259 619 259 619 271 619 c 0,37,38
 285 619 285 619 297 631 c 128,-1,39
 309 643 309 643 309 657 c 2,40,-1
 309 695 l 1,41,-1
 386 695 l 1,42,-1
 386 656 l 2,43,44
 386 634 386 634 376 613.5 c 128,-1,45
 366 593 366 593 349.5 576.5 c 128,-1,46
 333 560 333 560 312.5 550 c 128,-1,47
 292 540 292 540 270 540 c 0,48,49
 232 540 232 540 201 563 c 2,50,-1
 139 609 l 2,51,52
 128 617 128 617 116 617 c 0,53,54
 101 617 101 617 89 604.5 c 128,-1,55
 77 592 77 592 77 578 c 2,56,-1
 77 539 l 1,57,-1
 0 539 l 1,58,-1
 2 581 l 2,27,28
EndSplineSet
Validated: 1
EndChar

StartChar: ograve
Encoding: 242 242 178
Width: 461
GlyphClass: 1
Flags: W
HStem: 0 77<103.534 281.466> 385 77<103.534 281.466> 673 20G<77 151>
VStem: 0 77<103.534 358.466> 308 77<103.534 358.466>
LayerCount: 2
Fore
SplineSet
0 308 m 2,0,1
 0 337 0 337 13 364.5 c 128,-1,2
 26 392 26 392 48 414 c 128,-1,3
 70 436 70 436 97.5 449 c 128,-1,4
 125 462 125 462 154 462 c 2,5,-1
 231 462 l 2,6,7
 260 462 260 462 287.5 449 c 128,-1,8
 315 436 315 436 337 414 c 128,-1,9
 359 392 359 392 372 364.5 c 128,-1,10
 385 337 385 337 385 308 c 2,11,-1
 385 154 l 2,12,13
 385 125 385 125 372 97.5 c 128,-1,14
 359 70 359 70 337 48 c 128,-1,15
 315 26 315 26 287.5 13 c 128,-1,16
 260 0 260 0 231 0 c 2,17,-1
 154 0 l 2,18,19
 125 0 125 0 97.5 13 c 128,-1,20
 70 26 70 26 48 48 c 128,-1,21
 26 70 26 70 13 97.5 c 128,-1,22
 0 125 0 125 0 154 c 2,23,-1
 0 308 l 2,0,1
231 77 m 2,24,25
 246 77 246 77 259.5 83.5 c 128,-1,26
 273 90 273 90 284 101 c 128,-1,27
 295 112 295 112 301.5 126 c 128,-1,28
 308 140 308 140 308 154 c 2,29,-1
 308 308 l 2,30,31
 308 323 308 323 301.5 336.5 c 128,-1,32
 295 350 295 350 284 361 c 128,-1,33
 273 372 273 372 259.5 378.5 c 128,-1,34
 246 385 246 385 231 385 c 2,35,-1
 154 385 l 2,36,37
 140 385 140 385 126 378.5 c 128,-1,38
 112 372 112 372 101 361 c 128,-1,39
 90 350 90 350 83.5 336.5 c 128,-1,40
 77 323 77 323 77 308 c 2,41,-1
 77 154 l 2,42,43
 77 140 77 140 83.5 126 c 128,-1,44
 90 112 90 112 101 101 c 128,-1,45
 112 90 112 90 126 83.5 c 128,-1,46
 140 77 140 77 154 77 c 2,47,-1
 231 77 l 2,24,25
177 539 m 1,48,-1
 77 639 l 1,49,-1
 77 693 l 1,50,-1
 131 693 l 1,51,-1
 231 593 l 1,52,-1
 231 539 l 1,53,-1
 177 539 l 1,48,-1
EndSplineSet
Validated: 1
EndChar

StartChar: oacute
Encoding: 243 243 179
Width: 461
GlyphClass: 1
Flags: W
HStem: 0 77<103.534 281.466> 385 77<103.534 281.466> 673 20G<234 308>
VStem: 0 77<103.534 358.466> 308 77<103.534 358.466>
LayerCount: 2
Fore
SplineSet
0 308 m 2,0,1
 0 337 0 337 13 364.5 c 128,-1,2
 26 392 26 392 48 414 c 128,-1,3
 70 436 70 436 97.5 449 c 128,-1,4
 125 462 125 462 154 462 c 2,5,-1
 231 462 l 2,6,7
 260 462 260 462 287.5 449 c 128,-1,8
 315 436 315 436 337 414 c 128,-1,9
 359 392 359 392 372 364.5 c 128,-1,10
 385 337 385 337 385 308 c 2,11,-1
 385 154 l 2,12,13
 385 125 385 125 372 97.5 c 128,-1,14
 359 70 359 70 337 48 c 128,-1,15
 315 26 315 26 287.5 13 c 128,-1,16
 260 0 260 0 231 0 c 2,17,-1
 154 0 l 2,18,19
 125 0 125 0 97.5 13 c 128,-1,20
 70 26 70 26 48 48 c 128,-1,21
 26 70 26 70 13 97.5 c 128,-1,22
 0 125 0 125 0 154 c 2,23,-1
 0 308 l 2,0,1
231 77 m 2,24,25
 246 77 246 77 259.5 83.5 c 128,-1,26
 273 90 273 90 284 101 c 128,-1,27
 295 112 295 112 301.5 126 c 128,-1,28
 308 140 308 140 308 154 c 2,29,-1
 308 308 l 2,30,31
 308 323 308 323 301.5 336.5 c 128,-1,32
 295 350 295 350 284 361 c 128,-1,33
 273 372 273 372 259.5 378.5 c 128,-1,34
 246 385 246 385 231 385 c 2,35,-1
 154 385 l 2,36,37
 140 385 140 385 126 378.5 c 128,-1,38
 112 372 112 372 101 361 c 128,-1,39
 90 350 90 350 83.5 336.5 c 128,-1,40
 77 323 77 323 77 308 c 2,41,-1
 77 154 l 2,42,43
 77 140 77 140 83.5 126 c 128,-1,44
 90 112 90 112 101 101 c 128,-1,45
 112 90 112 90 126 83.5 c 128,-1,46
 140 77 140 77 154 77 c 2,47,-1
 231 77 l 2,24,25
154 593 m 1,48,-1
 254 693 l 1,49,-1
 308 693 l 1,50,-1
 308 639 l 1,51,-1
 208 539 l 1,52,-1
 154 539 l 1,53,-1
 154 593 l 1,48,-1
EndSplineSet
Validated: 1
EndChar

StartChar: ocircumflex
Encoding: 244 244 180
Width: 461
GlyphClass: 1
Flags: W
HStem: 0 77<103.534 281.466> 385 77<103.534 281.466> 674 20G<172 211.828>
VStem: 0 77<103.534 358.466> 308 77<103.534 358.466>
LayerCount: 2
Fore
SplineSet
0 308 m 2,0,1
 0 337 0 337 13 364.5 c 128,-1,2
 26 392 26 392 48 414 c 128,-1,3
 70 436 70 436 97.5 449 c 128,-1,4
 125 462 125 462 154 462 c 2,5,-1
 231 462 l 2,6,7
 260 462 260 462 287.5 449 c 128,-1,8
 315 436 315 436 337 414 c 128,-1,9
 359 392 359 392 372 364.5 c 128,-1,10
 385 337 385 337 385 308 c 2,11,-1
 385 154 l 2,12,13
 385 125 385 125 372 97.5 c 128,-1,14
 359 70 359 70 337 48 c 128,-1,15
 315 26 315 26 287.5 13 c 128,-1,16
 260 0 260 0 231 0 c 2,17,-1
 154 0 l 2,18,19
 125 0 125 0 97.5 13 c 128,-1,20
 70 26 70 26 48 48 c 128,-1,21
 26 70 26 70 13 97.5 c 128,-1,22
 0 125 0 125 0 154 c 2,23,-1
 0 308 l 2,0,1
231 77 m 2,24,25
 246 77 246 77 259.5 83.5 c 128,-1,26
 273 90 273 90 284 101 c 128,-1,27
 295 112 295 112 301.5 126 c 128,-1,28
 308 140 308 140 308 154 c 2,29,-1
 308 308 l 2,30,31
 308 323 308 323 301.5 336.5 c 128,-1,32
 295 350 295 350 284 361 c 128,-1,33
 273 372 273 372 259.5 378.5 c 128,-1,34
 246 385 246 385 231 385 c 2,35,-1
 154 385 l 2,36,37
 140 385 140 385 126 378.5 c 128,-1,38
 112 372 112 372 101 361 c 128,-1,39
 90 350 90 350 83.5 336.5 c 128,-1,40
 77 323 77 323 77 308 c 2,41,-1
 77 154 l 2,42,43
 77 140 77 140 83.5 126 c 128,-1,44
 90 112 90 112 101 101 c 128,-1,45
 112 90 112 90 126 83.5 c 128,-1,46
 140 77 140 77 154 77 c 2,47,-1
 231 77 l 2,24,25
77 579 m 1,48,-1
 192 694 l 1,49,-1
 307 578 l 1,50,-1
 307 539 l 1,51,-1
 237 539 l 1,52,-1
 192 584 l 1,53,-1
 147 539 l 1,54,-1
 77 539 l 1,55,-1
 77 579 l 1,48,-1
EndSplineSet
Validated: 1
EndChar

StartChar: otilde
Encoding: 245 245 181
Width: 461
GlyphClass: 1
Flags: W
HStem: 0 77<103.534 281.466> 385 77<103.534 281.466> 540 79<229.529 304.327> 617 79<82.0825 157.471>
VStem: 0 77<103.534 358.466 539 611.844> 308 77<103.534 358.466 623.192 695>
LayerCount: 2
Fore
SplineSet
0 308 m 2,0,1
 0 337 0 337 13 364.5 c 128,-1,2
 26 392 26 392 48 414 c 128,-1,3
 70 436 70 436 97.5 449 c 128,-1,4
 125 462 125 462 154 462 c 2,5,-1
 231 462 l 2,6,7
 260 462 260 462 287.5 449 c 128,-1,8
 315 436 315 436 337 414 c 128,-1,9
 359 392 359 392 372 364.5 c 128,-1,10
 385 337 385 337 385 308 c 2,11,-1
 385 154 l 2,12,13
 385 125 385 125 372 97.5 c 128,-1,14
 359 70 359 70 337 48 c 128,-1,15
 315 26 315 26 287.5 13 c 128,-1,16
 260 0 260 0 231 0 c 2,17,-1
 154 0 l 2,18,19
 125 0 125 0 97.5 13 c 128,-1,20
 70 26 70 26 48 48 c 128,-1,21
 26 70 26 70 13 97.5 c 128,-1,22
 0 125 0 125 0 154 c 2,23,-1
 0 308 l 2,0,1
231 77 m 2,24,25
 246 77 246 77 259.5 83.5 c 128,-1,26
 273 90 273 90 284 101 c 128,-1,27
 295 112 295 112 301.5 126 c 128,-1,28
 308 140 308 140 308 154 c 2,29,-1
 308 308 l 2,30,31
 308 323 308 323 301.5 336.5 c 128,-1,32
 295 350 295 350 284 361 c 128,-1,33
 273 372 273 372 259.5 378.5 c 128,-1,34
 246 385 246 385 231 385 c 2,35,-1
 154 385 l 2,36,37
 140 385 140 385 126 378.5 c 128,-1,38
 112 372 112 372 101 361 c 128,-1,39
 90 350 90 350 83.5 336.5 c 128,-1,40
 77 323 77 323 77 308 c 2,41,-1
 77 154 l 2,42,43
 77 140 77 140 83.5 126 c 128,-1,44
 90 112 90 112 101 101 c 128,-1,45
 112 90 112 90 126 83.5 c 128,-1,46
 140 77 140 77 154 77 c 2,47,-1
 231 77 l 2,24,25
2 581 m 2,48,49
 2 602 2 602 12 623 c 128,-1,50
 22 644 22 644 38 660 c 128,-1,51
 54 676 54 676 74.5 686 c 128,-1,52
 95 696 95 696 117 696 c 0,53,54
 155 696 155 696 186 673 c 2,55,-1
 248 627 l 2,56,57
 259 619 259 619 271 619 c 0,58,59
 285 619 285 619 297 631 c 128,-1,60
 309 643 309 643 309 657 c 2,61,-1
 309 695 l 1,62,-1
 386 695 l 1,63,-1
 386 656 l 2,64,65
 386 634 386 634 376 613.5 c 128,-1,66
 366 593 366 593 349.5 576.5 c 128,-1,67
 333 560 333 560 312.5 550 c 128,-1,68
 292 540 292 540 270 540 c 0,69,70
 232 540 232 540 201 563 c 2,71,-1
 139 609 l 2,72,73
 128 617 128 617 116 617 c 0,74,75
 101 617 101 617 89 604.5 c 128,-1,76
 77 592 77 592 77 578 c 2,77,-1
 77 539 l 1,78,-1
 0 539 l 1,79,-1
 2 581 l 2,48,49
EndSplineSet
Validated: 1
EndChar

StartChar: odieresis
Encoding: 246 246 182
Width: 461
GlyphClass: 1
Flags: W
HStem: 0 77<103.534 281.466> 385 77<103.534 281.466> 533 100<74.9727 152.777 232.709 271>
VStem: 0 77<103.534 358.466> 64 100<543.973 622.027> 222 96<544.086 623> 308 77<103.534 358.466>
LayerCount: 2
Fore
SplineSet
116 533 m 1,0,1
 96 533 96 533 80 549 c 128,-1,2
 64 565 64 565 64 583 c 256,3,4
 64 601 64 601 80 617 c 128,-1,5
 96 633 96 633 114 633 c 256,6,7
 133 633 133 633 148.5 616.5 c 128,-1,8
 164 600 164 600 164 582 c 0,9,10
 164 562 164 562 147 547 c 0,11,12
 130 531 130 531 113 531 c 1,13,-1
 116 533 l 1,0,1
271 535 m 1,14,15
 251 535 251 535 236.5 550.5 c 128,-1,16
 222 566 222 566 222 584 c 256,17,18
 222 603 222 603 237 617.5 c 128,-1,19
 252 632 252 632 271 632 c 256,20,21
 289 632 289 632 304 616 c 0,22,23
 318 601 318 601 318 586 c 0,24,25
 318 584 318 584 318 582 c 0,26,27
 318 562 318 562 303 548 c 0,28,29
 287 533 287 533 269 532 c 1,30,-1
 271 535 l 1,14,15
0 308 m 2,31,32
 0 337 0 337 13 364.5 c 128,-1,33
 26 392 26 392 48 414 c 128,-1,34
 70 436 70 436 97.5 449 c 128,-1,35
 125 462 125 462 154 462 c 2,36,-1
 231 462 l 2,37,38
 260 462 260 462 287.5 449 c 128,-1,39
 315 436 315 436 337 414 c 128,-1,40
 359 392 359 392 372 364.5 c 128,-1,41
 385 337 385 337 385 308 c 2,42,-1
 385 154 l 2,43,44
 385 125 385 125 372 97.5 c 128,-1,45
 359 70 359 70 337 48 c 128,-1,46
 315 26 315 26 287.5 13 c 128,-1,47
 260 0 260 0 231 0 c 2,48,-1
 154 0 l 2,49,50
 125 0 125 0 97.5 13 c 128,-1,51
 70 26 70 26 48 48 c 128,-1,52
 26 70 26 70 13 97.5 c 128,-1,53
 0 125 0 125 0 154 c 2,54,-1
 0 308 l 2,31,32
231 77 m 2,55,56
 246 77 246 77 259.5 83.5 c 128,-1,57
 273 90 273 90 284 101 c 128,-1,58
 295 112 295 112 301.5 126 c 128,-1,59
 308 140 308 140 308 154 c 2,60,-1
 308 308 l 2,61,62
 308 323 308 323 301.5 336.5 c 128,-1,63
 295 350 295 350 284 361 c 128,-1,64
 273 372 273 372 259.5 378.5 c 128,-1,65
 246 385 246 385 231 385 c 2,66,-1
 154 385 l 2,67,68
 140 385 140 385 126 378.5 c 128,-1,69
 112 372 112 372 101 361 c 128,-1,70
 90 350 90 350 83.5 336.5 c 128,-1,71
 77 323 77 323 77 308 c 2,72,-1
 77 154 l 2,73,74
 77 140 77 140 83.5 126 c 128,-1,75
 90 112 90 112 101 101 c 128,-1,76
 112 90 112 90 126 83.5 c 128,-1,77
 140 77 140 77 154 77 c 2,78,-1
 231 77 l 2,55,56
EndSplineSet
Validated: 1
EndChar

StartChar: divide
Encoding: 247 247 183
Width: 461
GlyphClass: 1
Flags: W
HStem: 118 76<160.456 195> 308 77<0 385> 506 76<162.456 197>
VStem: 156 76<122.472 189.358 511.672 576.328>
LayerCount: 2
Fore
SplineSet
0 385 m 1,0,-1
 385 385 l 1,1,-1
 385 308 l 1,2,-1
 0 308 l 1,3,-1
 0 385 l 1,0,-1
195 118 m 1,4,5
 180 118 180 118 168 130 c 128,-1,6
 156 142 156 142 156 156 c 256,7,8
 156 170 156 170 168 182 c 128,-1,9
 180 194 180 194 194 194 c 256,10,11
 208 194 208 194 220 181.5 c 128,-1,12
 232 169 232 169 232 155 c 0,13,14
 232 140 232 140 219.5 128 c 128,-1,15
 207 116 207 116 193 116 c 1,16,-1
 195 118 l 1,4,5
197 506 m 1,17,18
 182 506 182 506 170 518 c 128,-1,19
 158 530 158 530 158 544 c 256,20,21
 158 558 158 558 170 570 c 128,-1,22
 182 582 182 582 196 582 c 256,23,24
 210 582 210 582 222 569.5 c 128,-1,25
 234 557 234 557 234 543 c 0,26,27
 234 528 234 528 221.5 516 c 128,-1,28
 209 504 209 504 195 504 c 1,29,-1
 197 506 l 1,17,18
EndSplineSet
Validated: 1
EndChar

StartChar: oslash
Encoding: 248 248 184
Width: 461
GlyphClass: 1
Flags: W
HStem: 0 77<160 281.602> 385 77<103.534 225>
VStem: 0 77<110.667 358.466> 308 78<103.534 351.333>
LayerCount: 2
Fore
SplineSet
0 308 m 2,0,1
 0 337 0 337 13 364.5 c 128,-1,2
 26 392 26 392 48 414 c 128,-1,3
 70 436 70 436 97.5 449 c 128,-1,4
 125 462 125 462 154 462 c 2,5,-1
 231 462 l 2,6,7
 246 462 246 462 261 459 c 1,8,-1
 300 539 l 1,9,-1
 386 539 l 1,10,-1
 331 426 l 1,11,12
 357 404 357 404 371.5 373 c 128,-1,13
 386 342 386 342 386 308 c 2,14,-1
 386 154 l 2,15,16
 386 125 386 125 373 97.5 c 128,-1,17
 360 70 360 70 338 48 c 128,-1,18
 316 26 316 26 288.5 13 c 128,-1,19
 261 0 261 0 232 0 c 2,20,-1
 155 0 l 2,21,22
 140 0 140 0 125 3 c 1,23,-1
 86 -77 l 1,24,-1
 0 -77 l 1,25,-1
 55 36 l 1,26,27
 29 58 29 58 14.5 89 c 128,-1,28
 0 120 0 120 0 154 c 2,29,-1
 0 308 l 2,0,1
77 154 m 2,30,31
 77 130 77 130 91 110 c 1,32,-1
 225 385 l 1,33,-1
 154 385 l 2,34,35
 140 385 140 385 126 378.5 c 128,-1,36
 112 372 112 372 101 361 c 128,-1,37
 90 350 90 350 83.5 336.5 c 128,-1,38
 77 323 77 323 77 308 c 2,39,-1
 77 154 l 2,30,31
308 308 m 2,40,41
 308 332 308 332 294 352 c 1,42,-1
 160 77 l 1,43,-1
 231 77 l 2,44,45
 246 77 246 77 259.5 83.5 c 128,-1,46
 273 90 273 90 284 101 c 128,-1,47
 295 112 295 112 301.5 126 c 128,-1,48
 308 140 308 140 308 154 c 2,49,-1
 308 308 l 2,40,41
EndSplineSet
Validated: 1
EndChar

StartChar: ugrave
Encoding: 249 249 185
Width: 461
GlyphClass: 1
Flags: W
HStem: 0 77<103.534 281.916> 442 20G<0 77 308 385> 673 20G<77 151>
VStem: 0 77<103.534 462> 308 77<0 21 103.089 462>
LayerCount: 2
Fore
SplineSet
0 462 m 1,0,-1
 77 462 l 1,1,-1
 77 154 l 2,2,3
 77 140 77 140 83.5 126 c 128,-1,4
 90 112 90 112 101 101 c 128,-1,5
 112 90 112 90 126 83.5 c 128,-1,6
 140 77 140 77 154 77 c 2,7,-1
 231 77 l 2,8,9
 246 77 246 77 259.5 83.5 c 128,-1,10
 273 90 273 90 284 101 c 128,-1,11
 295 112 295 112 301.5 126 c 128,-1,12
 308 140 308 140 308 154 c 2,13,-1
 308 462 l 1,14,-1
 385 462 l 1,15,-1
 385 0 l 1,16,-1
 308 0 l 1,17,-1
 308 21 l 1,18,19
 273 0 273 0 231 0 c 2,20,-1
 154 0 l 2,21,22
 125 0 125 0 97.5 13 c 128,-1,23
 70 26 70 26 48 48 c 128,-1,24
 26 70 26 70 13 97.5 c 128,-1,25
 0 125 0 125 0 154 c 2,26,-1
 0 462 l 1,0,-1
177 539 m 1,27,-1
 77 639 l 1,28,-1
 77 693 l 1,29,-1
 131 693 l 1,30,-1
 231 593 l 1,31,-1
 231 539 l 1,32,-1
 177 539 l 1,27,-1
EndSplineSet
Validated: 1
EndChar

StartChar: uacute
Encoding: 250 250 186
Width: 461
GlyphClass: 1
Flags: W
HStem: 0 77<103.534 281.916> 442 20G<0 77 308 385> 673 20G<234 308>
VStem: 0 77<103.534 462> 308 77<0 21 103.089 462>
LayerCount: 2
Fore
SplineSet
0 462 m 1,0,-1
 77 462 l 1,1,-1
 77 154 l 2,2,3
 77 140 77 140 83.5 126 c 128,-1,4
 90 112 90 112 101 101 c 128,-1,5
 112 90 112 90 126 83.5 c 128,-1,6
 140 77 140 77 154 77 c 2,7,-1
 231 77 l 2,8,9
 246 77 246 77 259.5 83.5 c 128,-1,10
 273 90 273 90 284 101 c 128,-1,11
 295 112 295 112 301.5 126 c 128,-1,12
 308 140 308 140 308 154 c 2,13,-1
 308 462 l 1,14,-1
 385 462 l 1,15,-1
 385 0 l 1,16,-1
 308 0 l 1,17,-1
 308 21 l 1,18,19
 273 0 273 0 231 0 c 2,20,-1
 154 0 l 2,21,22
 125 0 125 0 97.5 13 c 128,-1,23
 70 26 70 26 48 48 c 128,-1,24
 26 70 26 70 13 97.5 c 128,-1,25
 0 125 0 125 0 154 c 2,26,-1
 0 462 l 1,0,-1
154 593 m 1,27,-1
 254 693 l 1,28,-1
 308 693 l 1,29,-1
 308 639 l 1,30,-1
 208 539 l 1,31,-1
 154 539 l 1,32,-1
 154 593 l 1,27,-1
EndSplineSet
Validated: 1
EndChar

